<svg width="48" height="36" viewBox="0 0 48 36" fill="none" xmlns="http://www.w3.org/2000/svg">
<path d="M3.26062 5.67532C5.95718 2.05731 10.2149 0 14.7565 0H28.736C30.1553 0 31.5036 0.780357 32.2132 2.0573L47.3991 30.292C47.9668 31.3562 47.9668 32.5622 47.3282 33.5554C46.6895 34.5485 45.6251 35.187 44.4897 35.187H37.1806C35.8323 35.187 34.6259 34.4776 33.9873 33.2716L30.652 27.1706C30.5811 27.0997 30.5811 27.0287 30.5101 26.8868L30.2263 26.3193C30.2263 26.2484 30.1553 26.2484 30.1553 26.1774C28.5232 26.8868 27.2458 28.7313 25.5427 27.0287C24.1945 25.1842 22.4204 23.4817 21.0721 21.7081C20.2915 20.644 19.7239 19.2961 18.9433 18.232C18.8723 18.161 18.8723 18.0901 18.8723 17.9482C18.8723 17.4516 20.0787 16.0328 20.1496 15.5362C20.2206 15.0396 19.6529 14.4011 19.9367 13.8336L17.2402 12.2019C16.6725 12.2019 16.1048 12.0601 15.5371 11.9891C15.0403 11.9182 12.4147 11.8472 12.2019 11.6344C12.0599 11.4925 12.2019 9.64805 12.2728 9.36428C12.2728 9.29334 12.3438 9.2224 12.4147 9.15146C12.8405 8.86769 17.0982 9.64805 17.8788 9.57711L21.285 11.3506C21.7108 9.93182 22.7752 11.7054 23.3429 11.8472C23.6268 11.9182 24.4074 11.5635 24.7622 11.7054L29.2328 15.9619C29.4457 16.4584 28.7361 17.5935 28.807 18.232C29.9424 20.3602 31.2907 22.3466 32.3551 24.4748C32.3551 24.6877 32.2842 24.8295 32.2842 24.8295C32.2842 24.8295 32.3551 24.9714 32.4261 25.1133L36.1871 31.9946C36.4 32.3493 37.1096 32.5622 37.1096 32.5622C37.1096 32.5622 41.7221 32.5622 44.1349 32.5622C44.8445 32.5622 45.2702 31.8528 44.9154 31.2143C41.7931 25.468 29.8005 3.19237 29.8005 3.19237C29.5876 2.76672 29.0909 2.48295 28.5941 2.48295H14.7565C11.0665 2.48295 7.51834 4.18555 5.31852 7.1651C3.18965 10.1446 2.55099 13.7627 3.61543 17.2388C5.10563 22.0628 9.64721 25.2552 14.7565 25.2552H20.4335C20.6464 25.2552 20.7883 25.3261 20.9302 25.468L22.7043 27.3125C22.9171 27.5253 22.7752 27.8091 22.4914 27.8091H14.5436C8.44085 27.8091 3.11869 23.9073 1.20271 18.161C-0.216537 13.9755 0.564053 9.36428 3.26062 5.67532ZM25.6847 26.0355L24.6912 22.4175C24.3364 21.4243 22.9881 22.0628 22.2075 21.9209L25.6847 26.0355ZM22.4204 20.4312C22.7752 20.2183 23.13 19.9346 23.5558 19.6508C23.201 19.9346 22.7752 20.2183 22.4204 20.4312ZM29.3747 25.539C28.3103 23.9073 27.4587 22.2047 26.3943 20.5731C26.1814 20.2183 25.8976 19.7218 25.4718 19.6508C24.9041 19.5799 23.6268 20.7859 22.9881 20.9987C22.9881 21.1406 23.0591 21.0696 23.201 21.0696C23.4139 21.0696 23.6268 20.9987 23.8397 20.9987C24.8331 21.0696 25.2589 21.3534 25.6137 22.3466C26.1104 23.8364 26.3943 25.468 26.891 26.9578C27.3878 27.3125 28.9489 25.9646 29.4457 25.7518L29.3747 25.539Z" fill="url(#paint0_linear_96_4597)"/>
<defs>
<linearGradient id="paint0_linear_96_4597" x1="47.8028" y1="17.5974" x2="0.528496" y2="17.5974" gradientUnits="userSpaceOnUse">
<stop offset="0.0938326" stop-color="#149CD8"/>
<stop offset="0.8943" stop-color="#74CBF4"/>
</linearGradient>
</defs>
</svg>
