<svg width="21" height="22" viewBox="0 0 21 22" fill="none" xmlns="http://www.w3.org/2000/svg">
<path d="M10.9374 19.7503H3.56988C2.55488 19.7503 1.72363 18.9366 1.72363 17.9391V4.95406C1.72363 2.66156 3.42988 1.62031 5.52113 2.64406L9.40613 4.55156C10.2461 4.96281 10.9374 6.05656 10.9374 6.98406V19.7503Z" stroke="#000232" stroke-linecap="round" stroke-linejoin="round"/>
<path d="M19.2237 13.6772V16.9847C19.2237 18.8747 18.3488 19.7497 16.4587 19.7497H10.9375V9.61719L11.3488 9.70469L15.2862 10.5884L17.0625 10.9822C18.2175 11.2359 19.1625 11.8309 19.215 13.5109C19.2237 13.5634 19.2237 13.6159 19.2237 13.6772Z" stroke="#000232" stroke-linecap="round" stroke-linejoin="round"/>
<path d="M4.8125 8.375H7.84875" stroke="#000232" stroke-linecap="round" stroke-linejoin="round"/>
<path d="M4.8125 11.875H7.84875" stroke="#000232" stroke-linecap="round" stroke-linejoin="round"/>
<path d="M15.2861 10.5888V13.4063C15.2861 14.4913 14.4024 15.3751 13.3174 15.3751C12.2324 15.3751 11.3486 14.4913 11.3486 13.4063V9.70508L15.2861 10.5888Z" stroke="#000232" stroke-linecap="round" stroke-linejoin="round"/>
<path d="M19.2149 13.5114C19.1624 14.5439 18.3049 15.3751 17.2549 15.3751C16.1699 15.3751 15.2861 14.4914 15.2861 13.4064V10.5889L17.0624 10.9826C18.2174 11.2364 19.1624 11.8314 19.2149 13.5114Z" stroke="#000232" stroke-linecap="round" stroke-linejoin="round"/>
</svg>
