<svg width="49" height="49" viewBox="0 0 49 49" fill="none" xmlns="http://www.w3.org/2000/svg">
<path d="M44.8555 37.4239C44.8555 38.1589 44.6921 38.9143 44.345 39.6493C43.998 40.3843 43.5488 41.0785 42.9567 41.7318C41.9563 42.8343 40.8538 43.6306 39.6084 44.141C38.3834 44.6514 37.0563 44.9168 35.6271 44.9168C33.5446 44.9168 31.3192 44.4268 28.9713 43.4264C26.6234 42.426 24.2755 41.0785 21.948 39.3839C19.6 37.6689 17.3746 35.7702 15.2513 33.6672C13.1484 31.5439 11.2496 29.3185 9.55504 26.991C7.88087 24.6635 6.53337 22.336 5.55337 20.0289C4.57337 17.7014 4.08337 15.476 4.08337 13.3527C4.08337 11.9643 4.32837 10.6372 4.81837 9.41225C5.30837 8.16683 6.08421 7.0235 7.16629 6.00266C8.47296 4.71641 9.90212 4.0835 11.413 4.0835C11.9846 4.0835 12.5563 4.206 13.0667 4.451C13.5975 4.696 14.0671 5.0635 14.4346 5.59433L19.1713 12.2706C19.5388 12.781 19.8042 13.2506 19.988 13.6997C20.1717 14.1285 20.2738 14.5572 20.2738 14.9452C20.2738 15.4352 20.1309 15.9252 19.845 16.3947C19.5796 16.8643 19.1917 17.3543 18.7017 17.8443L17.15 19.4572C16.9255 19.6818 16.8234 19.9472 16.8234 20.2739C16.8234 20.4372 16.8438 20.5802 16.8846 20.7435C16.9459 20.9068 17.0071 21.0293 17.048 21.1518C17.4155 21.8256 18.0484 22.7035 18.9467 23.7652C19.8655 24.8268 20.8455 25.9089 21.9071 26.991C23.0096 28.0731 24.0713 29.0735 25.1534 29.9922C26.215 30.8906 27.093 31.5031 27.7871 31.8706C27.8892 31.9114 28.0117 31.9727 28.1546 32.0339C28.318 32.0952 28.4813 32.1156 28.665 32.1156C29.0121 32.1156 29.2775 31.9931 29.5021 31.7685L31.0538 30.2372C31.5642 29.7268 32.0542 29.3389 32.5238 29.0939C32.9934 28.8081 33.463 28.6652 33.9734 28.6652C34.3613 28.6652 34.7696 28.7468 35.2188 28.9306C35.668 29.1143 36.1375 29.3797 36.648 29.7268L43.4059 34.5247C43.9367 34.8922 44.3042 35.321 44.5288 35.8314C44.733 36.3418 44.8555 36.8522 44.8555 37.4239Z" stroke="#000232" stroke-width="3" stroke-miterlimit="10"/>
<path d="M37.7708 18.3748C37.7708 17.1498 36.8112 15.2715 35.3821 13.7403C34.0754 12.3315 32.34 11.229 30.625 11.229" stroke="#000232" stroke-width="3" stroke-linecap="round" stroke-linejoin="round"/>
<path d="M44.9167 18.3752C44.9167 10.4739 38.5263 4.0835 30.625 4.0835" stroke="#000232" stroke-width="3" stroke-linecap="round" stroke-linejoin="round"/>
</svg>
