<svg width="70" height="70" viewBox="0 0 70 70" fill="none" xmlns="http://www.w3.org/2000/svg">
<path d="M63.4667 46.433L44.8001 12.833C42.2917 8.31218 38.8209 5.83301 35.0001 5.83301C31.1792 5.83301 27.7084 8.31218 25.2001 12.833L6.53339 46.433C4.17089 50.7205 3.90839 54.833 5.80422 58.0705C7.70006 61.308 11.4334 63.0872 16.3334 63.0872H53.6667C58.5667 63.0872 62.3001 61.308 64.1959 58.0705C66.0917 54.833 65.8292 50.6913 63.4667 46.433ZM32.8126 26.2497C32.8126 25.0538 33.8042 24.0622 35.0001 24.0622C36.1959 24.0622 37.1876 25.0538 37.1876 26.2497V40.833C37.1876 42.0288 36.1959 43.0205 35.0001 43.0205C33.8042 43.0205 32.8126 42.0288 32.8126 40.833V26.2497ZM37.0709 51.6538C36.9251 51.7705 36.7792 51.8872 36.6334 52.0038C36.4584 52.1205 36.2834 52.208 36.1084 52.2663C35.9334 52.3538 35.7584 52.4122 35.5542 52.4413C35.3792 52.4705 35.1751 52.4997 35.0001 52.4997C34.8251 52.4997 34.6209 52.4705 34.4167 52.4413C34.2417 52.4122 34.0667 52.3538 33.8917 52.2663C33.7167 52.208 33.5417 52.1205 33.3667 52.0038C33.2209 51.8872 33.0751 51.7705 32.9292 51.6538C32.4042 51.0997 32.0834 50.3413 32.0834 49.583C32.0834 48.8247 32.4042 48.0663 32.9292 47.5122C33.0751 47.3955 33.2209 47.2788 33.3667 47.1622C33.5417 47.0455 33.7167 46.958 33.8917 46.8997C34.0667 46.8122 34.2417 46.7538 34.4167 46.7247C34.7959 46.6372 35.2042 46.6372 35.5542 46.7247C35.7584 46.7538 35.9334 46.8122 36.1084 46.8997C36.2834 46.958 36.4584 47.0455 36.6334 47.1622C36.7792 47.2788 36.9251 47.3955 37.0709 47.5122C37.5959 48.0663 37.9167 48.8247 37.9167 49.583C37.9167 50.3413 37.5959 51.0997 37.0709 51.6538Z" fill="#DA080C"/>
</svg>
