<svg width="24" height="24" viewBox="0 0 24 24" fill="none" xmlns="http://www.w3.org/2000/svg">
<g opacity="0.4" clip-path="url(#clip0_2007_6556)">
<path d="M4.25067 23.9999C3.90565 23.9106 3.54946 23.851 3.2186 23.726C1.38322 23.0306 0.312397 21.6987 0.0418964 19.7607C-0.305357 17.2778 1.54865 14.8417 4.0219 14.4747C4.53187 14.3959 5.05073 14.3934 5.56144 14.4672C5.61973 14.472 5.67838 14.4648 5.73383 14.4463C5.78929 14.4277 5.84041 14.3981 5.8841 14.3593C8.72423 11.5301 11.5589 8.69729 14.3881 5.86071C14.4228 5.81981 14.449 5.77241 14.4651 5.72127C14.4812 5.67013 14.487 5.61629 14.482 5.56291C14.096 2.8931 15.801 0.524069 18.4575 0.061729C19.0839 -0.0426145 19.7252 -0.0154845 20.3406 0.141391C20.6908 0.22701 20.7996 0.57544 20.5492 0.841975C20.2772 1.13233 19.9881 1.40706 19.7064 1.68923C19.2146 2.1806 18.7258 2.67496 18.228 3.16038C18.1192 3.26684 18.0872 3.35469 18.1401 3.50285C18.3279 4.03145 18.5062 4.56353 18.6751 5.09908C18.6914 5.16163 18.7245 5.21852 18.7709 5.26355C18.8172 5.30858 18.8751 5.34002 18.9382 5.35445C19.4665 5.52643 19.9948 5.69543 20.5164 5.88156C20.6744 5.93814 20.7676 5.90613 20.8808 5.79222C21.6163 5.04771 22.3608 4.31139 23.1007 3.5706C23.2423 3.42914 23.3824 3.29439 23.6089 3.36586C23.8355 3.43733 23.8869 3.61527 23.9182 3.81778C23.9401 3.92258 23.9683 4.026 24.0024 4.12749V5.48622C23.9843 5.53712 23.9694 5.58909 23.9577 5.64183C23.5449 8.18656 21.0351 9.97934 18.4948 9.53635C18.4317 9.52071 18.3655 9.52294 18.3037 9.5428C18.2418 9.56266 18.1867 9.59936 18.1445 9.64878C17.5417 10.2608 16.9314 10.8653 16.3241 11.4728C16.2823 11.5153 16.2495 11.5629 16.2115 11.6046C16.2209 11.6235 16.2321 11.6415 16.2451 11.6582L16.9567 12.3707C17.3099 12.7243 17.3129 12.871 16.9709 13.2284C16.7414 13.4696 16.7183 13.7145 16.9068 13.9118C17.0953 14.1091 17.3591 14.0942 17.6088 13.859C17.9642 13.5247 18.1103 13.5247 18.4486 13.8634C19.9628 15.3758 21.4762 16.8896 22.989 18.4049C23.132 18.5479 23.2639 18.7028 23.3928 18.8591C23.7066 19.2403 23.8541 19.7004 24.0024 20.1598V21.4254C23.9817 21.4741 23.9636 21.5238 23.948 21.5743C23.7548 22.3351 23.293 23.0006 22.6477 23.4483C22.2482 23.7319 21.7929 23.8763 21.3287 24.0029H20.2929C19.313 23.8175 18.6207 23.1974 17.9508 22.5139C16.6095 21.1462 15.2488 19.8054 13.8955 18.4541C13.8456 18.4042 13.7934 18.3566 13.7465 18.3052C13.5781 18.1064 13.5803 17.9143 13.7502 17.717C13.838 17.6288 13.9192 17.5342 13.9931 17.4341C14.0477 17.356 14.0725 17.261 14.0631 17.1663C14.0536 17.0715 14.0106 16.9832 13.9417 16.9174C13.8783 16.8413 13.7895 16.7905 13.6917 16.7744C13.5939 16.7583 13.4935 16.7778 13.4089 16.8296C13.3291 16.8779 13.2564 16.937 13.1928 17.0053C12.9015 17.283 12.7241 17.2837 12.435 16.9963C12.166 16.7276 11.9007 16.4551 11.6205 16.1714C11.0393 16.7529 10.4938 17.3209 9.92074 17.8607C9.64279 18.1228 9.53176 18.3625 9.57349 18.7787C9.79331 20.9884 8.50714 22.9725 6.40946 23.7282C6.06071 23.854 5.68812 23.9151 5.32671 24.0059L4.25067 23.9999ZM19.4426 0.831552C18.9501 0.762312 18.2392 0.875478 17.7287 1.0899C15.8963 1.85153 14.9336 3.65696 15.3203 5.61279C15.3524 5.73225 15.3504 5.8583 15.3146 5.9767C15.2788 6.09511 15.2106 6.20115 15.1176 6.28285C12.1667 9.22167 9.22052 12.1647 6.27905 15.112C6.0853 15.3056 5.8923 15.3674 5.62776 15.3063C5.1089 15.1853 4.56996 15.1779 4.04798 15.2847C2.52856 15.5959 1.47488 16.4826 0.980077 17.9404C0.465158 19.4547 0.778879 20.8514 1.881 22.0166C2.47555 22.6472 3.2598 23.0669 4.11472 23.2119C4.96964 23.3569 5.84857 23.2192 6.61811 22.8199C8.2575 21.957 9.08763 20.2186 8.7143 18.396C8.68243 18.2803 8.68347 18.1579 8.7173 18.0427C8.75113 17.9275 8.8164 17.824 8.90581 17.7438C11.8622 14.799 14.8133 11.8503 17.7593 8.89756C17.9426 8.71442 18.1252 8.64666 18.3875 8.70325C19.3507 8.91947 20.36 8.76885 21.2179 8.28085C22.0758 7.79286 22.7207 7.00261 23.0262 6.06471C23.1889 5.59694 23.2355 5.09668 23.1618 4.60696C23.0784 4.65014 23.0523 4.74022 22.9942 4.79979C22.398 5.39986 21.8019 5.991 21.2057 6.59331C21.0187 6.7839 20.8332 6.83751 20.5753 6.74891C19.8674 6.50248 19.1595 6.26796 18.4434 6.03865C18.3344 6.00929 18.235 5.95191 18.1551 5.87222C18.0752 5.79254 18.0176 5.69334 17.9881 5.5845C17.7645 4.89434 17.5409 4.20567 17.2965 3.52295C17.1885 3.21919 17.2399 3.0018 17.4784 2.77249C18.1378 2.14784 18.7705 1.50012 19.4426 0.831552ZM15.6482 12.2136L12.245 15.6287L12.8307 16.228C12.8888 16.1923 12.9462 16.1536 13.0065 16.1193C13.246 15.9824 13.5244 15.9292 13.7976 15.9682C14.0708 16.0071 14.3232 16.136 14.5148 16.3345C14.9015 16.7261 14.9917 17.3567 14.6944 17.8235C14.5915 17.9858 14.6325 18.0588 14.7458 18.1712C16.1696 19.5882 17.5911 21.007 19.0104 22.4275C19.0805 22.4975 19.1595 22.5601 19.2034 22.6025L22.603 19.1993L17.9828 14.6042C17.3867 14.9646 16.8047 14.9608 16.3829 14.5201C16.2023 14.3193 16.0709 14.0791 15.9992 13.8188C15.8956 13.4577 16.0334 13.1152 16.2473 12.8182L15.6482 12.2136ZM23.1 20.0012L20.0187 23.076C20.9129 23.3492 21.7661 23.2115 22.4643 22.5355C23.1946 21.8312 23.3906 20.9594 23.103 20.0012H23.1Z" fill="#000232"/>
<path d="M2.09946 0.917976L0.92431 2.08462C0.942195 2.1211 0.96604 2.17694 0.998828 2.22906C1.3893 2.91401 1.77605 3.60044 2.17621 4.27944C2.2321 4.37399 2.34909 4.4812 2.4482 4.49311C3.43631 4.61372 4.16212 5.12818 4.84023 5.84439C6.21285 7.29768 7.65775 8.68395 9.06763 10.0933C8.87687 10.2675 8.68983 10.4388 8.50204 10.6093L8.53483 10.6792C8.46925 10.6182 8.40293 10.5579 8.33885 10.4946C6.74913 8.90631 5.15619 7.31803 3.56001 5.72974C3.45979 5.63379 3.33745 5.56398 3.20381 5.52649C2.80663 5.41109 2.39828 5.33217 2.00482 5.20858C1.85155 5.16081 1.71877 5.06302 1.62776 4.93088C1.10613 4.05236 0.603138 3.16193 0.097906 2.27298C-0.0436781 2.02432 -0.0213227 1.87244 0.185837 1.66397C0.673681 1.17061 1.166 0.678988 1.66278 0.189101C1.88112 -0.027551 2.02345 -0.0469081 2.29097 0.104972C3.16656 0.602304 4.03916 1.10559 4.91549 1.60144C4.99785 1.64589 5.06936 1.70798 5.12488 1.78328C5.18041 1.85858 5.21858 1.94521 5.23666 2.03697C5.34546 2.49112 5.38048 2.99218 5.60478 3.38379C5.82908 3.7754 6.24862 4.07544 6.58544 4.40972C7.8895 5.7141 9.19431 7.01749 10.4999 8.31989C10.5616 8.37576 10.6265 8.42796 10.6944 8.47623L10.1019 9.04578C10.0759 9.02121 10.0192 8.97133 9.96557 8.91773C8.32916 7.28477 6.69424 5.64958 5.0608 4.01216C4.93085 3.87046 4.83524 3.70081 4.78136 3.51631C4.66586 3.15299 4.59059 2.77702 4.49447 2.40774C4.48224 2.34085 4.44786 2.28002 4.39685 2.23501C3.62633 1.78831 2.85507 1.34905 2.09946 0.917976Z" fill="#000232"/>
<path d="M19.4427 0.831637C18.7721 1.5017 18.1379 2.14793 17.4829 2.77257C17.2445 2.99965 17.193 3.21928 17.3011 3.52304C17.5448 4.20575 17.7713 4.89442 17.9926 5.58458C18.0222 5.69343 18.0798 5.79263 18.1597 5.87231C18.2396 5.95199 18.3389 6.00937 18.4479 6.03874C19.1611 6.26804 19.872 6.50256 20.5799 6.749C20.8355 6.83759 21.0233 6.78399 21.2103 6.5934C21.8005 5.99034 22.4026 5.40218 22.9987 4.79987C23.0569 4.74031 23.0829 4.65097 23.1664 4.60704C23.24 5.09676 23.1935 5.59703 23.0308 6.06479C22.7252 7.0027 22.0804 7.79295 21.2225 8.28094C20.3646 8.76894 19.3552 8.91956 18.392 8.70333C18.1297 8.64675 17.9449 8.7145 17.7639 8.89765C14.8154 11.8494 11.8635 14.7976 8.90814 17.7424C8.81874 17.8226 8.75346 17.9261 8.71964 18.0413C8.68581 18.1565 8.68477 18.2789 8.71663 18.3946C9.08922 20.2172 8.26281 21.9556 6.62044 22.8185C5.8509 23.2178 4.97198 23.3555 4.11705 23.2105C3.26213 23.0655 2.47788 22.6458 1.88333 22.0152C0.781212 20.85 0.467492 19.4533 0.982411 17.939C1.47721 16.4812 2.53089 15.5945 4.05031 15.2833C4.5723 15.1765 5.11123 15.1839 5.6301 15.3049C5.89463 15.3659 6.08764 15.3049 6.28138 15.1106C9.22236 12.1628 12.1685 9.21978 15.12 6.28145C15.2129 6.19974 15.2811 6.0937 15.317 5.9753C15.3528 5.8569 15.3547 5.73085 15.3226 5.61139C14.9359 3.65556 15.9009 1.85013 17.7273 1.08849C18.2393 0.875563 18.9517 0.761653 19.4427 0.831637ZM4.79326 21.6079C5.17628 21.6079 5.5593 21.6042 5.94233 21.6079C6.03294 21.6141 6.12341 21.5939 6.20277 21.5498C6.28213 21.5057 6.34697 21.4395 6.38943 21.3592C6.7655 20.7294 7.1438 20.1008 7.52434 19.4734C7.57807 19.3962 7.6073 19.3047 7.60823 19.2107C7.60916 19.1166 7.58175 19.0245 7.52956 18.9463C7.14505 18.312 6.77395 17.6702 6.37379 17.0463C6.32743 16.9829 6.26837 16.9299 6.20038 16.8905C6.13238 16.8512 6.05694 16.8264 5.97884 16.8177C5.20534 16.7959 4.4316 16.7959 3.65761 16.8177C3.57921 16.825 3.50322 16.8487 3.43454 16.8871C3.36587 16.9256 3.30604 16.9781 3.25893 17.0411C2.8543 17.6717 2.47948 18.3209 2.09198 18.9619C2.04318 19.0332 2.01676 19.1174 2.0161 19.2037C2.01544 19.29 2.04056 19.3746 2.08826 19.4466C2.47525 20.0874 2.86076 20.7296 3.24478 21.3734C3.28633 21.4481 3.34801 21.5097 3.42283 21.5511C3.49765 21.5926 3.5826 21.6123 3.66804 21.6079C4.04286 21.6079 4.42067 21.6079 4.79326 21.6079ZM7.86042 16.6398L16.6215 7.88661L16.1647 7.38109L7.37158 16.1603L7.86042 16.6398Z" fill="white"/>
<path d="M23.1028 20.0012C23.3904 20.9594 23.1945 21.8305 22.4672 22.5326C21.7689 23.2086 20.9187 23.3463 20.0215 23.0731L23.1028 20.0012Z" fill="white"/>
<path d="M4.79262 21.6078C4.42003 21.6078 4.04222 21.6078 3.66739 21.6078C3.58111 21.6126 3.49521 21.593 3.41964 21.5511C3.34408 21.5092 3.28193 21.4467 3.24041 21.371C2.85589 20.7302 2.47039 20.0895 2.08389 19.4487C2.03619 19.3767 2.01107 19.2921 2.01173 19.2058C2.0124 19.1195 2.03882 19.0353 2.08761 18.964C2.47511 18.323 2.84993 17.6738 3.25457 17.0432C3.30168 16.9802 3.3615 16.9277 3.43018 16.8892C3.49885 16.8508 3.57484 16.8271 3.65324 16.8198C4.42673 16.799 5.20048 16.799 5.97447 16.8198C6.05257 16.8285 6.12802 16.8533 6.19601 16.8926C6.264 16.932 6.32306 16.985 6.36942 17.0484C6.76958 17.6723 7.14068 18.3141 7.52519 18.9484C7.57738 19.0266 7.60479 19.1187 7.60386 19.2127C7.60293 19.3068 7.5737 19.3983 7.51997 19.4755C7.14242 20.1029 6.76411 20.7315 6.38507 21.3613C6.3426 21.4416 6.27776 21.5077 6.1984 21.5519C6.11904 21.596 6.02857 21.6162 5.93796 21.61C5.55866 21.6078 5.17564 21.6078 4.79262 21.6078ZM4.79783 20.8097C5.07131 20.8097 5.34554 20.8193 5.61753 20.8037C5.66363 20.7998 5.70844 20.7864 5.74919 20.7645C5.78995 20.7426 5.82578 20.7126 5.8545 20.6764C6.13394 20.2349 6.4022 19.783 6.66302 19.3326C6.68068 19.2941 6.68983 19.2524 6.68983 19.2101C6.68983 19.1678 6.68068 19.126 6.66302 19.0876C6.40618 18.6335 6.13816 18.1855 5.85897 17.7438C5.83052 17.7066 5.79447 17.676 5.75322 17.6539C5.71196 17.6318 5.66646 17.6188 5.61977 17.6157C5.08026 17.6045 4.54075 17.6031 4.00198 17.6157C3.95195 17.6209 3.90357 17.6365 3.85993 17.6615C3.8163 17.6865 3.77838 17.7204 3.74862 17.7609C3.47588 18.1912 3.21482 18.6265 2.96544 19.0668C2.94498 19.1115 2.93439 19.1601 2.93439 19.2093C2.93439 19.2585 2.94498 19.3072 2.96544 19.3519C3.20687 19.78 3.47439 20.194 3.71509 20.622C3.74453 20.6883 3.79502 20.7431 3.85873 20.7778C3.92245 20.8125 3.99584 20.8253 4.06756 20.8141C4.31198 20.7992 4.55565 20.8104 4.79783 20.8104V20.8097Z" fill="#000232"/>
<path d="M7.86063 16.6406L7.37402 16.1604L16.1671 7.3811L16.6239 7.88662L7.86063 16.6406Z" fill="#000232"/>
<path d="M16.7107 16.1619L20.6751 20.1241L20.149 20.6118L16.1943 16.6614L16.7107 16.1619Z" fill="#000232"/>
<path d="M4.79796 20.8104C4.55577 20.8104 4.3121 20.7993 4.07066 20.8104C3.99895 20.8216 3.92556 20.8088 3.86184 20.7741C3.79812 20.7394 3.74764 20.6846 3.71819 20.6184C3.4775 20.1903 3.20998 19.7763 2.96854 19.3482C2.94809 19.3035 2.9375 19.2548 2.9375 19.2056C2.9375 19.1565 2.94809 19.1078 2.96854 19.0631C3.21694 18.6218 3.478 18.1868 3.75173 17.758C3.78149 17.7174 3.81941 17.6836 3.86304 17.6586C3.90667 17.6336 3.95506 17.618 4.00509 17.6128C4.54385 17.5994 5.08336 17.6009 5.62287 17.6128C5.66957 17.6159 5.71507 17.6289 5.75632 17.651C5.79757 17.6731 5.83363 17.7037 5.86207 17.7408C6.14226 18.1821 6.41152 18.6303 6.66985 19.0854C6.68752 19.1238 6.69666 19.1656 6.69666 19.2079C6.69666 19.2502 6.68752 19.2919 6.66985 19.3304C6.40904 19.7838 6.14077 20.2327 5.86133 20.6742C5.83262 20.7104 5.79678 20.7404 5.75603 20.7623C5.71527 20.7842 5.67047 20.7976 5.62436 20.8015C5.34566 20.8201 5.07144 20.8104 4.79796 20.8104Z" fill="white"/>
</g>
<defs>
<clipPath id="clip0_2007_6556">
<rect width="24" height="24" fill="white"/>
</clipPath>
</defs>
</svg>
