<svg width="172" height="172" viewBox="0 0 172 172" fill="none" xmlns="http://www.w3.org/2000/svg">
<g opacity="0.2" clip-path="url(#clip0_308_3930)">
<path d="M75.0217 2.19548C71.5451 3.11037 67.1536 5.30612 65.3238 6.76994C63.677 8.41675 59.4685 9.6976 55.9919 9.51463C47.0259 9.14867 43.1834 14.0891 44.8302 24.1529C45.3791 28.5444 46.66 44.8295 47.3919 60.3827C48.1238 75.9359 48.8557 88.9274 49.0387 89.1104C49.2217 89.2933 51.9663 92.587 55.2599 96.0635L60.9323 102.651L56.5408 106.859C54.1621 109.238 47.5748 112.898 42.0855 115.276C24.7025 122.412 21.7748 126.621 17.5663 151.14C15.9195 160.106 14.6387 168.523 14.6387 169.621C14.6387 174.195 18.4812 172 21.4089 165.778C23.9706 160.289 24.7025 159.74 27.6302 161.57C29.6429 162.851 31.1068 165.595 31.1068 167.791C31.1068 174.744 34.4004 172.549 38.4259 163.217C40.4387 158.459 43.9153 153.702 46.111 152.787C48.3068 151.689 51.4174 148.395 53.0642 145.468C63.128 126.438 108.873 126.438 118.937 145.468C120.583 148.395 123.694 151.689 125.89 152.787C128.085 153.702 131.562 158.459 133.575 163.217C137.6 172.732 140.894 174.561 140.894 167.608C140.894 163.217 146.749 159.191 147.847 162.668C149.128 166.51 155.166 172.915 156.447 171.634C157.179 170.902 156.447 162.485 154.8 152.604C150.958 130.464 146.2 120.217 140.894 123.51C139.796 124.242 140.528 126.621 142.724 129.549C146.017 134.123 150.958 151.506 149.494 152.97C149.128 153.519 147.298 150.408 145.468 146.2C139.979 134.489 122.596 124.974 119.668 132.293C118.937 134.306 116.924 133.94 110.337 130.464C105.579 128.268 100.456 126.255 98.9919 126.255C97.3451 126.255 100.09 123.693 105.03 120.583C114.362 114.727 116.375 114.727 129.549 120.034C130.647 120.583 131.745 119.851 131.745 118.387C131.745 116.923 128.634 114.361 124.975 112.898C121.132 111.434 116.558 108.506 114.545 106.31C111.251 102.651 111.251 102.468 116.924 96.0635C120.034 92.404 122.779 89.2933 122.962 89.1104C123.145 88.9274 123.877 75.9359 124.609 60.3827C125.341 44.8295 126.439 28.9104 127.171 25.0678C129.366 13.9061 125.707 10.6125 105.762 4.94016C87.2812 -0.366226 84.7195 -0.54921 75.0217 2.19548ZM118.937 40.2551C118.937 41.3529 106.677 42.0848 86.0004 42.0848C65.3238 42.0848 53.0642 41.3529 53.0642 40.2551C53.0642 39.1572 65.3238 38.4253 86.0004 38.4253C106.677 38.4253 118.937 39.1572 118.937 40.2551ZM86.0004 60.3827C105.762 60.3827 115.277 59.6508 116.741 58.187C118.388 56.5402 118.937 59.2848 118.937 70.9955C118.937 84.7189 118.571 86.3657 113.996 91.3061C110.702 94.9657 104.847 98.0763 97.1621 100.272C85.4514 103.749 85.0855 103.749 74.2897 100.272C67.7025 98.0763 61.1153 94.4167 58.1876 91.3061C53.4302 86.3657 53.0642 84.7189 53.0642 70.9955C53.0642 59.2848 53.6131 56.5402 55.2599 58.187C56.7238 59.6508 66.2387 60.3827 86.0004 60.3827ZM79.9621 108.14C81.4259 108.689 81.4259 110.336 79.5961 114.91L77.0344 120.766L68.8004 115.825C61.1153 111.251 60.9323 110.702 63.494 106.859C65.8727 103.017 66.6046 103.017 71.911 105.03C75.2046 106.493 78.6812 107.774 79.9621 108.14ZM111.068 110.885C110.885 111.068 107.226 113.264 103.017 116.008L95.1493 120.766L92.4046 115.093C90.7578 111.983 89.66 109.238 90.0259 109.055C90.3919 108.872 93.8685 107.408 97.894 105.761C104.847 103.2 105.396 103.2 108.324 106.859C109.971 108.872 111.251 110.702 111.068 110.885ZM67.3365 120.766C72.094 123.693 74.6557 126.255 73.0089 126.255C71.5451 126.255 66.4217 128.268 61.6642 130.464C55.077 133.94 53.0642 134.306 52.3323 132.293C49.5876 125.34 32.9365 133.757 27.2642 144.919C25.2514 148.944 23.2387 151.872 22.8727 151.506C21.5919 150.225 25.8004 134.489 28.5451 130.281C31.2897 126.255 51.4174 115.276 56.3578 115.276C57.4557 115.276 62.3961 117.655 67.3365 120.766ZM87.8302 116.923C87.8302 117.838 88.3791 119.851 88.928 121.498C89.66 123.693 88.928 124.425 86.0004 124.425C83.0727 124.425 82.3408 123.693 83.0727 121.498C83.6217 119.851 84.1706 117.838 84.1706 116.923C84.1706 116.008 85.0855 115.276 86.0004 115.276C87.0983 115.276 87.8302 116.008 87.8302 116.923ZM49.4046 137.051C49.4046 137.966 48.6727 140.893 47.5748 143.455C45.5621 148.761 38.6089 150.042 34.9493 145.651C33.3025 143.638 33.8514 142.357 37.877 139.247C43.1834 135.404 49.4046 134.123 49.4046 137.051ZM133.209 139.064C138.332 142.174 139.064 143.272 137.234 145.468C132.111 151.689 122.596 146.932 122.596 138.332C122.596 134.489 125.89 134.672 133.209 139.064ZM34.4004 151.506C37.1451 153.336 35.3153 159.74 32.2046 158.642C29.8259 157.91 28.3621 150.042 30.5578 150.042C31.2897 150.042 33.1195 150.774 34.4004 151.506ZM142.358 154.068C141.992 156.264 140.894 158.276 139.796 158.642C136.685 159.74 134.856 153.336 137.6 151.506C141.626 149.127 143.09 149.859 142.358 154.068Z" fill="#000232"/>
<path d="M75.3874 85.4506C76.6683 92.2209 93.8683 93.3187 96.43 86.7315C97.8938 82.706 96.43 82.157 90.0257 84.5357C85.2683 86.3655 83.2555 86.3655 80.5108 84.5357C75.7534 81.6081 74.6555 81.7911 75.3874 85.4506Z" fill="black"/>
<path d="M67.7029 138.332C55.6263 143.455 37.8774 165.047 41.171 170.17C43.1838 173.464 45.1965 172.183 47.7583 166.145C52.3327 154.8 62.7625 145.651 74.6561 141.809C78.8646 140.528 78.8646 140.711 78.4987 155.715C78.3157 165.596 78.8646 171.085 80.1455 171.634C83.2561 172.549 84.354 165.413 83.8051 150.043C83.2561 136.868 83.0731 136.319 78.6817 135.953C76.12 135.587 71.1795 136.685 67.7029 138.332Z" fill="#000232"/>
<path d="M87.8301 151.324C87.8301 166.511 89.6599 174.379 92.5875 171.451C93.3194 170.902 93.6854 163.583 93.5024 155.349C93.1365 140.711 93.1365 140.528 97.345 141.809C109.239 145.651 119.668 154.8 124.243 166.145C126.988 172.732 129.915 173.83 129.915 168.341C129.915 155.532 107.043 135.404 92.4045 135.404C87.8301 135.404 87.8301 135.404 87.8301 151.324Z" fill="#000232"/>
</g>
<defs>
<clipPath id="clip0_308_3930">
<rect width="172" height="172" fill="white"/>
</clipPath>
</defs>
</svg>
