<svg width="41" height="48" viewBox="0 0 41 48" fill="none" xmlns="http://www.w3.org/2000/svg">
<g opacity="0.2">
<path d="M9 44.0257C9 43.3831 9.04135 42.7778 9.11926 42.2078M32.2 44.0257C32.2 43.3831 32.1561 42.7778 32.073 42.2078M9.11926 42.2078C10.0502 35.3968 16.2011 33.6257 19.4 33.6257C23.3607 33.3781 30.9979 34.831 32.073 42.2078M9.11926 42.2078C10.1462 43.0804 15.8151 43.9789 20.2 44.0257C24.8905 44.0758 30.782 42.5471 32.073 42.2078" stroke="#000232" stroke-width="2"/>
<path d="M19.4004 1C23.5581 1 27.2002 5.04581 27.2002 10.4004C27.2 15.7548 23.558 19.7998 19.4004 19.7998C15.2428 19.7997 11.6008 15.7547 11.6006 10.4004C11.6006 5.04589 15.2427 1.00013 19.4004 1Z" stroke="#000232" stroke-width="2"/>
<path d="M5 40.8L1 40.2462C1 38.1127 1.49662 36.0001 2.46151 34.029C3.4264 32.0579 4.84066 30.267 6.62355 28.7584C8.40643 27.2498 10.523 26.0531 12.8525 25.2367C15.1819 24.4202 17.6786 24 20.2 24C22.7214 24 25.2181 24.4202 27.5475 25.2367C29.877 26.0531 31.9936 27.2498 33.7765 28.7584C35.5593 30.267 36.9736 32.0579 37.9385 34.029C38.9034 36.0001 39.4 38.1127 39.4 40.2462L35.4 40.8" stroke="#000232" stroke-width="2"/>
<circle cx="21" cy="44" r="3" fill="#000232" stroke="#000232" stroke-width="2"/>
</g>
</svg>
