<svg width="34" height="33" viewBox="0 0 34 33" fill="none" xmlns="http://www.w3.org/2000/svg">
<rect width="34" height="33" rx="8" fill="url(#paint0_linear_271_841)"/>
<path d="M15.49 7.23006L10.5 9.11006C9.34997 9.54006 8.40997 10.9001 8.40997 12.1201V19.5501C8.40997 20.7301 9.18997 22.2801 10.14 22.9901L14.44 26.2001C15.85 27.2601 18.17 27.2601 19.58 26.2001L23.88 22.9901C24.83 22.2801 25.61 20.7301 25.61 19.5501V12.1201C25.61 10.8901 24.67 9.53006 23.52 9.10006L18.53 7.23006C17.68 6.92006 16.32 6.92006 15.49 7.23006Z" stroke="white" stroke-width="1.5" stroke-linecap="round" stroke-linejoin="round"/>
<path d="M17 17.5C18.1046 17.5 19 16.6046 19 15.5C19 14.3954 18.1046 13.5 17 13.5C15.8954 13.5 15 14.3954 15 15.5C15 16.6046 15.8954 17.5 17 17.5Z" stroke="white" stroke-width="1.5" stroke-miterlimit="10" stroke-linecap="round" stroke-linejoin="round"/>
<path d="M17 17.5V20.5" stroke="white" stroke-width="1.5" stroke-miterlimit="10" stroke-linecap="round" stroke-linejoin="round"/>
<defs>
<linearGradient id="paint0_linear_271_841" x1="34" y1="5.41426e-07" x2="-11.2641" y2="41.7629" gradientUnits="userSpaceOnUse">
<stop stop-color="#4DCAFF"/>
<stop offset="0.808908" stop-color="#48FFB4"/>
</linearGradient>
</defs>
</svg>
