<svg width="34" height="33" viewBox="0 0 34 33" fill="none" xmlns="http://www.w3.org/2000/svg">
<rect width="34" height="33" rx="8" fill="url(#paint0_linear_271_847)"/>
<path d="M27 15.1V10.9C27 7.4 25.6 6 22.1 6H17.9C14.4 6 13 7.4 13 10.9V12H16.1C19.6 12 21 13.4 21 16.9V20H22.1C25.6 20 27 18.6 27 15.1Z" stroke="white" stroke-width="1.5" stroke-linecap="round" stroke-linejoin="round"/>
<path d="M21 21.1V16.9C21 13.4 19.6 12 16.1 12H11.9C8.4 12 7 13.4 7 16.9V21.1C7 24.6 8.4 26 11.9 26H16.1C19.6 26 21 24.6 21 21.1Z" stroke="white" stroke-width="1.5" stroke-linecap="round" stroke-linejoin="round"/>
<path d="M11.0801 18.9998L13.0301 20.9498L16.9201 17.0498" stroke="white" stroke-width="1.5" stroke-linecap="round" stroke-linejoin="round"/>
<defs>
<linearGradient id="paint0_linear_271_847" x1="34" y1="5.41426e-07" x2="-11.2641" y2="41.7629" gradientUnits="userSpaceOnUse">
<stop stop-color="#4DCAFF"/>
<stop offset="0.808908" stop-color="#48FFB4"/>
</linearGradient>
</defs>
</svg>
