<svg width="94" height="51" viewBox="0 0 94 51" fill="none" xmlns="http://www.w3.org/2000/svg">
<mask id="path-1-inside-1_316_6311" fill="white">
<path d="M1.06445 13C1.06445 6.37258 6.43704 1 13.0645 1H80.6385C87.2659 1 92.6385 6.37258 92.6385 13V21H1.06445V13Z"/>
</mask>
<path d="M1.06445 13C1.06445 6.37258 6.43704 1 13.0645 1H80.6385C87.2659 1 92.6385 6.37258 92.6385 13V21H1.06445V13Z" fill="white"/>
<path d="M1.06445 1H92.6385H1.06445ZM92.6385 23H1.06445V19H92.6385V23ZM1.06445 21V1V21ZM92.6385 1V21V1Z" fill="#000232" mask="url(#path-1-inside-1_316_6311)"/>
<path d="M46.6787 19.1816V1.18164" stroke="#000232" stroke-width="2"/>
<rect x="1" y="1" width="91.7037" height="49" rx="11" stroke="#000232" stroke-width="2"/>
<path d="M75.5881 10.1055C75.5881 9.35647 75.7862 8.77489 76.1824 8.36074C76.5242 8.00827 76.9748 7.83203 77.5342 7.83203C78.2566 7.83203 78.8121 8.13163 79.2005 8.73083C79.5346 9.24192 79.7016 9.91161 79.7016 10.7399C79.7016 11.6828 79.488 12.4186 79.0607 12.9473C78.6878 13.4143 78.2023 13.6478 77.6041 13.6478C77.5865 13.6478 77.569 13.6476 77.5516 13.6473C76.674 13.6318 75.2773 13.6478 74.3995 13.6478H74.3082C74.0819 13.6478 73.8984 13.4634 73.8984 13.2371C73.8984 13.0119 74.081 12.8283 74.3063 12.8283C75.1608 12.8283 75.5881 12.326 75.5881 11.3215V10.1055ZM76.3689 11.3744C76.3689 12.3437 76.7884 12.8283 77.6274 12.8283C78.0314 12.8283 78.3499 12.6433 78.5829 12.2732C78.816 11.9031 78.9325 11.3876 78.9325 10.7267C78.9325 10.0746 78.8082 9.56354 78.5596 9.19345C78.3188 8.82336 77.977 8.63831 77.5342 8.63831C76.7573 8.63831 76.3689 9.1538 76.3689 10.1848V11.3744Z" fill="#000232"/>
<path d="M73.7301 12.8283C73.9554 12.8283 74.138 13.0119 74.138 13.2371C74.138 13.4634 73.9545 13.6478 73.7282 13.6478H73.6369C72.7663 13.6478 71.3496 13.6478 70.4789 13.6478H65.7362C64.8569 13.6478 63.4575 13.6478 62.5782 13.6478H62.4869C62.2606 13.6478 62.0771 13.4634 62.0771 13.2371C62.0771 13.0119 62.2598 12.8283 62.485 12.8283C63.3396 12.8283 63.7668 12.326 63.7668 11.3215V9.6406C63.7668 9.50271 63.8396 9.37505 63.9582 9.30475C64.2184 9.15056 64.5476 9.33812 64.5476 9.6406V11.3215C64.5476 12.3237 65.5481 11.9491 65.9376 11.0258C66.1977 10.4092 66.519 9.85569 66.9015 9.36528C67.7016 8.34311 68.6416 7.83203 69.7215 7.83203C70.5916 7.83203 71.283 8.17128 71.7957 8.84979C72.2308 9.43137 72.4483 10.1495 72.4483 11.0043V11.3479C72.4483 12.3348 72.8756 12.8283 73.7301 12.8283ZM70.4207 12.8283C71.2519 12.8283 71.6675 12.3084 71.6675 11.2686V11.0043C71.6675 10.2641 71.4617 9.66929 71.0499 9.21988C70.7003 8.83217 70.2614 8.63831 69.7331 8.63831C68.8242 8.63831 68.0163 9.12296 67.3093 10.0922C66.4127 11.3304 67.5793 12.8283 69.108 12.8283H70.4207Z" fill="#000232"/>
<path d="M61.8949 12.8338C62.1201 12.8338 62.3027 13.0173 62.3027 13.2426C62.3027 13.4688 62.1193 13.6532 61.893 13.6532H61.8017C61.2724 13.6532 60.5561 14.0235 60.3911 14.5264C60.147 15.2703 59.6966 15.7723 59.0399 16.0324C58.7913 16.1294 58.5272 16.1778 58.2475 16.1778C57.8557 16.1778 57.4756 16.0845 57.1073 15.898C57.0034 15.8453 56.9424 15.7362 56.9424 15.6197C56.9424 15.3618 57.2306 15.2005 57.4747 15.2836C57.6989 15.3598 57.9254 15.398 58.1543 15.398C58.4806 15.398 58.768 15.3143 59.0166 15.1468C59.5604 14.7767 59.8323 14.085 59.8323 13.0717V8.67616C59.8323 8.54123 59.903 8.41618 60.0187 8.34663L60.5969 7.99882C60.5989 7.99762 60.6014 7.99906 60.6014 8.00139C60.6014 8.00415 60.6048 8.00544 60.6067 8.00337L60.6072 8.0027C60.6093 8.0004 60.6131 8.00184 60.6131 8.0049V11.3269C60.6131 12.3315 61.0403 12.8338 61.8949 12.8338Z" fill="#000232"/>
<path d="M37.5702 8.27593C37.1232 8.27593 36.7604 8.63756 36.759 9.08455L36.7499 12.0297C36.7499 12.673 36.9791 12.9946 37.4374 12.9946C37.6001 12.9946 37.7612 12.9645 37.9207 12.9042C38.0776 12.8449 38.2634 12.8897 38.3466 13.0353C38.4201 13.1638 38.3895 13.3289 38.2644 13.4079C37.9473 13.6082 37.6173 13.7084 37.2743 13.7084C36.8626 13.7084 36.544 13.563 36.3187 13.2722C36.0935 12.9814 35.9808 12.5761 35.9808 12.0562V8.67796C35.9808 8.45593 35.8008 8.27593 35.5788 8.27593H35.5402C35.3395 8.27593 35.1768 8.1132 35.1768 7.91245C35.1768 7.7117 35.3395 7.54896 35.5402 7.54896H35.5846C35.8099 7.54896 35.9925 7.36636 35.9925 7.14111V6.4611C35.9925 6.32443 36.065 6.19803 36.183 6.12908C36.4394 5.97928 36.7616 6.16418 36.7616 6.4611V6.90797C36.7616 7.26198 37.0485 7.54896 37.4026 7.54896H38.0178C38.2186 7.54896 38.3813 7.7117 38.3813 7.91245C38.3813 8.1132 38.2186 8.27593 38.0178 8.27593H37.5702Z" fill="#000232"/>
<path d="M29.3145 7.88093C29.3145 7.69666 29.4638 7.54728 29.6481 7.54728H29.7512C29.8555 7.54728 29.9443 7.62291 29.961 7.72582C29.9903 7.90714 30.2283 7.97376 30.3705 7.85751C30.7529 7.54495 31.2166 7.38867 31.7616 7.38867C32.5229 7.38867 33.125 7.71471 33.5678 8.36678C33.9407 8.92192 34.1271 9.60924 34.1271 10.4287C34.1271 11.5126 33.8552 12.3585 33.3114 12.9665C32.8686 13.46 32.3326 13.7067 31.7033 13.7067C31.0925 13.7067 30.0952 14.2051 30.0952 14.816V15.5633C30.0952 15.7789 29.9204 15.9537 29.7048 15.9537C29.4892 15.9537 29.3145 15.7789 29.3145 15.5633V7.88093ZM30.7012 8.41965C30.1711 8.79335 30.0952 9.5058 30.0952 10.1543V11.1201C30.0952 11.7125 30.1531 12.3688 30.6429 12.7022C30.9226 12.8872 31.21 12.9797 31.5052 12.9797C32.0412 12.9797 32.4724 12.7594 32.7987 12.3189C33.125 11.8783 33.2881 11.2923 33.2881 10.5609C33.2881 9.74141 33.1094 9.11137 32.7521 8.67078C32.4569 8.30069 32.0684 8.11564 31.5868 8.11564C31.2838 8.11564 30.9886 8.21698 30.7012 8.41965Z" fill="#000232"/>
<path d="M27.6817 7.54688C27.9522 7.54688 28.1432 7.81195 28.0576 8.06854L25.9244 14.4597C25.5748 15.5347 25.0931 16.0723 24.4794 16.0723C24.1545 16.0723 23.8296 15.9613 23.5047 15.7393C23.3905 15.6613 23.3615 15.5085 23.4271 15.3867C23.5052 15.2418 23.6874 15.1949 23.839 15.2591C23.9955 15.3254 24.1391 15.3585 24.2697 15.3585C24.6581 15.3585 24.996 14.9488 25.2835 14.1293L25.4485 13.6717C25.4703 13.6113 25.4256 13.5477 25.3614 13.5477C25.3218 13.5477 25.2865 13.5224 25.2738 13.4849L23.4312 8.0629C23.3452 7.80969 23.5334 7.54688 23.8009 7.54688C23.9694 7.54688 24.1189 7.65499 24.1716 7.81502L24.4086 8.53365C24.8346 9.82546 26.6646 9.81788 27.0799 8.52258L27.3044 7.82214C27.357 7.65813 27.5095 7.54688 27.6817 7.54688Z" fill="#000232"/>
<path d="M21.1295 7.82241C21.2644 7.9254 21.5021 7.86808 21.534 7.70142C21.5512 7.61196 21.6294 7.54728 21.7205 7.54728H21.8378C22.021 7.54728 22.1695 7.69581 22.1695 7.87903V13.059C22.1695 15.0681 21.3965 16.0727 19.8506 16.0727C19.1884 16.0727 18.5966 15.8445 18.0749 15.3881C17.9782 15.3034 17.9587 15.1623 18.0205 15.0495C18.1062 14.8932 18.3113 14.8526 18.4626 14.9467C18.8622 15.1951 19.2821 15.3193 19.7224 15.3193C20.2973 15.3193 20.7207 15.1386 20.9926 14.7773C21.2645 14.4161 21.4004 13.8433 21.4004 13.059C21.4004 13.0211 21.3511 13.0044 21.3269 13.0336C20.9537 13.4823 20.4577 13.7067 19.8389 13.7067C19.0698 13.7067 18.46 13.3807 18.0094 12.7286C17.621 12.1646 17.4268 11.4641 17.4268 10.627C17.4268 9.56958 17.6987 8.74128 18.2425 8.14208C18.693 7.63981 19.2485 7.38867 19.9088 7.38867C20.204 7.38867 20.4954 7.46357 20.7828 7.61337C20.9126 7.67538 21.0282 7.74506 21.1295 7.82241ZM20.8178 12.7022C21.3317 12.325 21.4004 11.6211 21.4004 10.9837V9.9734C21.4004 9.38284 21.3364 8.73206 20.8527 8.39321C20.5886 8.19935 20.3089 8.10242 20.0137 8.10242C19.501 8.10242 19.0815 8.33153 18.7552 8.78974C18.4289 9.23914 18.2658 9.82072 18.2658 10.5345C18.2658 11.3452 18.4444 11.9752 18.8018 12.4246C19.1126 12.7947 19.501 12.9797 19.9671 12.9797C20.2778 12.9797 20.5614 12.8872 20.8178 12.7022Z" fill="#000232"/>
<path d="M11.6787 7.34909C11.6787 6.15204 12.6491 5.18164 13.8462 5.18164H15.5973C15.8272 5.18164 16.0136 5.36805 16.0136 5.598C16.0136 5.82794 15.8272 6.01435 15.5973 6.01435H13.9223C13.1594 6.01435 12.541 6.63276 12.541 7.3956C12.541 8.15844 13.1594 8.77684 13.9223 8.77684H15.0496C15.2795 8.77684 15.4659 8.96325 15.4659 9.1932C15.4659 9.42315 15.2795 9.60955 15.0496 9.60955H14.0035C13.1958 9.60955 12.541 10.2643 12.541 11.072V11.1626C12.541 12.0204 13.2364 12.7157 14.0941 12.7157H15.7487C15.9787 12.7157 16.1651 12.9021 16.1651 13.1321C16.1651 13.362 15.9787 13.5484 15.7487 13.5484H13.9219C12.683 13.5484 11.6787 12.5441 11.6787 11.3052V7.34909Z" fill="#000232"/>
</svg>
