<svg width="361" height="174" viewBox="0 0 361 174" fill="none" xmlns="http://www.w3.org/2000/svg">
<g opacity="0.5">
<mask id="path-1-inside-1_295_3067" fill="white">
<path d="M0 8.18555C0 3.76727 3.58172 0.185547 8 0.185547H352.441C356.86 0.185547 360.441 3.76727 360.441 8.18555V69.8709H0V8.18555Z"/>
</mask>
<path d="M0 8.18555C0 3.76727 3.58172 0.185547 8 0.185547H352.441C356.86 0.185547 360.441 3.76727 360.441 8.18555V69.8709H0V8.18555Z" fill="#000232"/>
<path d="M0 0.185547H360.441H0ZM360.441 70.8709H0V68.8709H360.441V70.8709ZM0 69.8709V0.185547V69.8709ZM360.441 0.185547V69.8709V0.185547Z" fill="#000232" mask="url(#path-1-inside-1_295_3067)"/>
<rect x="0.5" y="0.5" width="359.441" height="172.199" rx="7.5" stroke="#000232"/>
<path d="M180.219 170.279V65.9146" stroke="#000232"/>
<path d="M293.971 34.5281C293.971 32.406 294.608 30.7582 295.881 29.5849C296.979 28.5862 298.427 28.0869 300.225 28.0869C302.547 28.0869 304.332 28.9357 305.58 30.6334C306.654 32.0814 307.19 33.9788 307.19 36.3256C307.19 38.9969 306.504 41.0815 305.131 42.5795C303.932 43.9026 302.372 44.5642 300.45 44.5642C298.103 44.5642 296.355 43.8153 295.207 42.3173C294.083 43.8153 292.398 44.5642 290.151 44.5642H288.541V42.2424H289.852C292.598 42.2424 293.971 40.8194 293.971 37.9733V34.5281ZM296.48 38.1231C296.48 40.8693 297.828 42.2424 300.525 42.2424C301.823 42.2424 302.846 41.7182 303.595 40.6696C304.344 39.621 304.719 38.1606 304.719 36.2881C304.719 34.4407 304.319 32.9927 303.52 31.9441C302.746 30.8956 301.648 30.3713 300.225 30.3713C297.728 30.3713 296.48 31.8318 296.48 34.7527V38.1231Z" fill="white"/>
<path d="M287.995 42.2424H289.306V44.5642H287.696C285.449 44.5642 283.764 43.8028 282.64 42.2799C281.517 43.8028 279.819 44.5642 277.547 44.5642H262.306C260.059 44.5642 258.374 43.8028 257.25 42.2799C256.077 43.8028 254.379 44.5642 252.157 44.5642H250.547V42.2424H251.858C254.604 42.2424 255.977 40.8194 255.977 37.9733V32.5807L258.486 31.27V37.9733C258.486 40.3201 259.397 41.6932 261.22 42.0926C262.143 38.2479 263.754 35.0274 266.051 32.4309C268.622 29.5349 271.643 28.0869 275.113 28.0869C277.909 28.0869 280.131 29.0481 281.779 30.9704C283.177 32.6182 283.876 34.6529 283.876 37.0745V38.0482C283.876 40.8444 285.249 42.2424 287.995 42.2424ZM277.36 42.2424C280.031 42.2424 281.367 40.7695 281.367 37.8235V37.0745C281.367 34.9774 280.705 33.2923 279.382 32.019C278.259 30.9205 276.848 30.3713 275.151 30.3713C272.23 30.3713 269.633 31.7444 267.361 34.4906C265.639 36.5877 264.34 39.1717 263.467 42.2424H277.36Z" fill="white"/>
<path d="M249.965 42.2423H251.276V44.5641H249.666C248.118 44.5641 246.832 44.1896 245.809 43.4406C245.609 47.5849 243.936 50.2063 240.791 51.3048C239.992 51.5794 239.143 51.7167 238.244 51.7167C236.796 51.7167 235.398 51.3672 234.05 50.6682V48.4587C235.323 49.1578 236.621 49.5073 237.944 49.5073C238.993 49.5073 239.917 49.2701 240.716 48.7958C242.463 47.7472 243.337 45.7874 243.337 42.9163V29.8468L245.809 28.5361V28.5736L245.846 28.5361V37.9731C245.846 40.8192 247.219 42.2423 249.965 42.2423Z" fill="white"/>
<path d="M127.418 32.1692L127.381 42.8046C127.381 44.6271 128.117 45.5383 129.59 45.5383C130.414 45.5383 131.225 45.3261 132.024 44.9017L132.923 46.2873C131.7 47.1361 130.414 47.5605 129.066 47.5605C127.743 47.5605 126.719 47.1486 125.995 46.3247C125.271 45.5009 124.909 44.3524 124.909 42.8795V32.1692H122.325V30.1096H124.947V26.4022L127.418 25.1289V30.1096H132.624V32.1692H127.418Z" fill="white"/>
<path d="M103.488 30.1086H105.473L105.81 31.9435C107.208 30.4206 109.056 29.6592 111.352 29.6592C113.799 29.6592 115.734 30.5829 117.157 32.4304C118.355 34.0032 118.954 35.9505 118.954 38.2723C118.954 41.3431 118.081 43.7398 116.333 45.4624C114.91 46.8605 113.187 47.5595 111.165 47.5595C108.968 47.5595 107.246 46.8855 105.997 45.5373V53.9258H103.488V30.1086ZM105.997 34.7147V42.7661C106.297 43.5401 106.884 44.1892 107.757 44.7135C108.656 45.2377 109.58 45.4999 110.529 45.4999C112.251 45.4999 113.637 44.8757 114.685 43.6275C115.734 42.3792 116.258 40.719 116.258 38.6468C116.258 36.325 115.684 34.54 114.536 33.2917C113.587 32.2431 112.339 31.7188 110.791 31.7188C109.817 31.7188 108.868 32.006 107.945 32.5802C107.021 33.1544 106.372 33.8659 105.997 34.7147Z" fill="white"/>
<path d="M100.004 30.1084L92.5894 49.6939C91.4659 52.7398 89.918 54.2627 87.9458 54.2627C86.6975 54.2627 85.4492 53.8133 84.2009 52.9145L85.0248 51.5664C85.8736 52.0157 86.6226 52.2404 87.2717 52.2404C88.52 52.2404 89.606 51.0795 90.5297 48.7577L91.2038 47.11H90.5672L84.0137 30.1084H86.6725L92.0651 44.5261L97.3079 30.1084H100.004Z" fill="white"/>
<path d="M78.2049 31.8312L78.5794 30.1086H80.5267V45.7246C80.5267 51.4167 78.0426 54.2628 73.0744 54.2628C70.7277 54.2628 68.6555 53.4764 66.858 51.9036L67.7193 50.518C69.2672 51.5915 70.9149 52.1283 72.6625 52.1283C74.51 52.1283 75.8706 51.6165 76.7444 50.5929C77.6182 49.5693 78.0551 47.9465 78.0551 45.7246V45.3875C76.8318 46.8355 75.1591 47.5595 73.037 47.5595C70.5654 47.5595 68.6056 46.6358 67.1576 44.7884C65.9093 43.1906 65.2852 41.2058 65.2852 38.8341C65.2852 35.8382 66.159 33.4914 67.9066 31.7937C69.3546 30.3707 71.1396 29.6592 73.2617 29.6592C74.2104 29.6592 75.1466 29.8714 76.0703 30.2958C77.019 30.6953 77.7305 31.2071 78.2049 31.8312ZM78.0551 42.5789V34.4526C77.7305 33.6786 77.1438 33.0295 76.295 32.5053C75.4462 31.956 74.5474 31.6814 73.5987 31.6814C71.951 31.6814 70.6028 32.3305 69.5543 33.6287C68.5057 34.902 67.9814 36.5497 67.9814 38.5719C67.9814 40.8688 68.5557 42.6538 69.7041 43.927C70.7027 44.9756 71.951 45.4999 73.4489 45.4999C74.4475 45.4999 75.3588 45.2377 76.1827 44.7135C77.0315 44.1642 77.6556 43.4527 78.0551 42.5789Z" fill="white"/>
<path d="M46.8105 23.4053H60.7414V25.7645H49.5817V33.5913H58.9813V35.9505H49.5817V44.7509H61.2282V47.1101H46.8105V23.4053Z" fill="white"/>
</g>
</svg>
