<svg width="55" height="44" viewBox="0 0 55 44" fill="none" xmlns="http://www.w3.org/2000/svg">
<g opacity="0.2">
<path d="M41.6594 4.44702H30.628C26.7151 4.44702 25.8508 6.39559 25.348 8.78416L23.5723 17.2856H48.7151L46.9394 8.78416C46.4366 6.39559 45.5723 4.44702 41.6594 4.44702Z" stroke="#000232" stroke-width="1.5" stroke-linecap="round" stroke-linejoin="round"/>
<path d="M51.8416 31.1456C52.0144 32.9842 50.5373 34.5714 48.6516 34.5714H45.6973C44.0001 34.5714 43.7644 33.8485 43.4659 32.9528L43.1516 32.0099C42.7116 30.7214 42.4287 29.8571 40.1659 29.8571H32.1201C29.8573 29.8571 29.5273 30.8314 29.1344 32.0099L28.8201 32.9528C28.5216 33.8485 28.2859 34.5714 26.5887 34.5714H23.6344C21.7487 34.5714 20.2716 32.9842 20.4444 31.1456L21.3244 21.5756C21.5444 19.2185 22.0001 17.2856 26.1173 17.2856H46.1687C50.2859 17.2856 50.7416 19.2185 50.9616 21.5756L51.8416 31.1456Z" stroke="#000232" stroke-width="1.5" stroke-linecap="round" stroke-linejoin="round"/>
<path d="M23.5714 12.5715H22" stroke="#000232" stroke-width="1.5" stroke-linecap="round" stroke-linejoin="round"/>
<path d="M50.2863 12.5715H48.7148" stroke="#000232" stroke-width="1.5" stroke-linecap="round" stroke-linejoin="round"/>
<path d="M36.1436 4.71436V7.85721" stroke="#000232" stroke-width="1.5" stroke-linecap="round" stroke-linejoin="round"/>
<path d="M33.7861 7.85718H38.5004" stroke="#000232" stroke-width="1.5" stroke-linecap="round" stroke-linejoin="round"/>
<path d="M26.7148 23.5715H31.4291" stroke="#000232" stroke-width="1.5" stroke-linecap="round" stroke-linejoin="round"/>
<path d="M40.8574 23.5715H45.5717" stroke="#000232" stroke-width="1.5" stroke-linecap="round" stroke-linejoin="round"/>
<path d="M34.179 18.8573C34.179 19.5016 33.6447 20.0359 33.0004 20.0359H4.7147C4.07042 20.0359 3.53613 19.5016 3.53613 18.8573C3.53613 18.213 4.07042 17.6787 4.7147 17.6787H6.31756L6.9147 14.8344C7.48042 12.0844 8.65899 9.55444 13.3418 9.55444H24.3733C29.0561 9.55444 30.2347 12.0844 30.8004 14.8344L31.3976 17.6787H33.0004C33.6447 17.6787 34.179 18.213 34.179 18.8573Z" fill="white"/>
<path d="M34.8544 27.7516C34.6186 25.1588 33.9272 22.3931 28.8829 22.3931H8.83149C3.78721 22.3931 3.11149 25.1588 2.86007 27.7516L1.98007 37.3216C1.87007 38.5159 2.26292 39.7102 3.08007 40.6059C3.91292 41.5174 5.09149 42.0359 6.34864 42.0359H9.30292C11.8486 42.0359 12.3358 40.5745 12.6501 39.6159L12.9644 38.6731C13.3258 37.5888 13.4201 37.3216 14.8343 37.3216H22.8801C24.2944 37.3216 24.3415 37.4788 24.7501 38.6731L25.0644 39.6159C25.3786 40.5745 25.8658 42.0359 28.4115 42.0359H31.3658C32.6072 42.0359 33.8015 41.5174 34.6343 40.6059C35.4515 39.7102 35.8443 38.5159 35.7343 37.3216L34.8544 27.7516ZM14.1429 31.0359H9.42864C8.78435 31.0359 8.25006 30.5016 8.25006 29.8574C8.25006 29.2131 8.78435 28.6788 9.42864 28.6788H14.1429C14.7872 28.6788 15.3215 29.2131 15.3215 29.8574C15.3215 30.5016 14.7872 31.0359 14.1429 31.0359ZM28.2858 31.0359H23.5715C22.9272 31.0359 22.3929 30.5016 22.3929 29.8574C22.3929 29.2131 22.9272 28.6788 23.5715 28.6788H28.2858C28.9301 28.6788 29.4643 29.2131 29.4643 29.8574C29.4643 30.5016 28.9301 31.0359 28.2858 31.0359Z" fill="white"/>
<path d="M24.3733 10.7329H13.3418C9.42899 10.7329 8.5647 12.6815 8.06185 15.0701L6.28613 23.5715H31.429L29.6533 15.0701C29.1504 12.6815 28.2861 10.7329 24.3733 10.7329Z" stroke="#000232" stroke-width="1.5" stroke-linecap="round" stroke-linejoin="round"/>
<path d="M34.5554 37.4315C34.7283 39.2701 33.2512 40.8572 31.3654 40.8572H28.4112C26.714 40.8572 26.4783 40.1344 26.1797 39.2387L25.8654 38.2958C25.4254 37.0072 25.1426 36.143 22.8797 36.143H14.834C12.5712 36.143 12.2412 37.1172 11.8483 38.2958L11.534 39.2387C11.2354 40.1344 10.9997 40.8572 9.30258 40.8572H6.3483C4.46258 40.8572 2.98544 39.2701 3.1583 37.4315L4.0383 27.8615C4.2583 25.5044 4.71401 23.5715 8.83115 23.5715H28.8826C32.9997 23.5715 33.4554 25.5044 33.6754 27.8615L34.5554 37.4315Z" stroke="#000232" stroke-width="1.5" stroke-linecap="round" stroke-linejoin="round"/>
<path d="M6.2853 18.8574H4.71387" stroke="#000232" stroke-width="1.5" stroke-linecap="round" stroke-linejoin="round"/>
<path d="M33.0001 18.8574H31.4287" stroke="#000232" stroke-width="1.5" stroke-linecap="round" stroke-linejoin="round"/>
<path d="M18.8574 11.0002V14.1431" stroke="#000232" stroke-width="1.5" stroke-linecap="round" stroke-linejoin="round"/>
<path d="M16.5 14.1431H21.2143" stroke="#000232" stroke-width="1.5" stroke-linecap="round" stroke-linejoin="round"/>
<path d="M9.42871 29.8574H14.143" stroke="#000232" stroke-width="1.5" stroke-linecap="round" stroke-linejoin="round"/>
<path d="M23.5713 29.8574H28.2856" stroke="#000232" stroke-width="1.5" stroke-linecap="round" stroke-linejoin="round"/>
</g>
</svg>
