<svg width="212" height="212" viewBox="0 0 212 212" fill="none" xmlns="http://www.w3.org/2000/svg">
<g opacity="0.3" clip-path="url(#clip0_2007_7566)">
<path d="M172.387 212H0V0H212V212H178.168C178.532 211.831 178.91 211.693 179.297 211.588C194.019 209.183 203.491 196.031 201.272 181.064C199.241 167.323 185.834 157.508 171.583 159.471C165.647 160.292 160.169 163.113 156.053 167.468C151.938 171.824 149.432 177.453 148.949 183.425C148.466 189.398 150.035 195.357 153.398 200.317C156.76 205.277 161.714 208.941 167.441 210.704C169.07 211.205 170.778 211.568 172.387 212ZM29.7978 106C29.7978 135.556 29.7978 165.108 29.7978 194.657C29.7978 200.193 33.1741 203.628 38.6311 203.638H143.846C145.034 203.638 146.398 203.746 146.398 202.038C146.398 200.33 145.034 200.438 143.846 200.438H39.4654C34.6954 200.438 32.9974 198.75 32.9974 194V18.3144C32.9974 13.5052 34.6659 11.8269 39.4163 11.8269H172.122C177.03 11.8269 178.639 13.4561 178.639 18.4224C178.639 62.4451 178.639 106.465 178.639 150.481C178.639 151.806 178.001 153.837 180.18 153.886C182.359 153.936 181.8 151.924 181.8 150.569C181.8 106.481 181.8 62.3928 181.8 18.3046C181.8 11.8072 178.649 8.62722 172.211 8.62722H39.5439C32.9189 8.62722 29.7978 11.7385 29.7978 18.3537V106ZM110.839 159.088C110.839 162.121 110.839 164.977 110.839 167.922C110.839 169.129 110.78 170.493 112.419 170.523C114.058 170.552 114.048 169.198 114.048 167.971C114.048 161.918 114.048 155.859 114.048 149.794V147.468C119.279 147.468 124.226 147.468 129.173 147.468C129.667 147.437 130.161 147.532 130.608 147.743C131.056 147.954 131.443 148.274 131.734 148.675C132.695 149.707 133.967 150.396 135.356 150.638C137.678 150.952 140.032 150.952 142.354 150.638C143.75 150.391 145.029 149.703 146.005 148.675C146.323 148.254 146.738 147.917 147.215 147.693C147.692 147.469 148.217 147.364 148.744 147.389C151.904 147.468 155.084 147.497 158.244 147.34C158.853 147.34 159.422 146.359 160.021 145.838C159.52 145.234 158.931 144.708 158.274 144.278C157.604 144.124 156.91 144.104 156.232 144.219H147.222V117.699H157.479C158.725 117.699 160.246 117.846 160.197 116.06C160.148 114.274 158.607 114.509 157.381 114.509C154.436 114.509 151.492 114.588 148.547 114.451C147.668 114.373 146.849 113.97 146.251 113.322C143.905 110.466 134.394 110.132 131.931 112.919C131.793 113.067 131.705 113.302 131.548 113.391C130.841 113.783 130.115 114.451 129.399 114.46C113.695 114.519 97.9911 114.519 82.2874 114.46C81.5611 114.46 80.825 113.803 80.1183 113.43C78.705 112.694 77.38 111.565 75.898 111.3C73.7865 110.942 71.6298 110.942 69.5183 111.3C68.0952 111.545 66.8094 112.635 65.455 113.341C64.6796 113.734 63.9239 114.431 63.1387 114.46C59.8998 114.588 56.6609 114.46 53.4319 114.588C53.0079 114.65 52.6063 114.818 52.2634 115.075C51.9206 115.332 51.6475 115.671 51.4689 116.06C51.2333 117.336 52.313 117.748 53.4907 117.709H64.4244V144.278H53.9815C52.7841 144.278 51.41 144.209 51.3707 145.838C51.3315 147.468 52.6663 147.497 53.903 147.487C57.0633 147.487 60.2335 147.487 63.4037 147.487C63.7206 147.485 64.0347 147.547 64.3267 147.67C64.6186 147.793 64.8824 147.975 65.1017 148.204C65.6846 149.105 66.509 149.823 67.4809 150.278C68.4527 150.733 69.5329 150.905 70.598 150.775C72.2567 150.706 73.9056 150.775 75.5643 150.775C76.4628 150.813 77.3562 150.621 78.1599 150.217C78.9636 149.814 79.6511 149.212 80.1576 148.469C80.4652 147.975 80.9555 147.622 81.5219 147.487C86.8022 147.419 92.0924 147.487 97.5887 147.487V149.911C97.5887 155.977 97.5887 162.039 97.5887 168.098C97.5887 169.266 97.6378 170.503 99.1198 170.542C100.759 170.542 100.808 169.286 100.798 168.039C100.798 165.095 100.798 162.151 100.798 159.147L110.839 159.088ZM102.28 64.7778H158.47C159.08 64.88 159.705 64.8567 160.305 64.7091C160.919 64.2875 161.471 63.7821 161.944 63.2074C161.462 62.6341 160.919 62.1142 160.325 61.6567C159.981 61.4309 159.344 61.5978 158.912 61.5978H46.1296C45.58 61.5978 44.9224 61.4309 44.5102 61.6763C43.9409 62.01 43.195 62.6578 43.1852 63.178C43.1754 63.6981 43.9017 64.395 44.4709 64.6993C45.0653 64.8628 45.688 64.8963 46.2965 64.7974L102.28 64.7778ZM99.2867 84.6135C116.849 84.6135 134.411 84.6135 151.973 84.6135C153.307 84.6135 155.31 85.1828 155.251 82.9548C155.202 80.9232 153.288 81.4532 152.012 81.4532C116.816 81.4532 81.6233 81.4532 46.4339 81.4532C45.953 81.4532 45.3641 81.2863 45.0107 81.5022C44.3094 81.9896 43.6525 82.5381 43.0478 83.1413C43.6267 83.6933 44.2615 84.1834 44.942 84.6037C45.4791 84.7176 46.0342 84.7176 46.5713 84.6037L99.2867 84.6135ZM95.6748 54.855H145.465C146.076 54.9566 146.702 54.9265 147.301 54.7667C147.88 54.4624 148.606 53.7852 148.616 53.265C148.626 52.7448 147.88 52.0774 147.32 51.7437C146.908 51.4885 146.241 51.6554 145.691 51.6554H46.1296C45.58 51.6554 44.9224 51.4885 44.5102 51.7339C43.9409 52.0774 43.2048 52.7154 43.195 53.2454C43.1852 53.7754 43.9213 54.4624 44.4906 54.7667C45.089 54.9268 45.7148 54.9569 46.3259 54.855H95.6748ZM91.1502 71.5402H46.3259C45.7155 71.4359 45.0899 71.4627 44.4906 71.6187C43.9213 71.923 43.1852 72.6002 43.1754 73.1204C43.1656 73.6406 43.9017 74.308 44.4611 74.6515C45.0206 74.995 45.5407 74.73 46.0904 74.73H135.749C136.298 74.73 136.956 74.8969 137.368 74.6515C137.937 74.3178 138.683 73.67 138.693 73.1498C138.703 72.6296 137.977 71.9328 137.398 71.6285C136.803 71.4635 136.18 71.4333 135.572 71.5402H91.1502ZM54.5017 25.1357C57.5933 25.1357 60.6948 25.1357 63.7865 25.1357C64.925 25.1357 65.9556 24.91 65.9948 23.5752C66.0341 22.2404 65.0133 21.9263 63.8748 21.9263C57.6915 21.9263 51.5049 21.9263 45.315 21.9263C44.1765 21.9263 43.1263 22.152 43.1165 23.4869C43.1165 24.9689 44.2256 25.1456 45.4328 25.1357C48.4557 25.0965 51.4787 25.1161 54.5017 25.1161V25.1357ZM77.6941 25.1357C78.7857 25.2411 79.8859 25.218 80.9722 25.067C81.5906 24.9198 82.4444 24.0856 82.4444 23.5556C82.3532 23.1997 82.1715 22.8736 81.917 22.6087C81.6625 22.3439 81.3438 22.1494 80.9919 22.0441C78.8067 21.8674 76.6109 21.8674 74.4257 22.0441C74.0732 22.147 73.7533 22.3394 73.497 22.6026C73.2408 22.8657 73.0569 23.1906 72.9633 23.5457C72.9633 24.0757 73.8172 24.91 74.4257 25.067C75.5106 25.2 76.607 25.2099 77.6941 25.0965V25.1357ZM163.76 21.9852C162.672 21.8849 161.575 21.9079 160.492 22.0539C159.864 22.2011 158.99 22.9667 158.951 23.5065C159.026 23.8646 159.193 24.197 159.435 24.4707C159.678 24.7444 159.988 24.95 160.335 25.067C162.586 25.2388 164.846 25.2388 167.097 25.067C167.617 25.067 168.53 24.0856 168.461 23.6635C168.364 23.3048 168.183 22.9741 167.934 22.698C167.685 22.4218 167.375 22.2079 167.029 22.0735C165.948 21.8979 164.851 21.855 163.76 21.9459V21.9852Z" fill="white"/>
<path d="M172.387 212C170.738 211.568 169.07 211.205 167.48 210.705C161.753 208.941 156.799 205.277 153.437 200.317C150.074 195.357 148.505 189.398 148.988 183.426C149.471 177.453 151.977 171.824 156.092 167.468C160.208 163.113 165.686 160.292 171.622 159.471C185.873 157.508 199.28 167.323 201.311 181.064C203.53 196.032 194.049 209.183 179.336 211.588C178.949 211.693 178.571 211.831 178.207 212H172.387ZM175.243 162.347C170.648 162.355 166.159 163.727 162.344 166.29C158.53 168.852 155.563 172.49 153.818 176.741C152.074 180.992 151.631 185.666 152.546 190.169C153.461 194.672 155.692 198.802 158.957 202.036C162.222 205.269 166.374 207.46 170.886 208.331C175.398 209.202 180.067 208.713 184.301 206.928C188.535 205.142 192.143 202.139 194.668 198.3C197.193 194.46 198.522 189.958 198.485 185.363C198.443 179.232 195.974 173.368 191.618 169.054C187.262 164.741 181.374 162.329 175.243 162.347Z" fill="#000232"/>
<path d="M29.7982 106V18.4125C29.7982 11.7973 32.9193 8.68604 39.5443 8.68604H172.25C178.689 8.68604 181.839 11.866 181.839 18.3634C181.839 62.4516 181.839 106.54 181.839 150.628C181.839 151.953 182.428 153.994 180.22 153.945C178.012 153.896 178.679 151.865 178.679 150.54C178.679 106.523 178.679 62.5039 178.679 18.4812C178.679 13.5149 177.07 11.8857 172.162 11.8857H39.4167C34.6663 11.8857 32.9978 13.564 32.9978 18.3733V194.058C32.9978 198.809 34.6958 200.497 39.4658 200.497H143.856C145.044 200.497 146.408 200.389 146.408 202.097C146.408 203.805 145.044 203.697 143.856 203.697H38.6413C33.1843 203.697 29.808 200.252 29.808 194.716C29.7949 165.154 29.7916 135.582 29.7982 106Z" fill="#000232"/>
<path d="M110.839 159.127H100.808C100.808 162.15 100.808 165.085 100.808 168.02C100.808 169.266 100.808 170.571 99.1298 170.522C97.6478 170.522 97.5987 169.246 97.5987 168.079C97.5987 162.013 97.5987 155.951 97.5987 149.892V147.467C92.1024 147.467 86.8024 147.467 81.5318 147.467C80.9655 147.602 80.4752 147.955 80.1676 148.449C79.6611 149.192 78.9736 149.794 78.1699 150.197C77.3661 150.601 76.4728 150.793 75.5742 150.755C73.9155 150.755 72.2667 150.696 70.608 150.755C69.5429 150.885 68.4627 150.713 67.4909 150.258C66.519 149.804 65.6945 149.085 65.1117 148.184C64.8924 147.955 64.6286 147.774 64.3367 147.65C64.0447 147.527 63.7306 147.465 63.4137 147.467C60.2435 147.399 57.0733 147.467 53.913 147.467C52.6763 147.467 51.3415 147.467 51.3807 145.819C51.42 144.17 52.8039 144.278 53.9817 144.278H64.3854V117.699H53.4713C52.2935 117.699 51.2139 117.326 51.4494 116.05C51.628 115.661 51.9012 115.322 52.244 115.065C52.5868 114.808 52.9884 114.64 53.4124 114.578C56.6415 114.421 59.8804 114.578 63.1192 114.45C63.9044 114.45 64.6602 113.724 65.4355 113.331C66.79 112.625 68.0757 111.535 69.4989 111.29C71.6103 110.932 73.767 110.932 75.8785 111.29C77.3605 111.555 78.6855 112.684 80.0989 113.42C80.8055 113.793 81.5417 114.45 82.268 114.45C97.9717 114.509 113.675 114.509 129.379 114.45C130.096 114.45 130.822 113.773 131.528 113.381C131.686 113.292 131.774 113.057 131.911 112.909C134.375 110.122 143.885 110.456 146.231 113.312C146.83 113.96 147.649 114.363 148.528 114.441C151.472 114.578 154.417 114.441 157.361 114.499C158.588 114.499 160.139 114.274 160.178 116.05C160.217 117.827 158.706 117.699 157.459 117.689H147.222V144.278H156.183C156.861 144.163 157.555 144.183 158.225 144.336C158.882 144.766 159.471 145.292 159.972 145.897C159.373 146.427 158.804 147.369 158.195 147.399C155.035 147.556 151.855 147.526 148.695 147.448C148.168 147.423 147.643 147.527 147.166 147.751C146.689 147.975 146.274 148.313 145.956 148.734C144.981 149.762 143.701 150.45 142.305 150.696C139.983 151.011 137.629 151.011 135.307 150.696C133.918 150.455 132.646 149.766 131.686 148.734C131.394 148.333 131.007 148.013 130.559 147.802C130.112 147.591 129.618 147.496 129.124 147.526C124.216 147.526 119.231 147.526 113.999 147.526V149.852C113.999 155.905 113.999 161.964 113.999 168.029C113.999 169.256 113.999 170.601 112.37 170.581C110.741 170.562 110.79 169.188 110.79 167.98C110.839 165.036 110.839 162.16 110.839 159.127ZM130.537 144.189V117.778H81.1294V144.15L130.537 144.189ZM77.7629 130.959C77.7629 126.277 77.7629 121.596 77.7629 116.914C77.7629 115.196 77.1544 114.323 75.3485 114.382C73.5426 114.441 71.7661 114.382 69.9798 114.382C68.4291 114.382 67.7126 115.079 67.7126 116.629C67.7126 126.209 67.7126 135.785 67.7126 145.357C67.7126 146.937 68.488 147.595 70.0093 147.566C71.7367 147.566 73.4641 147.507 75.1817 147.566C76.8993 147.624 77.7924 146.849 77.7728 144.994C77.7237 140.352 77.7629 135.641 77.7629 130.959ZM133.884 130.959C133.884 135.572 133.884 140.185 133.884 144.798C133.884 147.173 134.257 147.526 136.671 147.536C138.32 147.536 139.979 147.536 141.628 147.536C141.936 147.592 142.253 147.573 142.553 147.481C142.852 147.389 143.125 147.226 143.349 147.007C143.573 146.788 143.741 146.519 143.839 146.222C143.938 145.924 143.964 145.608 143.915 145.298C143.915 135.732 143.915 126.159 143.915 116.58C143.915 115.02 143.179 114.323 141.638 114.352C140.097 114.382 138.33 114.352 136.671 114.352C134.267 114.352 133.894 114.725 133.884 117.091C133.874 121.753 133.884 126.366 133.884 130.988V130.959ZM110.731 147.595H100.916V155.682H110.731V147.595Z" fill="#000232"/>
<path d="M102.281 64.7775H46.2871C45.6786 64.8764 45.0559 64.8429 44.4615 64.6794C43.8923 64.3751 43.1758 63.6979 43.1758 63.1581C43.1758 62.6183 43.9315 61.9901 44.5008 61.6564C44.913 61.4111 45.5706 61.5779 46.1202 61.5779H158.922C159.403 61.5779 159.992 61.4111 160.335 61.6368C160.927 62.101 161.466 62.6275 161.945 63.2072C161.47 63.7895 160.915 64.3017 160.296 64.7285C159.695 64.8761 159.071 64.8994 158.461 64.7972L102.281 64.7775Z" fill="#000232"/>
<path d="M99.2866 84.6333H46.6007C46.0636 84.7472 45.5085 84.7472 44.9714 84.6333C44.2909 84.2129 43.6561 83.7228 43.0771 83.1709C43.6819 82.5677 44.3388 82.0192 45.0401 81.5318C45.3934 81.3159 46.0216 81.4827 46.4633 81.4827C81.6461 81.4827 116.839 81.4827 152.041 81.4827C153.317 81.4827 155.231 80.9527 155.28 82.9844C155.339 85.2123 153.317 84.6431 152.002 84.6431C134.42 84.6562 116.849 84.6529 99.2866 84.6333Z" fill="#000232"/>
<path d="M95.6752 54.8747H46.3067C45.6956 54.9766 45.0698 54.9465 44.4713 54.7863C43.9021 54.4821 43.1758 53.8049 43.1758 53.265C43.1758 52.7252 43.9217 52.0971 44.491 51.7536C44.9032 51.5082 45.5608 51.675 46.1104 51.675H145.692C146.241 51.675 146.909 51.5082 147.321 51.7634C147.88 52.0971 148.616 52.7449 148.616 53.2847C148.616 53.8245 147.88 54.4821 147.301 54.7863C146.703 54.9462 146.077 54.9763 145.466 54.8747H95.6752Z" fill="#000232"/>
<path d="M91.1504 71.5206H135.572C136.186 71.425 136.813 71.4686 137.408 71.6482C137.987 71.9524 138.703 72.6296 138.703 73.1695C138.703 73.7093 137.947 74.3374 137.378 74.6711C136.966 74.9165 136.308 74.7496 135.759 74.7496H46.1298C45.5802 74.7496 44.9128 74.9165 44.5006 74.6711C44.0884 74.4258 43.2148 73.6896 43.2148 73.14C43.2148 72.5904 43.9608 71.9426 44.53 71.6384C45.1293 71.4824 45.755 71.4556 46.3654 71.5598L91.1504 71.5206Z" fill="#000232"/>
<path d="M54.5016 25.1162C51.4787 25.1162 48.4557 25.1162 45.4328 25.1162C44.2255 25.1162 43.0968 24.9493 43.1165 23.4673C43.1165 22.1325 44.1765 21.9067 45.315 21.9067C51.5114 21.9067 57.698 21.9067 63.8748 21.9067C65.0428 21.9067 66.0242 22.2306 65.9948 23.5556C65.9654 24.8806 64.925 25.126 63.7865 25.1162C60.6948 25.0965 57.5933 25.1162 54.5016 25.1162Z" fill="#000232"/>
<path d="M77.6937 25.0967C76.6052 25.1971 75.5088 25.1741 74.4254 25.028C73.8169 24.871 72.9532 24.0465 72.963 23.5067C73.0566 23.1516 73.2404 22.8267 73.4967 22.5635C73.7529 22.3004 74.0728 22.108 74.4254 22.0051C76.6105 21.8284 78.8064 21.8284 80.9915 22.0051C81.3482 22.1138 81.6701 22.3142 81.925 22.5863C82.1799 22.8585 82.3589 23.1928 82.4441 23.5558C82.4441 24.0858 81.5902 24.9201 80.9719 25.0673C79.8841 25.2052 78.7838 25.2151 77.6937 25.0967Z" fill="#000232"/>
<path d="M163.76 21.9461C164.849 21.8357 165.946 21.8587 167.029 22.0148C167.375 22.1492 167.686 22.3631 167.935 22.6392C168.183 22.9154 168.364 23.2461 168.462 23.6048C168.53 24.0072 167.618 24.969 167.097 25.0083C164.847 25.1801 162.586 25.1801 160.335 25.0083C159.988 24.8912 159.678 24.6857 159.436 24.4119C159.193 24.1382 159.026 23.8059 158.951 23.4477C158.951 22.9079 159.864 22.1424 160.492 21.9952C161.575 21.8492 162.672 21.8261 163.76 21.9264V21.9461Z" fill="#000232"/>
<path d="M175.243 162.347C179.83 162.341 184.317 163.695 188.134 166.238C191.952 168.781 194.931 172.398 196.694 176.634C198.456 180.869 198.924 185.531 198.037 190.032C197.151 194.533 194.95 198.67 191.714 201.921C188.477 205.171 184.349 207.389 179.852 208.295C175.355 209.2 170.69 208.752 166.448 207.007C162.205 205.263 158.575 202.3 156.016 198.492C153.457 194.685 152.084 190.205 152.07 185.618C152.061 182.567 152.654 179.545 153.814 176.724C154.974 173.903 156.679 171.339 158.831 169.177C160.984 167.016 163.541 165.3 166.357 164.128C169.173 162.956 172.193 162.351 175.243 162.347ZM170.277 191.644C168.569 189.897 167.087 188.366 165.585 186.854C164.771 186.04 163.937 184.891 162.641 186.099C161.345 187.306 162.415 188.179 163.259 189.043C164.957 190.751 166.655 192.468 168.363 194.157C170.071 195.845 170.473 195.894 172.23 194.157C177.059 189.337 181.898 184.538 186.677 179.68C187.59 178.757 189.494 177.805 187.787 176.205C186.079 174.605 185.352 176.598 184.479 177.462C179.807 182.055 175.165 186.746 170.277 191.644Z" fill="white"/>
<path d="M130.537 144.19H81.1289V117.778H130.537V144.19ZM95.8217 124.315C98.9134 124.315 102.015 124.413 105.097 124.246C105.55 124.195 105.985 124.033 106.361 123.774C106.738 123.516 107.045 123.169 107.256 122.764C107.531 121.517 106.422 121.115 105.244 121.115C98.9919 121.115 92.73 121.115 86.478 121.184C86.053 121.247 85.6507 121.416 85.3078 121.675C84.9649 121.934 84.6923 122.274 84.515 122.666C84.2795 123.942 85.3591 124.324 86.5369 124.324C89.6383 124.305 92.73 124.315 95.8217 124.315ZM119.946 124.315C121.254 124.422 122.569 124.399 123.872 124.246C124.52 124.108 125.021 123.205 125.59 122.656C125.04 122.145 124.52 121.242 123.941 121.203C121.271 121.041 118.593 121.041 115.922 121.203C115.324 121.203 114.784 122.185 114.215 122.793C114.833 123.294 115.392 124.118 116.079 124.246C117.364 124.387 118.658 124.406 119.946 124.305V124.315Z" fill="white"/>
<path d="M77.7623 130.959C77.7623 135.641 77.7623 140.332 77.7623 145.014C77.7623 146.869 77.0262 147.664 75.1712 147.585C73.3162 147.507 71.7262 147.585 69.9988 147.585C68.4775 147.585 67.7021 146.957 67.7021 145.377C67.7021 135.798 67.7021 126.222 67.7021 116.649C67.7021 115.098 68.4186 114.382 69.9694 114.401C71.7557 114.401 73.5518 114.401 75.3381 114.401C77.1244 114.401 77.7722 115.216 77.7525 116.933C77.7329 121.596 77.7623 126.277 77.7623 130.959Z" fill="white"/>
<path d="M133.884 130.988C133.884 126.366 133.884 121.753 133.884 117.14C133.884 114.774 134.267 114.411 136.672 114.401C138.33 114.401 139.979 114.401 141.638 114.401C143.297 114.401 143.915 115.069 143.915 116.629C143.915 126.202 143.915 135.775 143.915 145.347C143.964 145.657 143.938 145.973 143.839 146.271C143.741 146.568 143.573 146.837 143.349 147.056C143.125 147.275 142.852 147.438 142.553 147.53C142.253 147.622 141.936 147.641 141.628 147.585C139.979 147.585 138.321 147.585 136.672 147.585C134.257 147.585 133.894 147.222 133.884 144.847C133.874 140.214 133.884 135.601 133.884 130.988Z" fill="white"/>
<path d="M110.731 147.625V155.712H100.916V147.625H110.731Z" fill="white"/>
<path d="M170.278 191.644C175.185 186.737 179.808 182.055 184.509 177.422C185.383 176.559 186.256 174.704 187.817 176.166C189.377 177.628 187.62 178.718 186.708 179.64C181.928 184.548 177.089 189.298 172.26 194.117C170.503 195.864 170.14 195.855 168.393 194.117C166.646 192.38 164.987 190.712 163.289 189.004C162.445 188.17 161.405 187.286 162.671 186.059C163.937 184.832 164.771 186 165.616 186.815C167.088 188.366 168.57 189.897 170.278 191.644Z" fill="#000232"/>
<path d="M95.8216 124.314C92.73 124.314 89.6383 124.314 86.5466 124.314C85.3688 124.314 84.2892 123.932 84.5248 122.656C84.7021 122.264 84.9747 121.924 85.3176 121.665C85.6605 121.406 86.0628 121.237 86.4877 121.174C92.7398 121.066 99.0016 121.115 105.254 121.105C106.431 121.105 107.541 121.507 107.266 122.754C107.055 123.159 106.747 123.506 106.371 123.764C105.994 124.023 105.56 124.185 105.106 124.236C102.015 124.412 98.9133 124.314 95.8216 124.314Z" fill="#000232"/>
<path d="M119.947 124.304C118.639 124.41 117.325 124.39 116.021 124.246C115.334 124.118 114.775 123.264 114.156 122.793C114.726 122.234 115.265 121.242 115.864 121.203C118.534 121.041 121.212 121.041 123.883 121.203C124.462 121.203 124.982 122.184 125.532 122.656C124.962 123.205 124.462 124.108 123.814 124.246C122.53 124.391 121.235 124.411 119.947 124.304Z" fill="#000232"/>
</g>
<defs>
<clipPath id="clip0_2007_7566">
<rect width="212" height="212" fill="white"/>
</clipPath>
</defs>
</svg>
