<svg width="181" height="157" viewBox="0 0 181 157" fill="none" xmlns="http://www.w3.org/2000/svg">
<path d="M160.643 19.1935C151.523 6.95766 137.124 0 121.764 0H74.4864C69.6867 0 65.1269 2.63911 62.727 6.95766L11.3693 102.446C9.44936 106.044 9.44935 110.123 11.6093 113.482C13.7692 116.841 17.369 119 21.2088 119H45.9277C50.4875 119 54.5673 116.601 56.7272 112.522L68.0067 91.8891C68.2467 91.6492 68.2467 91.4093 68.4867 90.9294L69.4467 89.0101C69.4467 88.7702 69.6867 88.7702 69.6867 88.5302C75.2064 90.9294 79.5262 97.1673 85.286 91.4093C89.8457 85.1714 95.8455 79.4133 100.405 73.4153C103.045 69.8165 104.965 65.2581 107.605 61.6593C107.845 61.4193 107.845 61.1794 107.845 60.6996C107.845 59.0202 103.765 54.2218 103.525 52.5423C103.285 50.8629 105.205 48.7036 104.245 46.7843L113.365 41.2661C115.285 41.2661 117.205 40.7863 119.124 40.5464C120.804 40.3064 129.684 40.0665 130.404 39.3468C130.884 38.8669 130.404 32.629 130.164 31.6694C130.164 31.4294 129.924 31.1895 129.684 30.9496C128.244 29.9899 113.845 32.629 111.205 32.3891L99.6853 38.3871C98.2454 33.5887 94.6455 39.5867 92.7256 40.0665C91.7657 40.3064 89.1258 39.1069 87.9258 39.5867L72.8065 53.9819C72.0865 55.6613 74.4864 59.5 74.2464 61.6593C70.4066 68.8568 65.8468 75.5746 62.247 82.7722C62.247 83.4919 62.487 83.9718 62.487 83.9718C62.487 83.9718 62.247 84.4516 62.007 84.9315L49.2876 108.204C48.5676 109.403 46.1677 110.123 46.1677 110.123C46.1677 110.123 30.5684 110.123 22.4088 110.123C20.0089 110.123 18.5689 107.724 19.7689 105.565C30.3284 86.1311 70.8866 10.7964 70.8866 10.7964C71.6066 9.35685 73.2865 8.39718 74.9664 8.39718H121.764C134.244 8.39718 146.243 14.1552 153.683 24.2319C160.883 34.3085 163.042 46.5444 159.443 58.3004C154.403 74.6149 139.044 85.4113 121.764 85.4113H102.565C101.845 85.4113 101.365 85.6512 100.885 86.1311L94.8855 92.3689C94.1656 93.0887 94.6455 94.0484 95.6055 94.0484H122.484C143.123 94.0484 161.123 80.8528 167.602 61.4194C172.402 47.2641 169.762 31.6694 160.643 19.1935ZM84.806 88.0504L88.1658 75.8145C89.3658 72.4556 93.9256 74.6149 96.5654 74.1351L84.806 88.0504ZM95.8455 69.0968C94.6455 68.377 93.4456 67.4173 92.0056 66.4577C93.2056 67.4173 94.6455 68.377 95.8455 69.0968ZM72.3265 86.371C75.9264 80.8528 78.8062 75.0948 82.4061 69.5766C83.126 68.377 84.086 66.6976 85.5259 66.4577C87.4459 66.2177 91.7657 70.2964 93.9256 71.0161C93.9256 71.496 93.6856 71.256 93.2056 71.256C92.4856 71.256 91.7656 71.0161 91.0457 71.0161C87.6858 71.2561 86.2459 72.2157 85.046 75.5746C83.366 80.6129 82.4061 86.1311 80.7262 91.1694C79.0462 92.3689 73.7665 87.8105 72.0865 87.0907L72.3265 86.371Z" fill="url(#paint0_linear_332_5836)"/>
<path d="M1.91953 148.417L5.33863 131.455H16.66C20.5904 131.455 22.0035 133.151 21.2806 136.737C20.6212 140.009 18.3075 142.044 14.4514 142.044H6.31875L5.03414 148.417H1.91953ZM6.72416 140.033H14.0657C16.9332 140.033 17.9535 138.773 18.3247 136.931C18.6959 135.09 18.3072 133.83 15.4645 133.83H7.97457L6.72416 140.033ZM28.0089 148.805C22.6449 148.805 19.0357 146.721 20.081 141.535L20.0859 141.511C21.1311 136.325 25.3875 134.217 30.4055 134.217C34.0393 134.217 38.0962 135.429 37.0265 140.736L36.7725 141.996H23.0781C22.7196 145 24.9375 146.26 28.7937 146.26C31.9578 146.26 34.0275 145.558 35.7408 144.661L35.267 147.012C33.7716 148.054 30.7033 148.805 28.0089 148.805ZM23.2579 140.736H34.4557C34.8709 138.676 34.0943 136.519 29.991 136.519C25.8629 136.519 23.8553 138.385 23.2579 140.736ZM43.1892 148.805C39.4566 148.805 36.9665 147.424 38.0264 142.165L39.0717 136.98H37.3413L37.82 134.605H39.5503L40.3807 130.486H43.3964L42.5661 134.605H51.465L50.9863 136.98H42.0874L41.1008 141.875C40.456 145.073 41.6257 146.26 44.5178 146.26C46.6931 146.26 48.3923 145.679 49.311 145.291L48.842 147.617C47.0741 148.417 45.0431 148.805 43.1892 148.805ZM49.2094 148.417L51.9935 134.605H55.034C54.7898 135.817 54.5102 136.713 54.1555 137.246C54.1162 137.319 54.1064 137.367 54.1757 137.392C54.2251 137.392 54.2596 137.343 54.299 137.27C55.2994 135.986 56.9664 134.338 61.9844 134.338L61.4715 136.883H60.1861C56.4288 136.883 54.2763 138.119 53.4069 142.432L52.2004 148.417H49.2094ZM66.544 148.805C61.8721 148.805 58.1457 147.302 59.3082 141.535C60.4804 135.72 64.8125 134.217 69.4844 134.217C74.1811 134.217 77.8333 135.72 76.661 141.535C75.4741 147.424 71.2406 148.805 66.544 148.805ZM62.2992 141.535C61.5714 145.146 63.8483 146.236 67.0618 146.236C70.3247 146.236 72.9325 145.194 73.67 141.535C74.4125 137.852 72.2296 136.786 68.9667 136.786C65.7532 136.786 63.0416 137.852 62.2992 141.535ZM79.3601 148.417L82.7792 131.455H86.6106L90.8068 145.097C90.8565 145.219 90.837 145.315 90.8864 145.315C90.9606 145.315 90.9554 145.219 91.054 145.097L100.75 131.455H104.581L101.162 148.417H98.5421L101.258 135.065C101.312 134.799 101.376 134.726 101.277 134.726C101.228 134.726 101.208 134.823 101.07 135.017L91.5466 148.417H89.0005L84.899 135.041C84.7995 134.799 84.8389 134.726 84.7894 134.726C84.6906 134.726 84.7253 134.799 84.6667 135.09L81.9803 148.417H79.3601ZM108.135 148.805C103.785 148.805 101.833 147.206 102.331 144.734C102.898 141.923 105.293 140.833 109.253 140.687C116.87 140.421 117.492 139.912 117.663 139.064C118.02 137.295 115.432 136.519 113.257 136.519C109.672 136.519 106.22 138.07 104.364 139.185L104.833 136.859C106.373 135.841 109.42 134.217 113.795 134.217C118.269 134.217 121.353 135.72 120.547 139.718L118.793 148.417H115.778L116.286 145.897C116.295 145.849 116.28 145.8 116.231 145.8C116.181 145.8 116.172 145.849 116.137 145.897C115.66 146.915 113.326 148.805 108.135 148.805ZM105.475 144.346C105.177 145.824 106.341 146.794 109.406 146.794C113.93 146.794 116.369 145.485 116.867 143.013L117.321 140.76C117.336 140.687 117.345 140.639 117.296 140.639C117.247 140.639 117.212 140.687 117.148 140.76C116.916 141.051 115.934 141.632 110.501 141.85C107.417 141.947 105.826 142.601 105.475 144.346ZM127.464 148.805C123.929 148.805 121.46 148.175 119.584 146.939L120.067 144.54C122.156 145.703 124.447 146.479 127.933 146.479C129.762 146.479 132.575 146.503 132.985 144.467C133.21 143.353 132.081 142.82 130.069 142.626L126.726 142.286C121.578 141.826 120.809 140.493 121.209 138.385C121.795 135.477 125.015 134.217 129.687 134.217C133.642 134.217 135.865 135.332 137.094 136.592L136.62 138.942C134.455 137.174 132.407 136.544 128.897 136.544C127.092 136.544 124.201 136.786 123.83 138.627C123.537 140.081 125.629 140.372 127.295 140.566L130.683 140.929C135.123 141.341 135.987 142.698 135.581 144.71C135.02 147.496 131.542 148.805 127.464 148.805ZM142.549 148.805C138.816 148.805 136.326 147.424 137.386 142.165L138.431 136.98H136.701L137.179 134.605H138.91L139.74 130.486H142.756L141.926 134.605H150.824L150.346 136.98H141.447L140.46 141.875C139.815 145.073 140.985 146.26 143.877 146.26C146.053 146.26 147.752 145.679 148.67 145.291L148.202 147.617C146.434 148.417 144.403 148.805 142.549 148.805ZM156.626 148.805C151.262 148.805 147.653 146.721 148.698 141.535L148.703 141.511C149.748 136.325 154.004 134.217 159.022 134.217C162.656 134.217 166.713 135.429 165.643 140.736L165.389 141.996H151.695C151.337 145 153.554 146.26 157.411 146.26C160.575 146.26 162.644 145.558 164.358 144.661L163.884 147.012C162.389 148.054 159.32 148.805 156.626 148.805ZM151.875 140.736H163.073C163.488 138.676 162.711 136.519 158.608 136.519C154.48 136.519 152.472 138.385 151.875 140.736ZM164.574 148.417L167.358 134.605H170.398C170.154 135.817 169.874 136.713 169.52 137.246C169.48 137.319 169.471 137.367 169.54 137.392C169.589 137.392 169.624 137.343 169.663 137.27C170.664 135.986 172.331 134.338 177.349 134.338L176.836 136.883H175.55C171.793 136.883 169.641 138.119 168.771 142.432L167.565 148.417H164.574Z" fill="#74CBF4"/>
<defs>
<linearGradient id="paint0_linear_332_5836" x1="10.004" y1="59.5132" x2="169.882" y2="59.5132" gradientUnits="userSpaceOnUse">
<stop offset="0.0938326" stop-color="#149CD8"/>
<stop offset="0.8943" stop-color="#74CBF4"/>
</linearGradient>
</defs>
</svg>
