<svg width="162" height="162" viewBox="0 0 162 162" fill="none" xmlns="http://www.w3.org/2000/svg">
<g opacity="0.3" clip-path="url(#clip0_2008_9635)">
<path d="M162 131.682V162H0V0H47.3642C47.1025 0.135458 46.8326 0.25424 46.5559 0.355636C42.7328 1.39829 40.0898 4.39695 40.0898 8.31702C40.0898 10.1356 40.7445 11.9542 41.1163 13.8698C41.0053 13.9312 40.8889 13.9826 40.7688 14.0233C32.6861 17.0382 27.3516 22.6394 25.0076 30.9969C24.7732 31.8536 24.3206 32.0233 23.5447 32.0233C20.0692 32.0233 16.5936 31.9668 13.1262 32.0233C11.8139 32.0221 10.5061 32.1768 9.23035 32.4841C3.7665 33.8985 0.412214 38.4814 0.412214 44.4544C0.412214 60.2425 0.412214 76.0252 0.412214 91.8024C0.412214 104.481 0.412214 117.16 0.412214 129.839C0.412214 134.778 2.40054 138.73 6.91873 140.856C9.02517 141.791 11.3064 142.268 13.6111 142.254C34.8119 142.351 56.0126 142.303 77.2133 142.335C78.3616 142.344 79.5005 142.544 80.5837 142.925C97.1747 148.895 113.758 154.898 130.332 160.933C130.85 161.119 131.391 161.256 132.207 161.499V142.254H134.309C139.312 142.254 144.307 142.254 149.302 142.254C155.477 142.198 159.979 138.908 161.467 133.452C161.652 132.862 161.822 132.272 162 131.682Z" fill="white"/>
<path d="M162 131.683C161.822 132.273 161.628 132.863 161.466 133.461C159.979 138.917 155.477 142.206 149.302 142.263C144.307 142.311 139.312 142.263 134.308 142.263H132.207V161.451C131.399 161.208 130.849 161.071 130.332 160.885C113.757 154.877 97.1742 148.874 80.5833 142.877C79.5 142.496 78.3612 142.296 77.2128 142.287C56.0121 142.287 34.8114 142.287 13.6107 142.206C11.3089 142.233 9.02773 141.77 6.91825 140.848C2.40006 138.723 0.452148 134.77 0.452148 129.832C0.452148 117.153 0.452148 104.474 0.452148 91.7949C0.452148 76.0068 0.452148 60.2242 0.452148 44.4469C0.452148 38.4738 3.80644 33.891 9.25413 32.4684C10.5299 32.1611 11.8377 32.0065 13.15 32.0077C16.6174 31.9431 20.0929 32.0077 23.5685 32.0077C24.3767 32.0077 24.797 31.838 25.0314 30.9812C27.3754 22.64 32.6937 17.0387 40.7925 14.0077C40.9127 13.967 41.029 13.9156 41.1401 13.8542C40.7683 11.9386 40.1055 10.12 40.1136 8.30139C40.1136 4.3894 42.7323 1.38267 46.5797 0.340011C46.8563 0.238615 47.1263 0.119833 47.3879 -0.015625H49.9178C50.1786 0.123959 50.4486 0.245484 50.7261 0.348094C52.636 0.815368 54.3201 1.94112 55.4821 3.52737C56.644 5.11362 57.2095 7.05878 57.079 9.02075C56.8508 10.6458 56.4775 12.2472 55.9636 13.8057L57.5801 14.4523C64.8545 17.4913 69.7041 22.7612 71.9914 30.3346C72.3875 31.6602 72.9452 32.0077 74.2546 32.0077C88.5608 31.9592 102.867 32.0077 117.181 32.0077C127.907 32.0077 138.641 32.0077 149.374 32.0077C155.453 32.0077 160.052 35.4024 161.498 40.8501C161.66 41.4482 161.838 42.0463 162.016 42.6364L162 131.683ZM73.0907 36.5906C73.0907 37.3261 72.9937 37.7868 72.9937 38.2556C72.9937 42.8869 72.9937 47.5183 72.9937 52.1496C72.9937 53.4024 73.3574 53.8551 74.6102 54.041C78.6515 54.6391 81.1895 58.0823 80.8742 62.3418C80.7025 64.1668 79.867 65.8654 78.5262 67.1153C77.1854 68.3653 75.4325 69.0797 73.5999 69.1231C71.3852 69.1716 69.1706 69.1878 66.9641 69.1231C65.784 69.0827 65.2586 69.3737 64.9838 70.675C64.0365 74.8995 61.4817 78.5892 57.8608 80.9624C54.2398 83.3357 49.8371 84.206 45.5855 83.389C38.5375 81.926 34.0839 77.5937 32.3139 70.6103C32.031 69.4949 31.6026 69.0665 30.4225 69.115C28.1675 69.212 25.8962 69.1797 23.6412 69.115C21.7839 69.0437 20.0174 68.2933 18.6766 67.0061C17.3358 65.7189 16.5139 63.9845 16.3668 62.1317C16.2376 60.3748 16.712 58.6265 17.7114 57.1759C18.7108 55.7253 20.1754 54.6592 21.863 54.1541C22.5662 53.9682 23.2936 53.8874 24.0372 53.7581V36.5906H13.2631C7.83158 36.5906 5.00267 39.4195 5.00267 44.851V129.322C5.00267 134.98 7.79925 137.712 13.4652 137.712C35.0458 137.712 56.621 137.712 78.1908 137.712C79.2354 137.724 80.2706 137.91 81.2541 138.262C96.1262 143.618 110.99 149.006 125.846 154.427C126.355 154.613 126.897 154.734 127.64 154.952V137.696H149.075C154.458 137.696 157.312 134.819 157.312 129.395V44.7783C157.312 39.4518 154.45 36.5906 149.132 36.5906H73.0583H73.0907ZM28.7009 53.75C29.4122 53.75 29.881 53.8227 30.3174 53.8227H66.762C67.5703 53.8227 68.4674 54.0005 68.4513 52.6427C68.3624 46.8555 68.6048 41.0603 68.2169 35.2974C67.8261 30.648 65.7943 26.2893 62.4848 23.0005C59.1753 19.7118 54.8039 17.7074 50.1522 17.3458C45.4431 16.9881 40.7605 18.3181 36.9426 21.0979C33.1247 23.8776 30.4208 27.9255 29.3152 32.5169C28.9437 34.1074 28.7459 35.7334 28.7252 37.3665C28.6605 42.7495 28.7009 48.1568 28.7009 53.75ZM48.4953 58.3894H25.1203C24.5422 58.3659 23.9632 58.3957 23.3906 58.4783C22.6582 58.6109 21.997 59.0003 21.5259 59.5766C21.0548 60.1529 20.8046 60.8783 20.8204 61.6224C20.851 62.3647 21.151 63.0703 21.6642 63.6074C22.1775 64.1444 22.8688 64.4761 23.6089 64.5403C24.2342 64.6077 24.8633 64.6347 25.4921 64.6211H71.5631C72.3003 64.6361 73.0377 64.5982 73.7696 64.5079C74.455 64.4187 75.0866 64.0898 75.5527 63.5794C76.0187 63.069 76.289 62.4101 76.3157 61.7194C76.3878 61.0566 76.2261 60.3894 75.8587 59.833C75.4912 59.2767 74.941 58.8661 74.3031 58.6723C73.5993 58.4708 72.8688 58.3781 72.1369 58.3975C64.2429 58.3813 56.3623 58.3786 48.4953 58.3894ZM60.4171 69.2524H36.727C37.2362 74.6759 42.9991 79.3476 48.8509 79.1537C54.7027 78.9597 60.1342 74.3607 60.3848 69.2524H60.4171ZM48.6327 12.6741C49.6083 12.5499 50.5051 12.0743 51.1551 11.3363C51.8052 10.5983 52.1638 9.64858 52.1638 8.66511C52.1638 7.68165 51.8052 6.73193 51.1551 5.99393C50.5051 5.25592 49.6083 4.78028 48.6327 4.65613C48.0635 4.5837 47.4854 4.6333 46.9368 4.80164C46.3883 4.96999 45.8819 5.2532 45.4513 5.63246C45.0207 6.01172 44.6759 6.47832 44.4396 7.00121C44.2034 7.52411 44.0812 8.09132 44.0812 8.66511C44.0812 9.2389 44.2034 9.80611 44.4396 10.329C44.6759 10.8519 45.0207 11.3185 45.4513 11.6978C45.8819 12.077 46.3883 12.3602 46.9368 12.5286C47.4854 12.6969 48.0635 12.7465 48.6327 12.6741Z" fill="#000232"/>
<path d="M162 42.6286C161.822 42.0385 161.645 41.4404 161.483 40.8423C160.02 35.3946 155.421 32.0161 149.359 31.9999C138.625 31.9999 127.892 31.9999 117.166 31.9999C102.852 31.9999 88.5454 31.9999 74.2391 31.9999C72.9297 31.9999 72.372 31.6524 71.976 30.3268C69.7209 22.7534 64.8471 17.4835 57.5647 14.4445L55.9481 13.7978C56.4621 12.2394 56.8354 10.638 57.0635 9.01294C57.194 7.05097 56.6286 5.10581 55.4666 3.51956C54.3046 1.93331 52.6206 0.807555 50.7106 0.340281C50.4332 0.237671 50.1631 0.116146 49.9023 -0.0234375H162.008L162 42.6286Z" fill="white"/>
<path d="M73.0586 36.5898H149.132C154.451 36.5898 157.312 39.4511 157.312 44.7775V129.395C157.312 134.818 154.459 137.695 149.076 137.695H127.641V154.936C126.897 154.717 126.355 154.596 125.846 154.41C110.985 149.022 96.121 143.633 81.2544 138.245C80.2709 137.893 79.2356 137.707 78.1911 137.695C56.6374 137.695 35.0622 137.695 13.4654 137.695C7.8076 137.695 5.00293 134.923 5.00293 129.306V44.8503C5.00293 39.4188 7.83185 36.5898 13.2634 36.5898H24.0375V53.7412C23.2939 53.8705 22.5665 53.9513 21.8633 54.1372C20.1547 54.6246 18.6661 55.6853 17.6475 57.1411C16.6289 58.5968 16.1425 60.3588 16.2701 62.1309C16.4172 63.9838 17.2391 65.7182 18.5799 67.0054C19.9207 68.2925 21.6872 69.043 23.5445 69.1143C25.7995 69.1709 28.0707 69.2032 30.3258 69.1143C31.5058 69.0658 31.9423 69.4942 32.2171 70.6096C33.9872 77.593 38.4407 81.9253 45.4888 83.3882C49.7404 84.2053 54.1431 83.335 57.764 80.9617C61.385 78.5885 63.9398 74.8988 64.8871 70.6743C65.1619 69.373 65.6953 69.0577 66.8673 69.1224C69.0739 69.1951 71.2885 69.179 73.5032 69.1224C75.3357 69.079 77.0887 68.3646 78.4295 67.1146C79.7703 65.8647 80.6058 64.1661 80.7775 62.3411C81.0927 58.1058 78.5305 54.6383 74.5135 54.0402C73.2526 53.8543 72.897 53.4017 72.897 52.1489C72.9697 47.5175 72.897 42.8862 72.897 38.2549C72.9616 37.7861 73.0182 37.3254 73.0586 36.5898ZM21.5966 118.168C21.5966 121.627 21.637 124.828 21.5966 128.029C21.5966 129.176 21.9037 129.589 23.0999 129.589C39.4592 129.556 55.8184 129.556 72.1776 129.589C73.4223 129.589 73.6486 129.087 73.6325 127.972C73.584 123.664 73.6325 119.348 73.6325 115.04C73.6325 114.636 73.5517 114.232 73.4951 113.666C70.9006 113.666 68.3869 113.585 65.8812 113.666C64.4506 113.73 64.0142 113.213 64.1354 111.855C64.2243 110.647 64.2243 109.434 64.1354 108.226C64.0465 107.014 64.5638 106.666 65.6953 106.715C67.2472 106.787 68.7991 106.715 70.3671 106.715V91.0344H18.4282C18.4282 94.421 18.4282 97.6702 18.4282 100.919C18.4282 101.938 18.1372 102.342 17.0864 102.302C15.4699 102.237 13.8534 102.302 12.1803 102.302C12.1399 102.884 12.0914 103.239 12.0914 103.595C12.0914 107.959 12.1318 112.332 12.0914 116.697C12.0914 117.901 12.4794 118.232 13.6271 118.208C16.165 118.119 18.7515 118.168 21.5966 118.168ZM114.369 71.0784C110.748 71.2805 107.095 71.1916 103.522 71.7412C90.5171 73.7214 80.139 85.1826 79.2742 97.7995C78.2072 113.383 88.2863 125.28 100.426 128.417C108.574 130.542 116.988 130.122 125.208 129.047C138.69 127.277 148.704 115.856 149.456 101.606C149.751 95.2436 147.942 88.9606 144.309 83.7288C140.675 78.497 135.42 74.6079 129.354 72.6626C124.472 71.0461 119.421 71.2724 114.369 71.0784ZM106.561 47.461V59.8759C107.628 59.8759 108.566 59.8193 109.495 59.8759C110.602 59.9648 110.974 59.5364 110.958 58.4372C110.901 55.4466 110.958 52.456 110.958 49.4655C110.958 48.8108 110.877 48.148 110.829 47.4448L106.561 47.461ZM102.108 62.7614L94.6392 54.0645L91.1798 57.0308L98.6563 65.7358L102.108 62.7614ZM122.71 54.1534L115.234 62.8665L118.709 65.8247L126.153 57.1359L122.71 54.1534Z" fill="white"/>
<path d="M28.7012 53.7487C28.7012 48.1556 28.7012 42.7483 28.7012 37.341C28.7219 35.7079 28.9197 34.0819 29.2912 32.4914C30.4024 27.9001 33.1119 23.8544 36.9344 21.079C40.7569 18.3035 45.4427 16.9797 50.1525 17.3446C54.8112 17.6991 59.1913 19.7013 62.5076 22.9925C65.8239 26.2836 67.8595 30.6483 68.2495 35.3042C68.6374 41.0671 68.3949 46.8623 68.4838 52.6495C68.4838 54.0074 67.6271 53.8295 66.7946 53.8295H30.35C29.9055 53.8215 29.4124 53.7811 28.7012 53.7487Z" fill="white"/>
<path d="M48.4961 58.3889C56.3847 58.3889 64.2734 58.3889 72.162 58.3889C72.8938 58.3695 73.6243 58.4622 74.3281 58.6637C74.9661 58.8576 75.5163 59.2681 75.8838 59.8245C76.2512 60.3808 76.4128 61.048 76.3407 61.7109C76.314 62.4015 76.0437 63.0604 75.5777 63.5708C75.1117 64.0812 74.4801 64.4101 73.7947 64.4994C73.0628 64.5896 72.3254 64.6275 71.5881 64.6125H25.5172C24.8883 64.6261 24.2593 64.5991 23.6339 64.5317C22.8939 64.4675 22.2025 64.1358 21.6893 63.5988C21.1761 63.0617 20.8761 62.3561 20.8454 61.6139C20.8297 60.8697 21.0798 60.1443 21.551 59.568C22.0221 58.9917 22.6832 58.6023 23.4157 58.4697C23.9883 58.3871 24.5673 58.3573 25.1454 58.3808L48.4961 58.3889Z" fill="white"/>
<path d="M60.3855 69.252C60.1349 74.344 54.7276 78.9511 48.8192 79.1532C42.9108 79.3552 37.2368 74.6754 36.6953 69.252H60.3855Z" fill="white"/>
<path d="M48.6013 12.6987C48.0321 12.7712 47.454 12.7216 46.9054 12.5532C46.3569 12.3849 45.8505 12.1017 45.4199 11.7224C44.9894 11.3431 44.6445 10.8765 44.4082 10.3536C44.172 9.83075 44.0498 9.26354 44.0498 8.68975C44.0498 8.11596 44.172 7.54875 44.4082 7.02585C44.6445 6.50295 44.9894 6.03636 45.4199 5.6571C45.8505 5.27784 46.3569 4.99462 46.9054 4.82628C47.454 4.65794 48.0321 4.60833 48.6013 4.68077C49.5769 4.80492 50.4737 5.28056 51.1238 6.01856C51.7738 6.75657 52.1324 7.70628 52.1324 8.68975C52.1324 9.67321 51.7738 10.6229 51.1238 11.3609C50.4737 12.0989 49.5769 12.5746 48.6013 12.6987Z" fill="white"/>
<path d="M21.597 118.168C18.7519 118.168 16.1816 118.119 13.6114 118.168C12.4636 118.168 12.0595 117.861 12.0757 116.656C12.1484 112.292 12.0757 107.919 12.0757 103.555C12.0757 103.199 12.1242 102.843 12.1646 102.261C13.8538 102.261 15.4623 102.213 17.0707 102.261C18.1215 102.302 18.4286 101.898 18.4124 100.879C18.3639 97.6461 18.4124 94.4131 18.4124 90.9941H70.319V106.739C68.751 106.739 67.1992 106.788 65.6473 106.739C64.5157 106.691 64.0308 107.038 64.0873 108.251C64.1762 109.459 64.1762 110.672 64.0873 111.88C63.9661 113.238 64.4026 113.755 65.8332 113.69C68.3388 113.577 70.8525 113.69 73.447 113.69C73.5036 114.256 73.5844 114.66 73.5844 115.064C73.5844 119.38 73.5844 123.696 73.5844 127.996C73.5844 129.096 73.3743 129.613 72.1295 129.613C55.7703 129.581 39.4111 129.581 23.0519 129.613C21.8556 129.613 21.5242 129.201 21.5485 128.053C21.6374 124.828 21.597 121.627 21.597 118.168ZM44.3415 102.286C51.0177 102.286 57.694 102.286 64.3783 102.286C65.5018 102.286 65.9948 102.003 65.9544 100.782C65.8736 99.4687 65.8736 98.1514 65.9544 96.8379C66.0272 95.6255 65.5018 95.3426 64.3379 95.3426C51.0447 95.3749 37.7434 95.3749 24.434 95.3426C23.3752 95.3426 22.8821 95.6093 22.963 96.7571C23.064 98.0159 23.064 99.2809 22.963 100.54C22.8255 101.987 23.4156 102.294 24.7573 102.286C31.3042 102.253 37.8188 102.286 44.3415 102.286ZM16.6908 106.771C16.6908 108.622 16.7878 110.207 16.6908 111.766C16.5938 113.326 17.0707 113.714 18.5983 113.706C29.8574 113.65 41.1084 113.706 52.3595 113.706C54.3559 113.706 56.3523 113.706 58.3487 113.706C59.3186 113.706 59.6661 113.343 59.6338 112.413C59.5488 111.205 59.5488 109.992 59.6338 108.784C59.7955 107.167 59.2054 106.747 57.6132 106.755C44.6244 106.82 31.6356 106.755 18.6468 106.755L16.6908 106.771ZM26.1798 118.257C26.1798 120.342 26.1233 122.233 26.2283 124.117C26.2283 124.448 26.9073 124.982 27.2952 125.014C28.8148 125.119 30.3424 125.054 31.87 125.054C43.6949 125.054 55.5278 125.054 67.3608 125.054C68.7672 125.054 69.244 124.634 69.1228 123.26C69.0137 122.212 69.0137 121.156 69.1228 120.108C69.3249 118.491 68.6459 118.095 67.086 118.103C54.0972 118.16 41.1084 118.103 28.1277 118.103C27.5539 118.176 26.9881 118.224 26.1798 118.257Z" fill="#000232"/>
<path d="M114.369 71.0781C119.42 71.2721 124.464 71.0781 129.378 72.6946C135.444 74.6399 140.699 78.5291 144.333 83.7609C147.966 88.9926 149.775 95.2756 149.48 101.639C148.671 115.888 138.689 127.309 125.232 129.079C117.012 130.154 108.598 130.574 100.45 128.449C88.3265 125.28 78.2313 113.415 79.2982 97.8316C80.1631 85.2146 90.5411 73.7535 103.546 71.7732C107.086 71.1913 110.732 71.2802 114.369 71.0781ZM132.959 100.394C132.952 95.5229 131.502 90.7633 128.79 86.7168C126.079 82.6704 122.228 79.5188 117.726 77.6607C113.223 75.8026 108.271 75.3214 103.495 76.2779C98.7186 77.2345 94.3335 79.5858 90.8937 83.0346C87.454 86.4833 85.1142 90.8747 84.1702 95.6532C83.2262 100.432 83.7204 105.383 85.5903 109.881C87.4602 114.378 90.6219 118.22 94.6754 120.921C98.729 123.622 103.492 125.06 108.363 125.054C114.888 125.018 121.134 122.406 125.743 117.788C130.353 113.17 132.952 106.918 132.975 100.394H132.959ZM125.078 76.4611C133.104 82.5878 137.445 90.4683 137.477 100.321C137.509 110.174 133.161 118.2 125.135 124.326C135.311 123.567 144.848 112.203 144.961 100.887C145.131 86.4836 133.921 77.6655 125.094 76.4611H125.078Z" fill="#000232"/>
<path d="M106.561 47.4609H110.805C110.853 48.1641 110.934 48.8269 110.934 49.4816C110.934 52.4722 110.934 55.4627 110.934 58.4533C110.934 59.5525 110.578 59.9809 109.471 59.892C108.542 59.8193 107.604 59.892 106.537 59.892L106.561 47.4609Z" fill="#000232"/>
<path d="M102.107 62.7614L98.6561 65.7358L91.1797 57.0308L94.639 54.0645L102.107 62.7614Z" fill="#000232"/>
<path d="M122.711 54.1543L126.154 57.1368L118.71 65.8256L115.234 62.8674L122.711 54.1543Z" fill="#000232"/>
<path d="M44.3415 102.285C37.8188 102.285 31.3042 102.285 24.7816 102.285C23.4398 102.285 22.8498 101.986 22.9872 100.539C23.0883 99.2802 23.0883 98.0153 22.9872 96.7564C22.9064 95.6087 23.3994 95.3339 24.4583 95.342C37.7623 95.342 51.0636 95.342 64.3622 95.342C65.4937 95.342 65.9787 95.6249 65.9787 96.8372C65.8979 98.1508 65.8979 99.468 65.9787 100.782C66.0514 102.002 65.5261 102.293 64.4026 102.285C57.694 102.269 51.0178 102.285 44.3415 102.285Z" fill="white"/>
<path d="M16.6902 106.771H18.6462C31.6349 106.771 44.6237 106.771 57.6125 106.771C59.229 106.771 59.7948 107.192 59.6331 108.8C59.5482 110.008 59.5482 111.221 59.6331 112.429C59.6331 113.359 59.3179 113.747 58.348 113.723C56.3516 113.674 54.3552 113.723 52.3588 113.723C41.1078 113.723 29.8568 113.723 18.5977 113.723C17.07 113.723 16.5608 113.302 16.6902 111.783C16.8195 110.263 16.6902 108.622 16.6902 106.771Z" fill="white"/>
<path d="M26.1793 118.257C26.9875 118.257 27.5533 118.176 28.1272 118.168C41.1079 118.168 54.0967 118.168 67.0854 118.168C68.6454 118.168 69.3243 118.532 69.1222 120.172C69.0131 121.22 69.0131 122.277 69.1222 123.325C69.2435 124.699 68.7666 125.127 67.3602 125.119C55.5273 125.062 43.6943 125.119 31.8694 125.119C30.3418 125.119 28.8142 125.184 27.2947 125.079C26.9067 125.079 26.2439 124.513 26.2278 124.181C26.1227 122.234 26.1793 120.342 26.1793 118.257Z" fill="white"/>
<path d="M125.095 76.4609C133.921 77.6652 145.132 86.5157 144.978 100.903C144.865 112.17 135.327 123.534 125.151 124.342C133.177 118.216 137.518 110.279 137.493 100.337C137.469 90.3954 133.121 82.5876 125.095 76.4609Z" fill="white"/>
</g>
<defs>
<clipPath id="clip0_2008_9635">
<rect width="162" height="162" fill="white"/>
</clipPath>
</defs>
</svg>
