<svg width="174" height="33" viewBox="0 0 174 33" fill="none" xmlns="http://www.w3.org/2000/svg">
<path d="M35.1434 25.616V26C34.7594 26 34.4074 25.936 34.0554 25.776C33.9594 26.672 33.8314 27.376 33.6714 27.92C33.2874 29.2 32.5194 30.256 31.3994 31.12C30.2474 31.952 28.9994 32.4 27.6874 32.4C27.0154 32.432 26.3754 32.304 25.7034 32.112C25.7354 32.016 25.7674 31.888 25.7994 31.728C26.5354 31.952 27.2074 31.952 27.8154 31.792C28.3594 31.632 28.8714 31.28 29.3194 30.8C29.7674 30.288 30.0874 29.712 30.3114 29.104C30.5994 28.304 30.7594 27.12 30.7914 25.52C30.7914 25.072 30.8234 23.28 30.8554 20.208C30.8874 17.136 30.8874 15.344 30.9194 14.864C30.9514 13.168 31.2074 11.952 31.6874 11.184C32.0394 10.608 32.5194 10.192 33.1594 9.968C33.7994 9.744 34.3754 9.776 34.9514 10.096C34.6634 10.416 34.4714 10.8 34.3434 11.28C34.2154 11.76 34.1514 12.208 34.1514 12.624C34.1514 13.072 34.1514 13.552 34.1834 14.032C34.2154 15.184 34.2154 17.296 34.1834 20.432V24.784C34.1834 25.008 34.2474 25.2 34.4074 25.36C34.5674 25.52 34.7594 25.616 34.9834 25.616H35.1434ZM36.0567 8.368C35.6087 8.112 35.3527 7.856 35.1927 7.6C35.1927 7.568 35.2567 7.472 35.4167 7.312C35.5127 7.184 35.6407 7.056 35.7367 6.928C35.8007 6.832 35.8647 6.736 35.9607 6.64C35.9927 6.608 36.0567 6.544 36.1527 6.416H36.1847C36.2167 6.384 36.2807 6.32 36.3127 6.288C36.4727 6.096 36.6007 5.968 36.6967 5.872C36.6967 5.872 36.6967 5.872 36.7287 5.84L36.7607 5.808L36.7927 5.776C36.8567 5.84 36.9207 5.936 36.9847 6C37.0807 6.128 37.2407 6.256 37.4327 6.416C37.4647 6.416 37.4647 6.416 37.4967 6.416C37.5287 6.48 37.5927 6.512 37.6567 6.544L37.6887 6.576C37.7207 6.608 37.7527 6.608 37.7847 6.64C37.7847 6.64 37.8167 6.672 37.8807 6.704C37.9127 6.736 37.9447 6.736 37.9447 6.768C38.0087 6.8 38.0087 6.8 38.0407 6.832C38.0727 6.864 38.1047 6.864 38.1047 6.896H38.1367C38.1687 6.928 38.1687 6.928 38.2007 6.96C38.2007 6.96 38.2327 6.992 38.2647 7.024L38.2967 7.056C38.3287 7.088 38.3287 7.088 38.3287 7.088C38.4247 7.216 38.5207 7.344 38.6167 7.472C38.6167 7.504 38.5527 7.6 38.3927 7.76C38.2327 7.952 38.0727 8.176 37.8487 8.432C37.8167 8.464 37.6567 8.624 37.3687 8.912C37.1767 8.656 36.9207 8.432 36.6647 8.304C36.9207 8.528 37.1447 8.752 37.3047 9.008C37.1127 9.2 37.0167 9.296 37.0167 9.296C36.8247 8.976 36.5047 8.688 36.0567 8.368ZM40.1207 6.416C40.1527 6.352 40.1847 6.32 40.2487 6.288C40.4087 6.096 40.5367 5.968 40.6007 5.872C40.6327 5.872 40.6327 5.872 40.6647 5.84C40.6647 5.84 40.6647 5.808 40.6967 5.808L40.7287 5.776C40.7607 5.84 40.8247 5.936 40.9207 6C41.0167 6.128 41.1767 6.256 41.3687 6.416C41.4007 6.416 41.4007 6.416 41.4007 6.416C41.4647 6.48 41.5287 6.512 41.5927 6.544L41.6247 6.576C41.6567 6.608 41.6887 6.608 41.7207 6.64C41.7207 6.64 41.7527 6.672 41.8167 6.704C41.8487 6.736 41.8487 6.736 41.8807 6.768C41.9127 6.8 41.9447 6.8 41.9767 6.832C42.0087 6.864 42.0407 6.864 42.0407 6.896C42.0727 6.928 42.1047 6.928 42.1367 6.96C42.1367 6.96 42.1687 6.992 42.2007 7.024C42.2007 7.024 42.2007 7.056 42.2327 7.056C42.2327 7.088 42.2647 7.088 42.2647 7.088C42.3607 7.216 42.4567 7.344 42.5207 7.472C42.5527 7.504 42.4887 7.6 42.3287 7.76C42.1687 7.952 41.9767 8.176 41.7847 8.432C41.7527 8.464 41.5927 8.624 41.3047 8.912C41.0807 8.656 40.8567 8.432 40.6007 8.304C40.8567 8.528 41.0487 8.752 41.2087 9.008C41.0167 9.2 40.9207 9.296 40.9207 9.296C40.7607 8.976 40.4407 8.688 39.9927 8.368C39.5447 8.112 39.2567 7.856 39.1287 7.6C39.0967 7.568 39.1607 7.472 39.3207 7.312C39.4487 7.184 39.5447 7.056 39.6407 6.928C39.7367 6.832 39.8007 6.736 39.8967 6.64C39.9287 6.608 39.9927 6.544 40.0887 6.416H40.1207ZM42.5207 25.616H42.6807V26C42.0087 26 41.4007 25.84 40.8887 25.456C40.3447 25.072 39.9607 24.592 39.7687 23.984C38.4887 25.296 36.9847 25.968 35.2567 26H35.0967V25.616H35.2247H35.2567H35.3207C35.8647 25.616 36.3447 25.328 36.7927 24.752C37.2087 24.144 37.5607 23.472 37.8487 22.736C38.1047 21.904 38.2647 20.72 38.3287 19.152C38.3287 18.704 38.3607 18 38.3927 17.04C38.3927 16.08 38.4247 15.376 38.4567 14.864C38.4567 13.584 38.5847 12.624 38.8407 11.984L39.0007 11.568C39.0647 11.44 39.1287 11.312 39.1927 11.184C39.5447 10.64 40.0567 10.224 40.6967 10C41.3367 9.776 41.9127 9.808 42.4567 10.096C42.2007 10.448 41.9767 10.832 41.8487 11.312C41.7207 11.76 41.6887 12.208 41.6887 12.656C41.6887 13.104 41.6887 13.552 41.6887 14.032C41.7207 14.96 41.7207 15.888 41.6887 16.752V24.816C41.6887 25.04 41.7847 25.232 41.9447 25.392C42.1047 25.552 42.2967 25.616 42.5207 25.616ZM60.8664 10.128C60.5784 10.448 60.3864 10.864 60.2584 11.312C60.0984 11.792 60.0344 12.24 60.0344 12.656C60.0344 13.104 60.0344 13.584 60.0664 14.064C60.0984 15.824 60.0344 17.488 59.9064 19.12C59.8104 20.208 59.6824 21.008 59.5224 21.552C59.1064 22.832 58.3384 23.888 57.1864 24.752C56.0344 25.584 54.7864 26 53.4744 26C53.0584 26 52.6744 25.968 52.2904 25.904C51.7144 25.808 51.1704 25.648 50.6264 25.424C49.7624 25.808 48.8984 26 48.0344 26C47.6504 26 47.2664 25.968 46.8824 25.904C46.3064 25.808 45.7624 25.648 45.2504 25.456C44.5784 25.744 43.8744 25.936 43.1704 26C43.0424 26 42.9464 26 42.8504 26H42.6904V25.616H42.9144C43.4584 25.616 43.9384 25.328 44.3864 24.752C44.8024 24.144 45.1544 23.472 45.4424 22.736C45.6984 21.904 45.8584 20.72 45.9224 19.152C45.9224 18.736 45.9544 17.968 45.9864 16.784C45.9864 16.784 45.9864 16.784 45.9864 16.752V16.72C46.0184 16.048 46.0184 15.44 46.0504 14.864C46.1144 13.168 46.3704 11.952 46.8504 11.184C47.2024 10.608 47.6824 10.224 48.3224 10C48.9624 9.776 49.5704 9.808 50.1144 10.128C49.8264 10.448 49.6344 10.864 49.5064 11.312C49.3784 11.792 49.3144 12.24 49.3144 12.656C49.3144 13.104 49.3144 13.584 49.3144 14.064C49.3464 15.824 49.3144 17.488 49.1544 19.12C49.0584 20.208 48.9304 21.008 48.7704 21.552C48.2904 23.12 47.2984 24.304 45.7944 25.168C46.1464 25.296 46.4984 25.392 46.8184 25.456C47.1064 25.488 47.3944 25.52 47.6504 25.488C47.8424 25.456 48.0024 25.424 48.1624 25.392C48.7384 25.232 49.2184 24.912 49.6664 24.4C50.1464 23.888 50.4664 23.344 50.6904 22.736C50.9784 21.936 51.1384 20.72 51.2024 19.152C51.2344 18.672 51.2664 17.968 51.2984 17.008C51.3304 16.048 51.3624 15.344 51.3624 14.864C51.4264 13.168 51.6824 11.952 52.1624 11.184C52.5144 10.608 52.9944 10.224 53.6344 10C54.2744 9.776 54.8824 9.808 55.4264 10.128C55.1384 10.448 54.9464 10.864 54.8184 11.312C54.6904 11.792 54.6264 12.24 54.6264 12.656C54.6264 13.104 54.6264 13.584 54.6264 14.064C54.6584 15.824 54.6264 17.488 54.4984 19.12C54.3704 20.208 54.2424 21.008 54.0824 21.552C53.6024 23.088 52.6104 24.304 51.1384 25.136C51.4904 25.264 51.8744 25.36 52.2584 25.456C52.5464 25.488 52.8024 25.52 53.0904 25.488C53.2504 25.456 53.4424 25.424 53.6024 25.392C54.1464 25.232 54.6584 24.912 55.1064 24.4C55.5544 23.888 55.9064 23.344 56.1304 22.736C56.4184 21.936 56.5784 20.72 56.6424 19.152C56.6424 18.672 56.6744 17.968 56.7064 17.008C56.7384 16.048 56.7704 15.344 56.8024 14.864C56.8344 13.168 57.1224 11.952 57.6024 11.184C57.9544 10.608 58.4344 10.224 59.0744 10C59.7144 9.776 60.3224 9.808 60.8664 10.128ZM68.1189 25.648L68.2149 25.616V26H67.7669C66.4869 26 65.2709 25.552 64.1829 24.656C63.0949 23.76 62.3589 22.672 62.0069 21.392C61.8469 20.848 61.7509 20.016 61.6549 18.96C61.6229 18.096 61.5909 16.24 61.6229 13.36C61.6229 10.48 61.6229 8.624 61.6869 7.792C61.7829 7.152 61.7829 6.48 61.6869 5.712C61.5909 4.944 61.3669 4.304 61.0149 3.824C61.5589 3.536 62.1349 3.504 62.7749 3.76C63.4149 3.984 63.8949 4.4 64.2469 4.976C64.6949 5.744 64.9189 6.992 64.9189 8.688C64.9189 9.168 64.9189 10.896 64.9189 13.872C64.9189 16.848 64.9509 18.608 64.9509 19.088C64.9509 20.656 65.0789 21.84 65.3349 22.672C65.7829 23.952 66.3909 24.848 67.2549 25.392C67.5109 25.552 67.7989 25.648 68.1189 25.648ZM81.6944 10.032C81.4384 10.352 81.2464 10.704 81.1184 11.12C80.9904 11.536 80.9264 11.92 80.9264 12.336C80.9264 12.72 80.9264 13.136 80.9264 13.584C80.9904 15.152 80.9584 16.688 80.8304 18.128C80.7344 19.12 80.6064 19.856 80.4464 20.304C80.0624 21.456 79.2944 22.416 78.1744 23.184C77.0224 23.952 75.7744 24.368 74.4304 24.368C73.8544 24.368 73.2464 24.304 72.6384 24.144C72.1264 24.656 71.5184 25.072 70.8784 25.392C70.0784 25.776 69.2784 25.968 68.4784 26H68.1904V25.616C68.3504 25.616 68.5424 25.584 68.7024 25.52C69.1824 25.296 69.5984 24.912 69.9824 24.4C70.3984 23.856 70.6864 23.312 70.9104 22.704C71.1664 21.936 71.3264 20.912 71.3584 19.632C71.3904 19.024 71.3904 18.384 71.4224 17.744C71.4544 17.424 71.4544 17.072 71.4864 16.72C71.5824 15.632 71.7104 14.832 71.8704 14.32C72.1264 13.456 72.5424 12.72 73.1504 12.016C73.7584 11.344 74.4624 10.8 75.2944 10.416C76.1264 10 76.9904 9.808 77.8864 9.808C78.4624 9.808 79.0704 9.872 79.6464 10.032C80.4144 9.712 81.0864 9.712 81.6944 10.032ZM78.4624 11.024C78.6224 10.768 78.8464 10.544 79.1024 10.352C78.6224 10.288 78.1744 10.32 77.7584 10.448C77.1824 10.608 76.7024 10.928 76.2544 11.44C75.8064 11.92 75.4544 12.496 75.2304 13.104C74.9744 13.872 74.8144 14.896 74.7824 16.176C74.7824 16.816 74.7504 17.424 74.7184 18.064C74.7184 18.384 74.6864 18.736 74.6544 19.088C74.5584 20.176 74.4304 20.976 74.2704 21.52C74.0144 22.352 73.5664 23.152 72.9584 23.824C73.5344 23.952 74.0784 23.92 74.5904 23.792C75.1344 23.664 75.6144 23.344 76.0624 22.896C76.5104 22.448 76.8624 21.936 77.0864 21.392C77.3744 20.656 77.5344 19.6 77.5664 18.192C77.5664 17.776 77.5984 17.136 77.6304 16.272C77.6624 15.408 77.6624 14.768 77.6944 14.32C77.7264 13.168 77.8544 12.304 78.0784 11.728L78.2384 11.344C78.3024 11.248 78.3664 11.12 78.4624 11.024ZM97.5294 17.488C97.5294 17.584 97.5294 17.712 97.5614 17.872C97.6254 20.848 97.5934 23.376 97.4334 25.456C97.3374 26.576 97.2094 27.376 97.0494 27.888C96.6654 29.168 95.8974 30.256 94.7774 31.088C93.6254 31.952 92.3774 32.4 91.0654 32.4C90.3934 32.4 89.7534 32.304 89.0814 32.112C89.1134 32.016 89.1454 31.888 89.1774 31.728C89.9134 31.952 90.5854 31.952 91.1934 31.76C91.7374 31.6 92.2494 31.28 92.6974 30.768C93.1454 30.288 93.4654 29.712 93.6894 29.104C93.9774 28.304 94.1374 27.088 94.1694 25.52C94.1694 25.488 94.1694 25.456 94.1694 25.392C94.1694 25.36 94.1694 25.296 94.1694 25.264C94.1694 25.2 94.1694 25.136 94.1694 25.104C93.1774 25.712 92.1534 26 91.0654 26C90.4574 26.032 89.8494 25.936 89.2734 25.776C88.5054 26.128 87.8334 26.128 87.2254 25.744C87.5134 25.424 87.7054 25.04 87.8334 24.56C87.9614 24.112 88.0254 23.632 88.0254 23.216C88.0254 22.768 87.9934 22.32 87.9934 21.808C87.9614 20.08 87.9934 18.384 88.0894 16.752C88.1854 15.664 88.3134 14.864 88.4734 14.352C88.8574 13.072 89.6254 11.984 90.7774 11.152C91.9294 10.288 93.1454 9.872 94.4894 9.84C95.0974 9.84 95.7054 9.936 96.2814 10.096C97.0494 9.744 97.7214 9.744 98.3294 10.128C98.0414 10.448 97.8494 10.832 97.7214 11.312C97.5934 11.76 97.5294 12.208 97.5294 12.656C97.5294 13.104 97.5294 13.552 97.5614 14.032C97.5934 15.216 97.5614 16.368 97.5294 17.488ZM93.6894 22.736C93.9774 21.904 94.1374 20.72 94.1694 19.152C94.1694 18.704 94.2014 18 94.2334 17.04C94.2654 16.08 94.2654 15.376 94.2974 14.864C94.3294 13.584 94.4574 12.624 94.6814 11.984L94.8414 11.568C94.9054 11.44 94.9694 11.312 95.0654 11.184C95.2574 10.896 95.4814 10.608 95.8014 10.384C95.2574 10.32 94.8094 10.352 94.3614 10.48C93.8174 10.64 93.3054 10.96 92.8574 11.472C92.4094 11.984 92.0894 12.528 91.8654 13.136C91.5774 13.936 91.4174 15.152 91.3854 16.72C91.3534 17.168 91.3534 17.872 91.3214 18.832C91.2894 19.76 91.2574 20.496 91.2574 20.976C91.2254 22.288 91.0974 23.248 90.8734 23.888L90.6814 24.304C90.6494 24.432 90.5534 24.56 90.4894 24.656C90.2974 24.976 90.0734 25.232 89.7534 25.456C90.2654 25.552 90.7454 25.52 91.1934 25.392C91.7374 25.232 92.2494 24.88 92.6974 24.4C93.1454 23.888 93.4654 23.344 93.6894 22.736ZM105.268 25.616V26C104.884 26 104.532 25.936 104.18 25.776C104.084 26.672 103.956 27.376 103.796 27.92C103.412 29.2 102.644 30.256 101.524 31.12C100.372 31.952 99.1244 32.4 97.8124 32.4C97.1404 32.432 96.5004 32.304 95.8284 32.112C95.8604 32.016 95.8924 31.888 95.9244 31.728C96.6604 31.952 97.3324 31.952 97.9404 31.792C98.4844 31.632 98.9964 31.28 99.4444 30.8C99.8924 30.288 100.212 29.712 100.436 29.104C100.724 28.304 100.884 27.12 100.916 25.52C100.916 25.072 100.948 23.28 100.98 20.208C101.012 17.136 101.012 15.344 101.044 14.864C101.076 13.168 101.332 11.952 101.812 11.184C102.164 10.608 102.644 10.192 103.284 9.968C103.924 9.744 104.5 9.776 105.076 10.096C104.788 10.416 104.596 10.8 104.468 11.28C104.34 11.76 104.276 12.208 104.276 12.624C104.276 13.072 104.276 13.552 104.308 14.032C104.34 15.184 104.34 17.296 104.308 20.432V24.784C104.308 25.008 104.372 25.2 104.532 25.36C104.692 25.52 104.884 25.616 105.108 25.616H105.268ZM106.182 8.368C105.734 8.112 105.478 7.856 105.318 7.6C105.318 7.568 105.382 7.472 105.542 7.312C105.638 7.184 105.766 7.056 105.862 6.928C105.926 6.832 105.99 6.736 106.086 6.64C106.118 6.608 106.182 6.544 106.278 6.416H106.31C106.342 6.384 106.406 6.32 106.438 6.288C106.598 6.096 106.726 5.968 106.822 5.872C106.822 5.872 106.822 5.872 106.854 5.84L106.886 5.808L106.918 5.776C106.982 5.84 107.046 5.936 107.11 6C107.206 6.128 107.366 6.256 107.558 6.416C107.59 6.416 107.59 6.416 107.622 6.416C107.654 6.48 107.718 6.512 107.782 6.544L107.814 6.576C107.846 6.608 107.878 6.608 107.91 6.64C107.91 6.64 107.942 6.672 108.006 6.704C108.038 6.736 108.07 6.736 108.07 6.768C108.134 6.8 108.134 6.8 108.166 6.832C108.198 6.864 108.23 6.864 108.23 6.896H108.262C108.294 6.928 108.294 6.928 108.326 6.96C108.326 6.96 108.358 6.992 108.39 7.024L108.422 7.056C108.454 7.088 108.454 7.088 108.454 7.088C108.55 7.216 108.646 7.344 108.742 7.472C108.742 7.504 108.678 7.6 108.518 7.76C108.358 7.952 108.198 8.176 107.974 8.432C107.942 8.464 107.782 8.624 107.494 8.912C107.302 8.656 107.046 8.432 106.79 8.304C107.046 8.528 107.27 8.752 107.43 9.008C107.238 9.2 107.142 9.296 107.142 9.296C106.95 8.976 106.63 8.688 106.182 8.368ZM110.246 6.416C110.278 6.352 110.31 6.32 110.374 6.288C110.534 6.096 110.662 5.968 110.726 5.872C110.758 5.872 110.758 5.872 110.79 5.84C110.79 5.84 110.79 5.808 110.822 5.808L110.854 5.776C110.886 5.84 110.95 5.936 111.046 6C111.142 6.128 111.302 6.256 111.494 6.416C111.526 6.416 111.526 6.416 111.526 6.416C111.59 6.48 111.654 6.512 111.718 6.544L111.75 6.576C111.782 6.608 111.814 6.608 111.846 6.64C111.846 6.64 111.878 6.672 111.942 6.704C111.974 6.736 111.974 6.736 112.006 6.768C112.038 6.8 112.07 6.8 112.102 6.832C112.134 6.864 112.166 6.864 112.166 6.896C112.198 6.928 112.23 6.928 112.262 6.96C112.262 6.96 112.294 6.992 112.326 7.024C112.326 7.024 112.326 7.056 112.358 7.056C112.358 7.088 112.39 7.088 112.39 7.088C112.486 7.216 112.582 7.344 112.646 7.472C112.678 7.504 112.614 7.6 112.454 7.76C112.294 7.952 112.102 8.176 111.91 8.432C111.878 8.464 111.718 8.624 111.43 8.912C111.206 8.656 110.982 8.432 110.726 8.304C110.982 8.528 111.174 8.752 111.334 9.008C111.142 9.2 111.046 9.296 111.046 9.296C110.886 8.976 110.566 8.688 110.118 8.368C109.67 8.112 109.382 7.856 109.254 7.6C109.222 7.568 109.286 7.472 109.446 7.312C109.574 7.184 109.67 7.056 109.766 6.928C109.862 6.832 109.926 6.736 110.022 6.64C110.054 6.608 110.118 6.544 110.214 6.416H110.246ZM112.646 25.616H112.806V26C112.134 26 111.526 25.84 111.014 25.456C110.47 25.072 110.086 24.592 109.894 23.984C108.614 25.296 107.11 25.968 105.382 26H105.222V25.616H105.35H105.382H105.446C105.99 25.616 106.47 25.328 106.918 24.752C107.334 24.144 107.686 23.472 107.974 22.736C108.23 21.904 108.39 20.72 108.454 19.152C108.454 18.704 108.486 18 108.518 17.04C108.518 16.08 108.55 15.376 108.582 14.864C108.582 13.584 108.71 12.624 108.966 11.984L109.126 11.568C109.19 11.44 109.254 11.312 109.318 11.184C109.67 10.64 110.182 10.224 110.822 10C111.462 9.776 112.038 9.808 112.582 10.096C112.326 10.448 112.102 10.832 111.974 11.312C111.846 11.76 111.814 12.208 111.814 12.656C111.814 13.104 111.814 13.552 111.814 14.032C111.846 14.96 111.846 15.888 111.814 16.752V24.816C111.814 25.04 111.91 25.232 112.07 25.392C112.23 25.552 112.422 25.616 112.646 25.616ZM116.175 27.824C116.303 27.952 116.367 28.048 116.463 28.208C116.463 28.24 116.399 28.336 116.239 28.496C116.079 28.688 115.919 28.912 115.695 29.136C115.663 29.168 115.503 29.36 115.215 29.648C115.023 29.36 114.767 29.168 114.511 29.008C114.767 29.232 114.991 29.488 115.151 29.712C114.959 29.936 114.863 30.032 114.863 30.032C114.671 29.712 114.351 29.392 113.903 29.104C113.487 28.816 113.199 28.56 113.039 28.304C113.039 28.272 113.103 28.176 113.263 28.016C113.359 27.888 113.487 27.76 113.583 27.632C113.647 27.536 113.743 27.472 113.807 27.376C113.839 27.344 113.903 27.248 114.031 27.152C114.031 27.152 114.031 27.152 114.031 27.12C114.063 27.088 114.127 27.056 114.159 26.992C114.319 26.832 114.447 26.704 114.543 26.608C114.543 26.608 114.543 26.576 114.575 26.576C114.575 26.544 114.607 26.544 114.607 26.544L114.639 26.48C114.703 26.576 114.767 26.64 114.831 26.736C114.927 26.864 115.087 26.992 115.279 27.12C115.311 27.12 115.311 27.152 115.343 27.152C115.375 27.184 115.439 27.216 115.503 27.28H115.535C115.567 27.312 115.599 27.344 115.631 27.344C115.663 27.376 115.663 27.376 115.727 27.408C115.759 27.44 115.791 27.472 115.823 27.472C115.855 27.504 115.855 27.536 115.887 27.536C115.919 27.568 115.951 27.6 115.951 27.6C116.015 27.632 116.015 27.664 116.047 27.664C116.047 27.696 116.079 27.728 116.111 27.76C116.111 27.76 116.143 27.76 116.143 27.792C116.175 27.792 116.175 27.824 116.175 27.824ZM119.919 27.824C120.047 27.952 120.111 28.048 120.207 28.208C120.207 28.24 120.143 28.336 119.983 28.496C119.823 28.688 119.663 28.912 119.439 29.136C119.407 29.168 119.247 29.36 118.959 29.648C118.767 29.36 118.511 29.168 118.255 29.008C118.511 29.232 118.735 29.488 118.895 29.712C118.703 29.936 118.607 30.032 118.607 30.032C118.415 29.712 118.095 29.392 117.647 29.104C117.231 28.816 116.943 28.56 116.783 28.304C116.783 28.272 116.847 28.176 117.007 28.016C117.103 27.888 117.231 27.76 117.327 27.632C117.391 27.568 117.487 27.472 117.551 27.376C117.583 27.344 117.647 27.248 117.775 27.152C117.775 27.12 117.775 27.12 117.775 27.12C117.839 27.088 117.871 27.056 117.903 26.992C118.063 26.832 118.191 26.704 118.287 26.608C118.287 26.608 118.287 26.576 118.319 26.576C118.319 26.544 118.351 26.544 118.351 26.544L118.383 26.48C118.447 26.576 118.511 26.64 118.575 26.736C118.671 26.864 118.831 26.992 119.023 27.12C119.055 27.12 119.055 27.152 119.087 27.152C119.119 27.184 119.183 27.216 119.247 27.28C119.279 27.28 119.279 27.28 119.311 27.28C119.343 27.312 119.343 27.344 119.375 27.344C119.407 27.376 119.439 27.376 119.471 27.408C119.503 27.44 119.535 27.472 119.567 27.472C119.599 27.504 119.631 27.536 119.631 27.536C119.663 27.568 119.695 27.6 119.695 27.6C119.759 27.632 119.759 27.664 119.791 27.664C119.791 27.696 119.823 27.728 119.855 27.76C119.855 27.76 119.887 27.76 119.887 27.792C119.919 27.792 119.919 27.824 119.919 27.824ZM120.239 25.616H120.399V26C119.727 26 119.119 25.84 118.607 25.456C118.063 25.072 117.679 24.592 117.487 23.984C116.207 25.296 114.703 25.968 112.975 26H112.815V25.616H112.943H112.975H113.039C113.583 25.616 114.063 25.328 114.511 24.752C114.927 24.144 115.279 23.472 115.567 22.736C115.823 21.904 115.983 20.72 116.047 19.152C116.047 18.704 116.079 18 116.111 17.04C116.111 16.08 116.143 15.376 116.175 14.864C116.175 13.584 116.303 12.624 116.559 11.984L116.719 11.568C116.783 11.44 116.847 11.312 116.911 11.184C117.263 10.64 117.775 10.224 118.415 10C119.055 9.776 119.631 9.808 120.175 10.096C119.919 10.448 119.695 10.832 119.567 11.312C119.439 11.76 119.407 12.208 119.407 12.656C119.407 13.104 119.407 13.552 119.407 14.032C119.439 14.96 119.439 15.888 119.407 16.752V24.816C119.407 25.04 119.503 25.232 119.663 25.392C119.823 25.552 120.015 25.616 120.239 25.616ZM127.769 10.096C127.513 10.448 127.289 10.832 127.161 11.312C127.033 11.76 127.001 12.208 127.001 12.656C127.001 13.104 127.001 13.552 127.001 14.032C127.065 15.792 127.033 17.488 126.905 19.088C126.809 20.176 126.681 20.976 126.521 21.52C126.137 22.8 125.369 23.856 124.249 24.688C123.129 25.552 121.881 26 120.569 26H120.409V25.616H120.537H120.633C121.177 25.616 121.657 25.328 122.105 24.752C122.521 24.144 122.873 23.472 123.161 22.736C123.417 21.904 123.577 20.72 123.641 19.152C123.641 18.704 123.673 18 123.705 17.04C123.705 16.08 123.737 15.376 123.769 14.864C123.769 13.584 123.897 12.624 124.153 11.984L124.313 11.568C124.377 11.44 124.441 11.312 124.505 11.184C124.857 10.64 125.369 10.224 126.009 10C126.649 9.776 127.225 9.808 127.769 10.096ZM125.529 27.696C125.625 27.824 125.721 27.952 125.785 28.08C125.817 28.112 125.753 28.208 125.593 28.368C125.433 28.56 125.241 28.784 125.017 29.04C124.985 29.072 124.825 29.232 124.569 29.52C124.345 29.264 124.121 29.04 123.833 28.912C124.121 29.136 124.313 29.36 124.473 29.616C124.281 29.808 124.185 29.904 124.185 29.904C123.993 29.584 123.673 29.264 123.225 28.976C122.809 28.72 122.521 28.432 122.393 28.208C122.361 28.176 122.425 28.08 122.585 27.92C122.713 27.76 122.809 27.632 122.905 27.536C123.001 27.44 123.065 27.344 123.161 27.248C123.161 27.216 123.257 27.152 123.353 27.024C123.385 27.024 123.385 27.024 123.385 26.992C123.417 26.96 123.449 26.928 123.481 26.896C123.673 26.704 123.801 26.576 123.865 26.48C123.865 26.48 123.897 26.48 123.897 26.448C123.929 26.448 123.929 26.416 123.929 26.416L123.993 26.384C124.025 26.448 124.089 26.544 124.153 26.608C124.281 26.736 124.441 26.864 124.633 26.992C124.633 27.024 124.665 27.024 124.665 27.024C124.729 27.088 124.761 27.12 124.825 27.152C124.857 27.152 124.857 27.184 124.889 27.184C124.921 27.216 124.953 27.216 124.985 27.248C124.985 27.248 125.017 27.28 125.049 27.312C125.081 27.312 125.113 27.344 125.145 27.376C125.177 27.376 125.209 27.408 125.209 27.44C125.273 27.44 125.273 27.472 125.305 27.504C125.337 27.536 125.369 27.536 125.369 27.568C125.401 27.568 125.433 27.6 125.465 27.632C125.465 27.632 125.465 27.664 125.497 27.664C125.497 27.696 125.497 27.696 125.529 27.696Z" fill="black"/>
<path d="M35.1434 25.616V26C34.7594 26 34.4074 25.936 34.0554 25.776C33.9594 26.672 33.8314 27.376 33.6714 27.92C33.2874 29.2 32.5194 30.256 31.3994 31.12C30.2474 31.952 28.9994 32.4 27.6874 32.4C27.0154 32.432 26.3754 32.304 25.7034 32.112C25.7354 32.016 25.7674 31.888 25.7994 31.728C26.5354 31.952 27.2074 31.952 27.8154 31.792C28.3594 31.632 28.8714 31.28 29.3194 30.8C29.7674 30.288 30.0874 29.712 30.3114 29.104C30.5994 28.304 30.7594 27.12 30.7914 25.52C30.7914 25.072 30.8234 23.28 30.8554 20.208C30.8874 17.136 30.8874 15.344 30.9194 14.864C30.9514 13.168 31.2074 11.952 31.6874 11.184C32.0394 10.608 32.5194 10.192 33.1594 9.968C33.7994 9.744 34.3754 9.776 34.9514 10.096C34.6634 10.416 34.4714 10.8 34.3434 11.28C34.2154 11.76 34.1514 12.208 34.1514 12.624C34.1514 13.072 34.1514 13.552 34.1834 14.032C34.2154 15.184 34.2154 17.296 34.1834 20.432V24.784C34.1834 25.008 34.2474 25.2 34.4074 25.36C34.5674 25.52 34.7594 25.616 34.9834 25.616H35.1434ZM36.0567 8.368C35.6087 8.112 35.3527 7.856 35.1927 7.6C35.1927 7.568 35.2567 7.472 35.4167 7.312C35.5127 7.184 35.6407 7.056 35.7367 6.928C35.8007 6.832 35.8647 6.736 35.9607 6.64C35.9927 6.608 36.0567 6.544 36.1527 6.416H36.1847C36.2167 6.384 36.2807 6.32 36.3127 6.288C36.4727 6.096 36.6007 5.968 36.6967 5.872C36.6967 5.872 36.6967 5.872 36.7287 5.84L36.7607 5.808L36.7927 5.776C36.8567 5.84 36.9207 5.936 36.9847 6C37.0807 6.128 37.2407 6.256 37.4327 6.416C37.4647 6.416 37.4647 6.416 37.4967 6.416C37.5287 6.48 37.5927 6.512 37.6567 6.544L37.6887 6.576C37.7207 6.608 37.7527 6.608 37.7847 6.64C37.7847 6.64 37.8167 6.672 37.8807 6.704C37.9127 6.736 37.9447 6.736 37.9447 6.768C38.0087 6.8 38.0087 6.8 38.0407 6.832C38.0727 6.864 38.1047 6.864 38.1047 6.896H38.1367C38.1687 6.928 38.1687 6.928 38.2007 6.96C38.2007 6.96 38.2327 6.992 38.2647 7.024L38.2967 7.056C38.3287 7.088 38.3287 7.088 38.3287 7.088C38.4247 7.216 38.5207 7.344 38.6167 7.472C38.6167 7.504 38.5527 7.6 38.3927 7.76C38.2327 7.952 38.0727 8.176 37.8487 8.432C37.8167 8.464 37.6567 8.624 37.3687 8.912C37.1767 8.656 36.9207 8.432 36.6647 8.304C36.9207 8.528 37.1447 8.752 37.3047 9.008C37.1127 9.2 37.0167 9.296 37.0167 9.296C36.8247 8.976 36.5047 8.688 36.0567 8.368ZM40.1207 6.416C40.1527 6.352 40.1847 6.32 40.2487 6.288C40.4087 6.096 40.5367 5.968 40.6007 5.872C40.6327 5.872 40.6327 5.872 40.6647 5.84C40.6647 5.84 40.6647 5.808 40.6967 5.808L40.7287 5.776C40.7607 5.84 40.8247 5.936 40.9207 6C41.0167 6.128 41.1767 6.256 41.3687 6.416C41.4007 6.416 41.4007 6.416 41.4007 6.416C41.4647 6.48 41.5287 6.512 41.5927 6.544L41.6247 6.576C41.6567 6.608 41.6887 6.608 41.7207 6.64C41.7207 6.64 41.7527 6.672 41.8167 6.704C41.8487 6.736 41.8487 6.736 41.8807 6.768C41.9127 6.8 41.9447 6.8 41.9767 6.832C42.0087 6.864 42.0407 6.864 42.0407 6.896C42.0727 6.928 42.1047 6.928 42.1367 6.96C42.1367 6.96 42.1687 6.992 42.2007 7.024C42.2007 7.024 42.2007 7.056 42.2327 7.056C42.2327 7.088 42.2647 7.088 42.2647 7.088C42.3607 7.216 42.4567 7.344 42.5207 7.472C42.5527 7.504 42.4887 7.6 42.3287 7.76C42.1687 7.952 41.9767 8.176 41.7847 8.432C41.7527 8.464 41.5927 8.624 41.3047 8.912C41.0807 8.656 40.8567 8.432 40.6007 8.304C40.8567 8.528 41.0487 8.752 41.2087 9.008C41.0167 9.2 40.9207 9.296 40.9207 9.296C40.7607 8.976 40.4407 8.688 39.9927 8.368C39.5447 8.112 39.2567 7.856 39.1287 7.6C39.0967 7.568 39.1607 7.472 39.3207 7.312C39.4487 7.184 39.5447 7.056 39.6407 6.928C39.7367 6.832 39.8007 6.736 39.8967 6.64C39.9287 6.608 39.9927 6.544 40.0887 6.416H40.1207ZM42.5207 25.616H42.6807V26C42.0087 26 41.4007 25.84 40.8887 25.456C40.3447 25.072 39.9607 24.592 39.7687 23.984C38.4887 25.296 36.9847 25.968 35.2567 26H35.0967V25.616H35.2247H35.2567H35.3207C35.8647 25.616 36.3447 25.328 36.7927 24.752C37.2087 24.144 37.5607 23.472 37.8487 22.736C38.1047 21.904 38.2647 20.72 38.3287 19.152C38.3287 18.704 38.3607 18 38.3927 17.04C38.3927 16.08 38.4247 15.376 38.4567 14.864C38.4567 13.584 38.5847 12.624 38.8407 11.984L39.0007 11.568C39.0647 11.44 39.1287 11.312 39.1927 11.184C39.5447 10.64 40.0567 10.224 40.6967 10C41.3367 9.776 41.9127 9.808 42.4567 10.096C42.2007 10.448 41.9767 10.832 41.8487 11.312C41.7207 11.76 41.6887 12.208 41.6887 12.656C41.6887 13.104 41.6887 13.552 41.6887 14.032C41.7207 14.96 41.7207 15.888 41.6887 16.752V24.816C41.6887 25.04 41.7847 25.232 41.9447 25.392C42.1047 25.552 42.2967 25.616 42.5207 25.616ZM60.8664 10.128C60.5784 10.448 60.3864 10.864 60.2584 11.312C60.0984 11.792 60.0344 12.24 60.0344 12.656C60.0344 13.104 60.0344 13.584 60.0664 14.064C60.0984 15.824 60.0344 17.488 59.9064 19.12C59.8104 20.208 59.6824 21.008 59.5224 21.552C59.1064 22.832 58.3384 23.888 57.1864 24.752C56.0344 25.584 54.7864 26 53.4744 26C53.0584 26 52.6744 25.968 52.2904 25.904C51.7144 25.808 51.1704 25.648 50.6264 25.424C49.7624 25.808 48.8984 26 48.0344 26C47.6504 26 47.2664 25.968 46.8824 25.904C46.3064 25.808 45.7624 25.648 45.2504 25.456C44.5784 25.744 43.8744 25.936 43.1704 26C43.0424 26 42.9464 26 42.8504 26H42.6904V25.616H42.9144C43.4584 25.616 43.9384 25.328 44.3864 24.752C44.8024 24.144 45.1544 23.472 45.4424 22.736C45.6984 21.904 45.8584 20.72 45.9224 19.152C45.9224 18.736 45.9544 17.968 45.9864 16.784C45.9864 16.784 45.9864 16.784 45.9864 16.752V16.72C46.0184 16.048 46.0184 15.44 46.0504 14.864C46.1144 13.168 46.3704 11.952 46.8504 11.184C47.2024 10.608 47.6824 10.224 48.3224 10C48.9624 9.776 49.5704 9.808 50.1144 10.128C49.8264 10.448 49.6344 10.864 49.5064 11.312C49.3784 11.792 49.3144 12.24 49.3144 12.656C49.3144 13.104 49.3144 13.584 49.3144 14.064C49.3464 15.824 49.3144 17.488 49.1544 19.12C49.0584 20.208 48.9304 21.008 48.7704 21.552C48.2904 23.12 47.2984 24.304 45.7944 25.168C46.1464 25.296 46.4984 25.392 46.8184 25.456C47.1064 25.488 47.3944 25.52 47.6504 25.488C47.8424 25.456 48.0024 25.424 48.1624 25.392C48.7384 25.232 49.2184 24.912 49.6664 24.4C50.1464 23.888 50.4664 23.344 50.6904 22.736C50.9784 21.936 51.1384 20.72 51.2024 19.152C51.2344 18.672 51.2664 17.968 51.2984 17.008C51.3304 16.048 51.3624 15.344 51.3624 14.864C51.4264 13.168 51.6824 11.952 52.1624 11.184C52.5144 10.608 52.9944 10.224 53.6344 10C54.2744 9.776 54.8824 9.808 55.4264 10.128C55.1384 10.448 54.9464 10.864 54.8184 11.312C54.6904 11.792 54.6264 12.24 54.6264 12.656C54.6264 13.104 54.6264 13.584 54.6264 14.064C54.6584 15.824 54.6264 17.488 54.4984 19.12C54.3704 20.208 54.2424 21.008 54.0824 21.552C53.6024 23.088 52.6104 24.304 51.1384 25.136C51.4904 25.264 51.8744 25.36 52.2584 25.456C52.5464 25.488 52.8024 25.52 53.0904 25.488C53.2504 25.456 53.4424 25.424 53.6024 25.392C54.1464 25.232 54.6584 24.912 55.1064 24.4C55.5544 23.888 55.9064 23.344 56.1304 22.736C56.4184 21.936 56.5784 20.72 56.6424 19.152C56.6424 18.672 56.6744 17.968 56.7064 17.008C56.7384 16.048 56.7704 15.344 56.8024 14.864C56.8344 13.168 57.1224 11.952 57.6024 11.184C57.9544 10.608 58.4344 10.224 59.0744 10C59.7144 9.776 60.3224 9.808 60.8664 10.128ZM68.1189 25.648L68.2149 25.616V26H67.7669C66.4869 26 65.2709 25.552 64.1829 24.656C63.0949 23.76 62.3589 22.672 62.0069 21.392C61.8469 20.848 61.7509 20.016 61.6549 18.96C61.6229 18.096 61.5909 16.24 61.6229 13.36C61.6229 10.48 61.6229 8.624 61.6869 7.792C61.7829 7.152 61.7829 6.48 61.6869 5.712C61.5909 4.944 61.3669 4.304 61.0149 3.824C61.5589 3.536 62.1349 3.504 62.7749 3.76C63.4149 3.984 63.8949 4.4 64.2469 4.976C64.6949 5.744 64.9189 6.992 64.9189 8.688C64.9189 9.168 64.9189 10.896 64.9189 13.872C64.9189 16.848 64.9509 18.608 64.9509 19.088C64.9509 20.656 65.0789 21.84 65.3349 22.672C65.7829 23.952 66.3909 24.848 67.2549 25.392C67.5109 25.552 67.7989 25.648 68.1189 25.648ZM81.6944 10.032C81.4384 10.352 81.2464 10.704 81.1184 11.12C80.9904 11.536 80.9264 11.92 80.9264 12.336C80.9264 12.72 80.9264 13.136 80.9264 13.584C80.9904 15.152 80.9584 16.688 80.8304 18.128C80.7344 19.12 80.6064 19.856 80.4464 20.304C80.0624 21.456 79.2944 22.416 78.1744 23.184C77.0224 23.952 75.7744 24.368 74.4304 24.368C73.8544 24.368 73.2464 24.304 72.6384 24.144C72.1264 24.656 71.5184 25.072 70.8784 25.392C70.0784 25.776 69.2784 25.968 68.4784 26H68.1904V25.616C68.3504 25.616 68.5424 25.584 68.7024 25.52C69.1824 25.296 69.5984 24.912 69.9824 24.4C70.3984 23.856 70.6864 23.312 70.9104 22.704C71.1664 21.936 71.3264 20.912 71.3584 19.632C71.3904 19.024 71.3904 18.384 71.4224 17.744C71.4544 17.424 71.4544 17.072 71.4864 16.72C71.5824 15.632 71.7104 14.832 71.8704 14.32C72.1264 13.456 72.5424 12.72 73.1504 12.016C73.7584 11.344 74.4624 10.8 75.2944 10.416C76.1264 10 76.9904 9.808 77.8864 9.808C78.4624 9.808 79.0704 9.872 79.6464 10.032C80.4144 9.712 81.0864 9.712 81.6944 10.032ZM78.4624 11.024C78.6224 10.768 78.8464 10.544 79.1024 10.352C78.6224 10.288 78.1744 10.32 77.7584 10.448C77.1824 10.608 76.7024 10.928 76.2544 11.44C75.8064 11.92 75.4544 12.496 75.2304 13.104C74.9744 13.872 74.8144 14.896 74.7824 16.176C74.7824 16.816 74.7504 17.424 74.7184 18.064C74.7184 18.384 74.6864 18.736 74.6544 19.088C74.5584 20.176 74.4304 20.976 74.2704 21.52C74.0144 22.352 73.5664 23.152 72.9584 23.824C73.5344 23.952 74.0784 23.92 74.5904 23.792C75.1344 23.664 75.6144 23.344 76.0624 22.896C76.5104 22.448 76.8624 21.936 77.0864 21.392C77.3744 20.656 77.5344 19.6 77.5664 18.192C77.5664 17.776 77.5984 17.136 77.6304 16.272C77.6624 15.408 77.6624 14.768 77.6944 14.32C77.7264 13.168 77.8544 12.304 78.0784 11.728L78.2384 11.344C78.3024 11.248 78.3664 11.12 78.4624 11.024ZM97.5294 17.488C97.5294 17.584 97.5294 17.712 97.5614 17.872C97.6254 20.848 97.5934 23.376 97.4334 25.456C97.3374 26.576 97.2094 27.376 97.0494 27.888C96.6654 29.168 95.8974 30.256 94.7774 31.088C93.6254 31.952 92.3774 32.4 91.0654 32.4C90.3934 32.4 89.7534 32.304 89.0814 32.112C89.1134 32.016 89.1454 31.888 89.1774 31.728C89.9134 31.952 90.5854 31.952 91.1934 31.76C91.7374 31.6 92.2494 31.28 92.6974 30.768C93.1454 30.288 93.4654 29.712 93.6894 29.104C93.9774 28.304 94.1374 27.088 94.1694 25.52C94.1694 25.488 94.1694 25.456 94.1694 25.392C94.1694 25.36 94.1694 25.296 94.1694 25.264C94.1694 25.2 94.1694 25.136 94.1694 25.104C93.1774 25.712 92.1534 26 91.0654 26C90.4574 26.032 89.8494 25.936 89.2734 25.776C88.5054 26.128 87.8334 26.128 87.2254 25.744C87.5134 25.424 87.7054 25.04 87.8334 24.56C87.9614 24.112 88.0254 23.632 88.0254 23.216C88.0254 22.768 87.9934 22.32 87.9934 21.808C87.9614 20.08 87.9934 18.384 88.0894 16.752C88.1854 15.664 88.3134 14.864 88.4734 14.352C88.8574 13.072 89.6254 11.984 90.7774 11.152C91.9294 10.288 93.1454 9.872 94.4894 9.84C95.0974 9.84 95.7054 9.936 96.2814 10.096C97.0494 9.744 97.7214 9.744 98.3294 10.128C98.0414 10.448 97.8494 10.832 97.7214 11.312C97.5934 11.76 97.5294 12.208 97.5294 12.656C97.5294 13.104 97.5294 13.552 97.5614 14.032C97.5934 15.216 97.5614 16.368 97.5294 17.488ZM93.6894 22.736C93.9774 21.904 94.1374 20.72 94.1694 19.152C94.1694 18.704 94.2014 18 94.2334 17.04C94.2654 16.08 94.2654 15.376 94.2974 14.864C94.3294 13.584 94.4574 12.624 94.6814 11.984L94.8414 11.568C94.9054 11.44 94.9694 11.312 95.0654 11.184C95.2574 10.896 95.4814 10.608 95.8014 10.384C95.2574 10.32 94.8094 10.352 94.3614 10.48C93.8174 10.64 93.3054 10.96 92.8574 11.472C92.4094 11.984 92.0894 12.528 91.8654 13.136C91.5774 13.936 91.4174 15.152 91.3854 16.72C91.3534 17.168 91.3534 17.872 91.3214 18.832C91.2894 19.76 91.2574 20.496 91.2574 20.976C91.2254 22.288 91.0974 23.248 90.8734 23.888L90.6814 24.304C90.6494 24.432 90.5534 24.56 90.4894 24.656C90.2974 24.976 90.0734 25.232 89.7534 25.456C90.2654 25.552 90.7454 25.52 91.1934 25.392C91.7374 25.232 92.2494 24.88 92.6974 24.4C93.1454 23.888 93.4654 23.344 93.6894 22.736ZM105.268 25.616V26C104.884 26 104.532 25.936 104.18 25.776C104.084 26.672 103.956 27.376 103.796 27.92C103.412 29.2 102.644 30.256 101.524 31.12C100.372 31.952 99.1244 32.4 97.8124 32.4C97.1404 32.432 96.5004 32.304 95.8284 32.112C95.8604 32.016 95.8924 31.888 95.9244 31.728C96.6604 31.952 97.3324 31.952 97.9404 31.792C98.4844 31.632 98.9964 31.28 99.4444 30.8C99.8924 30.288 100.212 29.712 100.436 29.104C100.724 28.304 100.884 27.12 100.916 25.52C100.916 25.072 100.948 23.28 100.98 20.208C101.012 17.136 101.012 15.344 101.044 14.864C101.076 13.168 101.332 11.952 101.812 11.184C102.164 10.608 102.644 10.192 103.284 9.968C103.924 9.744 104.5 9.776 105.076 10.096C104.788 10.416 104.596 10.8 104.468 11.28C104.34 11.76 104.276 12.208 104.276 12.624C104.276 13.072 104.276 13.552 104.308 14.032C104.34 15.184 104.34 17.296 104.308 20.432V24.784C104.308 25.008 104.372 25.2 104.532 25.36C104.692 25.52 104.884 25.616 105.108 25.616H105.268ZM106.182 8.368C105.734 8.112 105.478 7.856 105.318 7.6C105.318 7.568 105.382 7.472 105.542 7.312C105.638 7.184 105.766 7.056 105.862 6.928C105.926 6.832 105.99 6.736 106.086 6.64C106.118 6.608 106.182 6.544 106.278 6.416H106.31C106.342 6.384 106.406 6.32 106.438 6.288C106.598 6.096 106.726 5.968 106.822 5.872C106.822 5.872 106.822 5.872 106.854 5.84L106.886 5.808L106.918 5.776C106.982 5.84 107.046 5.936 107.11 6C107.206 6.128 107.366 6.256 107.558 6.416C107.59 6.416 107.59 6.416 107.622 6.416C107.654 6.48 107.718 6.512 107.782 6.544L107.814 6.576C107.846 6.608 107.878 6.608 107.91 6.64C107.91 6.64 107.942 6.672 108.006 6.704C108.038 6.736 108.07 6.736 108.07 6.768C108.134 6.8 108.134 6.8 108.166 6.832C108.198 6.864 108.23 6.864 108.23 6.896H108.262C108.294 6.928 108.294 6.928 108.326 6.96C108.326 6.96 108.358 6.992 108.39 7.024L108.422 7.056C108.454 7.088 108.454 7.088 108.454 7.088C108.55 7.216 108.646 7.344 108.742 7.472C108.742 7.504 108.678 7.6 108.518 7.76C108.358 7.952 108.198 8.176 107.974 8.432C107.942 8.464 107.782 8.624 107.494 8.912C107.302 8.656 107.046 8.432 106.79 8.304C107.046 8.528 107.27 8.752 107.43 9.008C107.238 9.2 107.142 9.296 107.142 9.296C106.95 8.976 106.63 8.688 106.182 8.368ZM110.246 6.416C110.278 6.352 110.31 6.32 110.374 6.288C110.534 6.096 110.662 5.968 110.726 5.872C110.758 5.872 110.758 5.872 110.79 5.84C110.79 5.84 110.79 5.808 110.822 5.808L110.854 5.776C110.886 5.84 110.95 5.936 111.046 6C111.142 6.128 111.302 6.256 111.494 6.416C111.526 6.416 111.526 6.416 111.526 6.416C111.59 6.48 111.654 6.512 111.718 6.544L111.75 6.576C111.782 6.608 111.814 6.608 111.846 6.64C111.846 6.64 111.878 6.672 111.942 6.704C111.974 6.736 111.974 6.736 112.006 6.768C112.038 6.8 112.07 6.8 112.102 6.832C112.134 6.864 112.166 6.864 112.166 6.896C112.198 6.928 112.23 6.928 112.262 6.96C112.262 6.96 112.294 6.992 112.326 7.024C112.326 7.024 112.326 7.056 112.358 7.056C112.358 7.088 112.39 7.088 112.39 7.088C112.486 7.216 112.582 7.344 112.646 7.472C112.678 7.504 112.614 7.6 112.454 7.76C112.294 7.952 112.102 8.176 111.91 8.432C111.878 8.464 111.718 8.624 111.43 8.912C111.206 8.656 110.982 8.432 110.726 8.304C110.982 8.528 111.174 8.752 111.334 9.008C111.142 9.2 111.046 9.296 111.046 9.296C110.886 8.976 110.566 8.688 110.118 8.368C109.67 8.112 109.382 7.856 109.254 7.6C109.222 7.568 109.286 7.472 109.446 7.312C109.574 7.184 109.67 7.056 109.766 6.928C109.862 6.832 109.926 6.736 110.022 6.64C110.054 6.608 110.118 6.544 110.214 6.416H110.246ZM112.646 25.616H112.806V26C112.134 26 111.526 25.84 111.014 25.456C110.47 25.072 110.086 24.592 109.894 23.984C108.614 25.296 107.11 25.968 105.382 26H105.222V25.616H105.35H105.382H105.446C105.99 25.616 106.47 25.328 106.918 24.752C107.334 24.144 107.686 23.472 107.974 22.736C108.23 21.904 108.39 20.72 108.454 19.152C108.454 18.704 108.486 18 108.518 17.04C108.518 16.08 108.55 15.376 108.582 14.864C108.582 13.584 108.71 12.624 108.966 11.984L109.126 11.568C109.19 11.44 109.254 11.312 109.318 11.184C109.67 10.64 110.182 10.224 110.822 10C111.462 9.776 112.038 9.808 112.582 10.096C112.326 10.448 112.102 10.832 111.974 11.312C111.846 11.76 111.814 12.208 111.814 12.656C111.814 13.104 111.814 13.552 111.814 14.032C111.846 14.96 111.846 15.888 111.814 16.752V24.816C111.814 25.04 111.91 25.232 112.07 25.392C112.23 25.552 112.422 25.616 112.646 25.616ZM116.175 27.824C116.303 27.952 116.367 28.048 116.463 28.208C116.463 28.24 116.399 28.336 116.239 28.496C116.079 28.688 115.919 28.912 115.695 29.136C115.663 29.168 115.503 29.36 115.215 29.648C115.023 29.36 114.767 29.168 114.511 29.008C114.767 29.232 114.991 29.488 115.151 29.712C114.959 29.936 114.863 30.032 114.863 30.032C114.671 29.712 114.351 29.392 113.903 29.104C113.487 28.816 113.199 28.56 113.039 28.304C113.039 28.272 113.103 28.176 113.263 28.016C113.359 27.888 113.487 27.76 113.583 27.632C113.647 27.536 113.743 27.472 113.807 27.376C113.839 27.344 113.903 27.248 114.031 27.152C114.031 27.152 114.031 27.152 114.031 27.12C114.063 27.088 114.127 27.056 114.159 26.992C114.319 26.832 114.447 26.704 114.543 26.608C114.543 26.608 114.543 26.576 114.575 26.576C114.575 26.544 114.607 26.544 114.607 26.544L114.639 26.48C114.703 26.576 114.767 26.64 114.831 26.736C114.927 26.864 115.087 26.992 115.279 27.12C115.311 27.12 115.311 27.152 115.343 27.152C115.375 27.184 115.439 27.216 115.503 27.28H115.535C115.567 27.312 115.599 27.344 115.631 27.344C115.663 27.376 115.663 27.376 115.727 27.408C115.759 27.44 115.791 27.472 115.823 27.472C115.855 27.504 115.855 27.536 115.887 27.536C115.919 27.568 115.951 27.6 115.951 27.6C116.015 27.632 116.015 27.664 116.047 27.664C116.047 27.696 116.079 27.728 116.111 27.76C116.111 27.76 116.143 27.76 116.143 27.792C116.175 27.792 116.175 27.824 116.175 27.824ZM119.919 27.824C120.047 27.952 120.111 28.048 120.207 28.208C120.207 28.24 120.143 28.336 119.983 28.496C119.823 28.688 119.663 28.912 119.439 29.136C119.407 29.168 119.247 29.36 118.959 29.648C118.767 29.36 118.511 29.168 118.255 29.008C118.511 29.232 118.735 29.488 118.895 29.712C118.703 29.936 118.607 30.032 118.607 30.032C118.415 29.712 118.095 29.392 117.647 29.104C117.231 28.816 116.943 28.56 116.783 28.304C116.783 28.272 116.847 28.176 117.007 28.016C117.103 27.888 117.231 27.76 117.327 27.632C117.391 27.568 117.487 27.472 117.551 27.376C117.583 27.344 117.647 27.248 117.775 27.152C117.775 27.12 117.775 27.12 117.775 27.12C117.839 27.088 117.871 27.056 117.903 26.992C118.063 26.832 118.191 26.704 118.287 26.608C118.287 26.608 118.287 26.576 118.319 26.576C118.319 26.544 118.351 26.544 118.351 26.544L118.383 26.48C118.447 26.576 118.511 26.64 118.575 26.736C118.671 26.864 118.831 26.992 119.023 27.12C119.055 27.12 119.055 27.152 119.087 27.152C119.119 27.184 119.183 27.216 119.247 27.28C119.279 27.28 119.279 27.28 119.311 27.28C119.343 27.312 119.343 27.344 119.375 27.344C119.407 27.376 119.439 27.376 119.471 27.408C119.503 27.44 119.535 27.472 119.567 27.472C119.599 27.504 119.631 27.536 119.631 27.536C119.663 27.568 119.695 27.6 119.695 27.6C119.759 27.632 119.759 27.664 119.791 27.664C119.791 27.696 119.823 27.728 119.855 27.76C119.855 27.76 119.887 27.76 119.887 27.792C119.919 27.792 119.919 27.824 119.919 27.824ZM120.239 25.616H120.399V26C119.727 26 119.119 25.84 118.607 25.456C118.063 25.072 117.679 24.592 117.487 23.984C116.207 25.296 114.703 25.968 112.975 26H112.815V25.616H112.943H112.975H113.039C113.583 25.616 114.063 25.328 114.511 24.752C114.927 24.144 115.279 23.472 115.567 22.736C115.823 21.904 115.983 20.72 116.047 19.152C116.047 18.704 116.079 18 116.111 17.04C116.111 16.08 116.143 15.376 116.175 14.864C116.175 13.584 116.303 12.624 116.559 11.984L116.719 11.568C116.783 11.44 116.847 11.312 116.911 11.184C117.263 10.64 117.775 10.224 118.415 10C119.055 9.776 119.631 9.808 120.175 10.096C119.919 10.448 119.695 10.832 119.567 11.312C119.439 11.76 119.407 12.208 119.407 12.656C119.407 13.104 119.407 13.552 119.407 14.032C119.439 14.96 119.439 15.888 119.407 16.752V24.816C119.407 25.04 119.503 25.232 119.663 25.392C119.823 25.552 120.015 25.616 120.239 25.616ZM127.769 10.096C127.513 10.448 127.289 10.832 127.161 11.312C127.033 11.76 127.001 12.208 127.001 12.656C127.001 13.104 127.001 13.552 127.001 14.032C127.065 15.792 127.033 17.488 126.905 19.088C126.809 20.176 126.681 20.976 126.521 21.52C126.137 22.8 125.369 23.856 124.249 24.688C123.129 25.552 121.881 26 120.569 26H120.409V25.616H120.537H120.633C121.177 25.616 121.657 25.328 122.105 24.752C122.521 24.144 122.873 23.472 123.161 22.736C123.417 21.904 123.577 20.72 123.641 19.152C123.641 18.704 123.673 18 123.705 17.04C123.705 16.08 123.737 15.376 123.769 14.864C123.769 13.584 123.897 12.624 124.153 11.984L124.313 11.568C124.377 11.44 124.441 11.312 124.505 11.184C124.857 10.64 125.369 10.224 126.009 10C126.649 9.776 127.225 9.808 127.769 10.096ZM125.529 27.696C125.625 27.824 125.721 27.952 125.785 28.08C125.817 28.112 125.753 28.208 125.593 28.368C125.433 28.56 125.241 28.784 125.017 29.04C124.985 29.072 124.825 29.232 124.569 29.52C124.345 29.264 124.121 29.04 123.833 28.912C124.121 29.136 124.313 29.36 124.473 29.616C124.281 29.808 124.185 29.904 124.185 29.904C123.993 29.584 123.673 29.264 123.225 28.976C122.809 28.72 122.521 28.432 122.393 28.208C122.361 28.176 122.425 28.08 122.585 27.92C122.713 27.76 122.809 27.632 122.905 27.536C123.001 27.44 123.065 27.344 123.161 27.248C123.161 27.216 123.257 27.152 123.353 27.024C123.385 27.024 123.385 27.024 123.385 26.992C123.417 26.96 123.449 26.928 123.481 26.896C123.673 26.704 123.801 26.576 123.865 26.48C123.865 26.48 123.897 26.48 123.897 26.448C123.929 26.448 123.929 26.416 123.929 26.416L123.993 26.384C124.025 26.448 124.089 26.544 124.153 26.608C124.281 26.736 124.441 26.864 124.633 26.992C124.633 27.024 124.665 27.024 124.665 27.024C124.729 27.088 124.761 27.12 124.825 27.152C124.857 27.152 124.857 27.184 124.889 27.184C124.921 27.216 124.953 27.216 124.985 27.248C124.985 27.248 125.017 27.28 125.049 27.312C125.081 27.312 125.113 27.344 125.145 27.376C125.177 27.376 125.209 27.408 125.209 27.44C125.273 27.44 125.273 27.472 125.305 27.504C125.337 27.536 125.369 27.536 125.369 27.568C125.401 27.568 125.433 27.6 125.465 27.632C125.465 27.632 125.465 27.664 125.497 27.664C125.497 27.696 125.497 27.696 125.529 27.696Z" fill="url(#paint0_linear_2017_16626)"/>
<path d="M141.795 4.53226C143.733 1.96169 146.793 0.5 150.057 0.5H160.103C161.123 0.5 162.092 1.05444 162.602 1.96169L173.516 22.0222C173.924 22.7782 173.924 23.6351 173.465 24.3407C173.006 25.0464 172.241 25.5 171.425 25.5H166.172C165.203 25.5 164.336 24.996 163.877 24.1391L161.48 19.8044C161.429 19.754 161.429 19.7036 161.378 19.6028L161.174 19.1996C161.174 19.1492 161.123 19.1492 161.123 19.0988C159.95 19.6028 159.032 20.9133 157.808 19.7036C156.839 18.3931 155.564 17.1835 154.595 15.9234C154.034 15.1673 153.626 14.2097 153.065 13.4536C153.014 13.4032 153.014 13.3528 153.014 13.252C153.014 12.8992 153.881 11.8911 153.932 11.5383C153.983 11.1855 153.575 10.7319 153.779 10.3286L151.842 9.16936C151.434 9.16936 151.026 9.06855 150.618 9.01815C150.261 8.96774 148.374 8.91734 148.221 8.76613C148.119 8.66532 148.221 7.35484 148.272 7.15323C148.272 7.10282 148.323 7.05242 148.374 7.00202C148.68 6.8004 151.74 7.35484 152.3 7.30444L154.748 8.56452C155.054 7.55645 155.819 8.81653 156.227 8.91734C156.431 8.96774 156.992 8.71573 157.247 8.81653L160.46 11.8407C160.613 12.1936 160.103 13 160.154 13.4536C160.97 14.9657 161.939 16.377 162.704 17.8891C162.704 18.0403 162.653 18.1411 162.653 18.1411C162.653 18.1411 162.704 18.2419 162.755 18.3427L165.458 23.2319C165.611 23.4839 166.121 23.6351 166.121 23.6351C166.121 23.6351 169.436 23.6351 171.17 23.6351C171.68 23.6351 171.986 23.1311 171.731 22.6774C169.487 18.5948 160.868 2.76815 160.868 2.76815C160.715 2.46573 160.358 2.26411 160.001 2.26411H150.057C147.405 2.26411 144.855 3.47379 143.274 5.59073C141.744 7.70766 141.285 10.2782 142.05 12.748C143.121 16.1754 146.385 18.4436 150.057 18.4436H154.136C154.289 18.4436 154.391 18.494 154.493 18.5948L155.768 19.9052C155.921 20.0565 155.819 20.2581 155.615 20.2581H149.904C145.518 20.2581 141.693 17.4859 140.316 13.4032C139.296 10.4294 139.857 7.15323 141.795 4.53226ZM157.91 18.998L157.196 16.4274C156.941 15.7218 155.972 16.1754 155.411 16.0746L157.91 18.998ZM155.564 15.0161C155.819 14.8649 156.074 14.6633 156.38 14.4617C156.125 14.6633 155.819 14.8649 155.564 15.0161ZM160.562 18.6452C159.797 17.4859 159.185 16.2762 158.42 15.1169C158.267 14.8649 158.063 14.5121 157.757 14.4617C157.349 14.4113 156.431 15.2681 155.972 15.4194C155.972 15.5202 156.023 15.4698 156.125 15.4698C156.278 15.4698 156.431 15.4194 156.584 15.4194C157.298 15.4698 157.604 15.6714 157.859 16.377C158.216 17.4355 158.42 18.5948 158.777 19.6532C159.134 19.9052 160.256 18.9476 160.613 18.7964L160.562 18.6452Z" fill="url(#paint1_linear_2017_16626)"/>
<defs>
<linearGradient id="paint0_linear_2017_16626" x1="27.8444" y1="13.0029" x2="128.768" y2="13.0029" gradientUnits="userSpaceOnUse">
<stop offset="0.0938326" stop-color="#149CD8"/>
<stop offset="0.8943" stop-color="#74CBF4"/>
</linearGradient>
<linearGradient id="paint1_linear_2017_16626" x1="173.806" y1="13.0028" x2="139.831" y2="13.0028" gradientUnits="userSpaceOnUse">
<stop offset="0.0938326" stop-color="#149CD8"/>
<stop offset="0.8943" stop-color="#74CBF4"/>
</linearGradient>
</defs>
</svg>
