<svg width="174" height="39" viewBox="0 0 174 39" fill="none" xmlns="http://www.w3.org/2000/svg">
<path d="M15.2699 32.116V32.5C14.8859 32.5 14.5339 32.436 14.1819 32.276C14.0859 33.172 13.9579 33.876 13.7979 34.42C13.4139 35.7 12.6459 36.756 11.5259 37.62C10.3739 38.452 9.12589 38.9 7.81389 38.9C7.14189 38.932 6.50189 38.804 5.82989 38.612C5.86189 38.516 5.89389 38.388 5.92589 38.228C6.66189 38.452 7.33389 38.452 7.94189 38.292C8.48589 38.132 8.99789 37.78 9.44589 37.3C9.89389 36.788 10.2139 36.212 10.4379 35.604C10.7259 34.804 10.8859 33.62 10.9179 32.02C10.9179 31.572 10.9499 29.78 10.9819 26.708C11.0139 23.636 11.0139 21.844 11.0459 21.364C11.0779 19.668 11.3339 18.452 11.8139 17.684C12.1659 17.108 12.6459 16.692 13.2859 16.468C13.9259 16.244 14.5019 16.276 15.0779 16.596C14.7899 16.916 14.5979 17.3 14.4699 17.78C14.3419 18.26 14.2779 18.708 14.2779 19.124C14.2779 19.572 14.2779 20.052 14.3099 20.532C14.3419 21.684 14.3419 23.796 14.3099 26.932V31.284C14.3099 31.508 14.3739 31.7 14.5339 31.86C14.6939 32.02 14.8859 32.116 15.1099 32.116H15.2699ZM16.1831 14.868C15.7351 14.612 15.4791 14.356 15.3191 14.1C15.3191 14.068 15.3831 13.972 15.5431 13.812C15.6391 13.684 15.7671 13.556 15.8631 13.428C15.9271 13.332 15.9911 13.236 16.0871 13.14C16.1191 13.108 16.1831 13.044 16.2791 12.916H16.3111C16.3431 12.884 16.4071 12.82 16.4391 12.788C16.5991 12.596 16.7271 12.468 16.8231 12.372C16.8231 12.372 16.8231 12.372 16.8551 12.34L16.8871 12.308L16.9191 12.276C16.9831 12.34 17.0471 12.436 17.1111 12.5C17.2071 12.628 17.3671 12.756 17.5591 12.916C17.5911 12.916 17.5911 12.916 17.6231 12.916C17.6551 12.98 17.7191 13.012 17.7831 13.044L17.8151 13.076C17.8471 13.108 17.8791 13.108 17.9111 13.14C17.9111 13.14 17.9431 13.172 18.0071 13.204C18.0391 13.236 18.0711 13.236 18.0711 13.268C18.1351 13.3 18.1351 13.3 18.1671 13.332C18.1991 13.364 18.2311 13.364 18.2311 13.396H18.2631C18.2951 13.428 18.2951 13.428 18.3271 13.46C18.3271 13.46 18.3591 13.492 18.3911 13.524L18.4231 13.556C18.4551 13.588 18.4551 13.588 18.4551 13.588C18.5511 13.716 18.6471 13.844 18.7431 13.972C18.7431 14.004 18.6791 14.1 18.5191 14.26C18.3591 14.452 18.1991 14.676 17.9751 14.932C17.9431 14.964 17.7831 15.124 17.4951 15.412C17.3031 15.156 17.0471 14.932 16.7911 14.804C17.0471 15.028 17.2711 15.252 17.4311 15.508C17.2391 15.7 17.1431 15.796 17.1431 15.796C16.9511 15.476 16.6311 15.188 16.1831 14.868ZM20.2471 12.916C20.2791 12.852 20.3111 12.82 20.3751 12.788C20.5351 12.596 20.6631 12.468 20.7271 12.372C20.7591 12.372 20.7591 12.372 20.7911 12.34C20.7911 12.34 20.7911 12.308 20.8231 12.308L20.8551 12.276C20.8871 12.34 20.9511 12.436 21.0471 12.5C21.1431 12.628 21.3031 12.756 21.4951 12.916C21.5271 12.916 21.5271 12.916 21.5271 12.916C21.5911 12.98 21.6551 13.012 21.7191 13.044L21.7511 13.076C21.7831 13.108 21.8151 13.108 21.8471 13.14C21.8471 13.14 21.8791 13.172 21.9431 13.204C21.9751 13.236 21.9751 13.236 22.0071 13.268C22.0391 13.3 22.0711 13.3 22.1031 13.332C22.1351 13.364 22.1671 13.364 22.1671 13.396C22.1991 13.428 22.2311 13.428 22.2631 13.46C22.2631 13.46 22.2951 13.492 22.3271 13.524C22.3271 13.524 22.3271 13.556 22.3591 13.556C22.3591 13.588 22.3911 13.588 22.3911 13.588C22.4871 13.716 22.5831 13.844 22.6471 13.972C22.6791 14.004 22.6151 14.1 22.4551 14.26C22.2951 14.452 22.1031 14.676 21.9111 14.932C21.8791 14.964 21.7191 15.124 21.4311 15.412C21.2071 15.156 20.9831 14.932 20.7271 14.804C20.9831 15.028 21.1751 15.252 21.3351 15.508C21.1431 15.7 21.0471 15.796 21.0471 15.796C20.8871 15.476 20.5671 15.188 20.1191 14.868C19.6711 14.612 19.3831 14.356 19.2551 14.1C19.2231 14.068 19.2871 13.972 19.4471 13.812C19.5751 13.684 19.6711 13.556 19.7671 13.428C19.8631 13.332 19.9271 13.236 20.0231 13.14C20.0551 13.108 20.1191 13.044 20.2151 12.916H20.2471ZM22.6471 32.116H22.8071V32.5C22.1351 32.5 21.5271 32.34 21.0151 31.956C20.4711 31.572 20.0871 31.092 19.8951 30.484C18.6151 31.796 17.1111 32.468 15.3831 32.5H15.2231V32.116H15.3511H15.3831H15.4471C15.9911 32.116 16.4711 31.828 16.9191 31.252C17.3351 30.644 17.6871 29.972 17.9751 29.236C18.2311 28.404 18.3911 27.22 18.4551 25.652C18.4551 25.204 18.4871 24.5 18.5191 23.54C18.5191 22.58 18.5511 21.876 18.5831 21.364C18.5831 20.084 18.7111 19.124 18.9671 18.484L19.1271 18.068C19.1911 17.94 19.2551 17.812 19.3191 17.684C19.6711 17.14 20.1831 16.724 20.8231 16.5C21.4631 16.276 22.0391 16.308 22.5831 16.596C22.3271 16.948 22.1031 17.332 21.9751 17.812C21.8471 18.26 21.8151 18.708 21.8151 19.156C21.8151 19.604 21.8151 20.052 21.8151 20.532C21.8471 21.46 21.8471 22.388 21.8151 23.252V31.316C21.8151 31.54 21.9111 31.732 22.0711 31.892C22.2311 32.052 22.4231 32.116 22.6471 32.116ZM40.9929 16.628C40.7049 16.948 40.5129 17.364 40.3849 17.812C40.2249 18.292 40.1609 18.74 40.1609 19.156C40.1609 19.604 40.1609 20.084 40.1929 20.564C40.2249 22.324 40.1609 23.988 40.0329 25.62C39.9369 26.708 39.8089 27.508 39.6489 28.052C39.2329 29.332 38.4649 30.388 37.3129 31.252C36.1609 32.084 34.9129 32.5 33.6009 32.5C33.1849 32.5 32.8009 32.468 32.4169 32.404C31.8409 32.308 31.2969 32.148 30.7529 31.924C29.8889 32.308 29.0249 32.5 28.1609 32.5C27.7769 32.5 27.3929 32.468 27.0089 32.404C26.4329 32.308 25.8889 32.148 25.3769 31.956C24.7049 32.244 24.0009 32.436 23.2969 32.5C23.1689 32.5 23.0729 32.5 22.9769 32.5H22.8169V32.116H23.0409C23.5849 32.116 24.0649 31.828 24.5129 31.252C24.9289 30.644 25.2809 29.972 25.5689 29.236C25.8249 28.404 25.9849 27.22 26.0489 25.652C26.0489 25.236 26.0809 24.468 26.1129 23.284C26.1129 23.284 26.1129 23.284 26.1129 23.252V23.22C26.1449 22.548 26.1449 21.94 26.1769 21.364C26.2409 19.668 26.4969 18.452 26.9769 17.684C27.3289 17.108 27.8089 16.724 28.4489 16.5C29.0889 16.276 29.6969 16.308 30.2409 16.628C29.9529 16.948 29.7609 17.364 29.6329 17.812C29.5049 18.292 29.4409 18.74 29.4409 19.156C29.4409 19.604 29.4409 20.084 29.4409 20.564C29.4729 22.324 29.4409 23.988 29.2809 25.62C29.1849 26.708 29.0569 27.508 28.8969 28.052C28.4169 29.62 27.4249 30.804 25.9209 31.668C26.2729 31.796 26.6249 31.892 26.9449 31.956C27.2329 31.988 27.5209 32.02 27.7769 31.988C27.9689 31.956 28.1289 31.924 28.2889 31.892C28.8649 31.732 29.3449 31.412 29.7929 30.9C30.2729 30.388 30.5929 29.844 30.8169 29.236C31.1049 28.436 31.2649 27.22 31.3289 25.652C31.3609 25.172 31.3929 24.468 31.4249 23.508C31.4569 22.548 31.4889 21.844 31.4889 21.364C31.5529 19.668 31.8089 18.452 32.2889 17.684C32.6409 17.108 33.1209 16.724 33.7609 16.5C34.4009 16.276 35.0089 16.308 35.5529 16.628C35.2649 16.948 35.0729 17.364 34.9449 17.812C34.8169 18.292 34.7529 18.74 34.7529 19.156C34.7529 19.604 34.7529 20.084 34.7529 20.564C34.7849 22.324 34.7529 23.988 34.6249 25.62C34.4969 26.708 34.3689 27.508 34.2089 28.052C33.7289 29.588 32.7369 30.804 31.2649 31.636C31.6169 31.764 32.0009 31.86 32.3849 31.956C32.6729 31.988 32.9289 32.02 33.2169 31.988C33.3769 31.956 33.5689 31.924 33.7289 31.892C34.2729 31.732 34.7849 31.412 35.2329 30.9C35.6809 30.388 36.0329 29.844 36.2569 29.236C36.5449 28.436 36.7049 27.22 36.7689 25.652C36.7689 25.172 36.8009 24.468 36.8329 23.508C36.8649 22.548 36.8969 21.844 36.9289 21.364C36.9609 19.668 37.2489 18.452 37.7289 17.684C38.0809 17.108 38.5609 16.724 39.2009 16.5C39.8409 16.276 40.4489 16.308 40.9929 16.628ZM48.2454 32.148L48.3414 32.116V32.5H47.8934C46.6134 32.5 45.3974 32.052 44.3094 31.156C43.2214 30.26 42.4854 29.172 42.1334 27.892C41.9734 27.348 41.8774 26.516 41.7814 25.46C41.7494 24.596 41.7174 22.74 41.7494 19.86C41.7494 16.98 41.7494 15.124 41.8134 14.292C41.9094 13.652 41.9094 12.98 41.8134 12.212C41.7174 11.444 41.4934 10.804 41.1414 10.324C41.6854 10.036 42.2614 10.004 42.9014 10.26C43.5414 10.484 44.0214 10.9 44.3734 11.476C44.8214 12.244 45.0454 13.492 45.0454 15.188C45.0454 15.668 45.0454 17.396 45.0454 20.372C45.0454 23.348 45.0774 25.108 45.0774 25.588C45.0774 27.156 45.2054 28.34 45.4614 29.172C45.9094 30.452 46.5174 31.348 47.3814 31.892C47.6374 32.052 47.9254 32.148 48.2454 32.148ZM61.8209 16.532C61.5649 16.852 61.3729 17.204 61.2449 17.62C61.1169 18.036 61.0529 18.42 61.0529 18.836C61.0529 19.22 61.0529 19.636 61.0529 20.084C61.1169 21.652 61.0849 23.188 60.9569 24.628C60.8609 25.62 60.7329 26.356 60.5729 26.804C60.1889 27.956 59.4209 28.916 58.3009 29.684C57.1489 30.452 55.9009 30.868 54.5569 30.868C53.9809 30.868 53.3729 30.804 52.7649 30.644C52.2529 31.156 51.6449 31.572 51.0049 31.892C50.2049 32.276 49.4049 32.468 48.6049 32.5H48.3169V32.116C48.4769 32.116 48.6689 32.084 48.8289 32.02C49.3089 31.796 49.7249 31.412 50.1089 30.9C50.5249 30.356 50.8129 29.812 51.0369 29.204C51.2929 28.436 51.4529 27.412 51.4849 26.132C51.5169 25.524 51.5169 24.884 51.5489 24.244C51.5809 23.924 51.5809 23.572 51.6129 23.22C51.7089 22.132 51.8369 21.332 51.9969 20.82C52.2529 19.956 52.6689 19.22 53.2769 18.516C53.8849 17.844 54.5889 17.3 55.4209 16.916C56.2529 16.5 57.1169 16.308 58.0129 16.308C58.5889 16.308 59.1969 16.372 59.7729 16.532C60.5409 16.212 61.2129 16.212 61.8209 16.532ZM58.5889 17.524C58.7489 17.268 58.9729 17.044 59.2289 16.852C58.7489 16.788 58.3009 16.82 57.8849 16.948C57.3089 17.108 56.8289 17.428 56.3809 17.94C55.9329 18.42 55.5809 18.996 55.3569 19.604C55.1009 20.372 54.9409 21.396 54.9089 22.676C54.9089 23.316 54.8769 23.924 54.8449 24.564C54.8449 24.884 54.8129 25.236 54.7809 25.588C54.6849 26.676 54.5569 27.476 54.3969 28.02C54.1409 28.852 53.6929 29.652 53.0849 30.324C53.6609 30.452 54.2049 30.42 54.7169 30.292C55.2609 30.164 55.7409 29.844 56.1889 29.396C56.6369 28.948 56.9889 28.436 57.2129 27.892C57.5009 27.156 57.6609 26.1 57.6929 24.692C57.6929 24.276 57.7249 23.636 57.7569 22.772C57.7889 21.908 57.7889 21.268 57.8209 20.82C57.8529 19.668 57.9809 18.804 58.2049 18.228L58.3649 17.844C58.4289 17.748 58.4929 17.62 58.5889 17.524ZM77.6559 23.988C77.6559 24.084 77.6559 24.212 77.6879 24.372C77.7519 27.348 77.7199 29.876 77.5599 31.956C77.4639 33.076 77.3359 33.876 77.1759 34.388C76.7919 35.668 76.0239 36.756 74.9039 37.588C73.7519 38.452 72.5039 38.9 71.1919 38.9C70.5199 38.9 69.8799 38.804 69.2079 38.612C69.2399 38.516 69.2719 38.388 69.3039 38.228C70.0399 38.452 70.7119 38.452 71.3199 38.26C71.8639 38.1 72.3759 37.78 72.8239 37.268C73.2719 36.788 73.5919 36.212 73.8159 35.604C74.1039 34.804 74.2639 33.588 74.2959 32.02C74.2959 31.988 74.2959 31.956 74.2959 31.892C74.2959 31.86 74.2959 31.796 74.2959 31.764C74.2959 31.7 74.2959 31.636 74.2959 31.604C73.3039 32.212 72.2799 32.5 71.1919 32.5C70.5839 32.532 69.9759 32.436 69.3999 32.276C68.6319 32.628 67.9599 32.628 67.3519 32.244C67.6399 31.924 67.8319 31.54 67.9599 31.06C68.0879 30.612 68.1519 30.132 68.1519 29.716C68.1519 29.268 68.1199 28.82 68.1199 28.308C68.0879 26.58 68.1199 24.884 68.2159 23.252C68.3119 22.164 68.4399 21.364 68.5999 20.852C68.9839 19.572 69.7519 18.484 70.9039 17.652C72.0559 16.788 73.2719 16.372 74.6159 16.34C75.2239 16.34 75.8319 16.436 76.4079 16.596C77.1759 16.244 77.8479 16.244 78.4559 16.628C78.1679 16.948 77.9759 17.332 77.8479 17.812C77.7199 18.26 77.6559 18.708 77.6559 19.156C77.6559 19.604 77.6559 20.052 77.6879 20.532C77.7199 21.716 77.6879 22.868 77.6559 23.988ZM73.8159 29.236C74.1039 28.404 74.2639 27.22 74.2959 25.652C74.2959 25.204 74.3279 24.5 74.3599 23.54C74.3919 22.58 74.3919 21.876 74.4239 21.364C74.4559 20.084 74.5839 19.124 74.8079 18.484L74.9679 18.068C75.0319 17.94 75.0959 17.812 75.1919 17.684C75.3839 17.396 75.6079 17.108 75.9279 16.884C75.3839 16.82 74.9359 16.852 74.4879 16.98C73.9439 17.14 73.4319 17.46 72.9839 17.972C72.5359 18.484 72.2159 19.028 71.9919 19.636C71.7039 20.436 71.5439 21.652 71.5119 23.22C71.4799 23.668 71.4799 24.372 71.4479 25.332C71.4159 26.26 71.3839 26.996 71.3839 27.476C71.3519 28.788 71.2239 29.748 70.9999 30.388L70.8079 30.804C70.7759 30.932 70.6799 31.06 70.6159 31.156C70.4239 31.476 70.1999 31.732 69.8799 31.956C70.3919 32.052 70.8719 32.02 71.3199 31.892C71.8639 31.732 72.3759 31.38 72.8239 30.9C73.2719 30.388 73.5919 29.844 73.8159 29.236ZM85.3949 32.116V32.5C85.0109 32.5 84.6589 32.436 84.3069 32.276C84.2109 33.172 84.0829 33.876 83.9229 34.42C83.5389 35.7 82.7709 36.756 81.6509 37.62C80.4989 38.452 79.2509 38.9 77.9389 38.9C77.2669 38.932 76.6269 38.804 75.9549 38.612C75.9869 38.516 76.0189 38.388 76.0509 38.228C76.7869 38.452 77.4589 38.452 78.0669 38.292C78.6109 38.132 79.1229 37.78 79.5709 37.3C80.0189 36.788 80.3389 36.212 80.5629 35.604C80.8509 34.804 81.0109 33.62 81.0429 32.02C81.0429 31.572 81.0749 29.78 81.1069 26.708C81.1389 23.636 81.1389 21.844 81.1709 21.364C81.2029 19.668 81.4589 18.452 81.9389 17.684C82.2909 17.108 82.7709 16.692 83.4109 16.468C84.0509 16.244 84.6269 16.276 85.2029 16.596C84.9149 16.916 84.7229 17.3 84.5949 17.78C84.4669 18.26 84.4029 18.708 84.4029 19.124C84.4029 19.572 84.4029 20.052 84.4349 20.532C84.4669 21.684 84.4669 23.796 84.4349 26.932V31.284C84.4349 31.508 84.4989 31.7 84.6589 31.86C84.8189 32.02 85.0109 32.116 85.2349 32.116H85.3949ZM86.3081 14.868C85.8601 14.612 85.6041 14.356 85.4441 14.1C85.4441 14.068 85.5081 13.972 85.6681 13.812C85.7641 13.684 85.8921 13.556 85.9881 13.428C86.0521 13.332 86.1161 13.236 86.2121 13.14C86.2441 13.108 86.3081 13.044 86.4041 12.916H86.4361C86.4681 12.884 86.5321 12.82 86.5641 12.788C86.7241 12.596 86.8521 12.468 86.9481 12.372C86.9481 12.372 86.9481 12.372 86.9801 12.34L87.0121 12.308L87.0441 12.276C87.1081 12.34 87.1721 12.436 87.2361 12.5C87.3321 12.628 87.4921 12.756 87.6841 12.916C87.7161 12.916 87.7161 12.916 87.7481 12.916C87.7801 12.98 87.8441 13.012 87.9081 13.044L87.9401 13.076C87.9721 13.108 88.0041 13.108 88.0361 13.14C88.0361 13.14 88.0681 13.172 88.1321 13.204C88.1641 13.236 88.1961 13.236 88.1961 13.268C88.2601 13.3 88.2601 13.3 88.2921 13.332C88.3241 13.364 88.3561 13.364 88.3561 13.396H88.3881C88.4201 13.428 88.4201 13.428 88.4521 13.46C88.4521 13.46 88.4841 13.492 88.5161 13.524L88.5481 13.556C88.5801 13.588 88.5801 13.588 88.5801 13.588C88.6761 13.716 88.7721 13.844 88.8681 13.972C88.8681 14.004 88.8041 14.1 88.6441 14.26C88.4841 14.452 88.3241 14.676 88.1001 14.932C88.0681 14.964 87.9081 15.124 87.6201 15.412C87.4281 15.156 87.1721 14.932 86.9161 14.804C87.1721 15.028 87.3961 15.252 87.5561 15.508C87.3641 15.7 87.2681 15.796 87.2681 15.796C87.0761 15.476 86.7561 15.188 86.3081 14.868ZM90.3721 12.916C90.4041 12.852 90.4361 12.82 90.5001 12.788C90.6601 12.596 90.7881 12.468 90.8521 12.372C90.8841 12.372 90.8841 12.372 90.9161 12.34C90.9161 12.34 90.9161 12.308 90.9481 12.308L90.9801 12.276C91.0121 12.34 91.0761 12.436 91.1721 12.5C91.2681 12.628 91.4281 12.756 91.6201 12.916C91.6521 12.916 91.6521 12.916 91.6521 12.916C91.7161 12.98 91.7801 13.012 91.8441 13.044L91.8761 13.076C91.9081 13.108 91.9401 13.108 91.9721 13.14C91.9721 13.14 92.0041 13.172 92.0681 13.204C92.1001 13.236 92.1001 13.236 92.1321 13.268C92.1641 13.3 92.1961 13.3 92.2281 13.332C92.2601 13.364 92.2921 13.364 92.2921 13.396C92.3241 13.428 92.3561 13.428 92.3881 13.46C92.3881 13.46 92.4201 13.492 92.4521 13.524C92.4521 13.524 92.4521 13.556 92.4841 13.556C92.4841 13.588 92.5161 13.588 92.5161 13.588C92.6121 13.716 92.7081 13.844 92.7721 13.972C92.8041 14.004 92.7401 14.1 92.5801 14.26C92.4201 14.452 92.2281 14.676 92.0361 14.932C92.0041 14.964 91.8441 15.124 91.5561 15.412C91.3321 15.156 91.1081 14.932 90.8521 14.804C91.1081 15.028 91.3001 15.252 91.4601 15.508C91.2681 15.7 91.1721 15.796 91.1721 15.796C91.0121 15.476 90.6921 15.188 90.2441 14.868C89.7961 14.612 89.5081 14.356 89.3801 14.1C89.3481 14.068 89.4121 13.972 89.5721 13.812C89.7001 13.684 89.7961 13.556 89.8921 13.428C89.9881 13.332 90.0521 13.236 90.1481 13.14C90.1801 13.108 90.2441 13.044 90.3401 12.916H90.3721ZM92.7721 32.116H92.9321V32.5C92.2601 32.5 91.6521 32.34 91.1401 31.956C90.5961 31.572 90.2121 31.092 90.0201 30.484C88.7401 31.796 87.2361 32.468 85.5081 32.5H85.3481V32.116H85.4761H85.5081H85.5721C86.1161 32.116 86.5961 31.828 87.0441 31.252C87.4601 30.644 87.8121 29.972 88.1001 29.236C88.3561 28.404 88.5161 27.22 88.5801 25.652C88.5801 25.204 88.6121 24.5 88.6441 23.54C88.6441 22.58 88.6761 21.876 88.7081 21.364C88.7081 20.084 88.8361 19.124 89.0921 18.484L89.2521 18.068C89.3161 17.94 89.3801 17.812 89.4441 17.684C89.7961 17.14 90.3081 16.724 90.9481 16.5C91.5881 16.276 92.1641 16.308 92.7081 16.596C92.4521 16.948 92.2281 17.332 92.1001 17.812C91.9721 18.26 91.9401 18.708 91.9401 19.156C91.9401 19.604 91.9401 20.052 91.9401 20.532C91.9721 21.46 91.9721 22.388 91.9401 23.252V31.316C91.9401 31.54 92.0361 31.732 92.1961 31.892C92.3561 32.052 92.5481 32.116 92.7721 32.116ZM96.3019 34.324C96.4299 34.452 96.4939 34.548 96.5899 34.708C96.5899 34.74 96.5259 34.836 96.3659 34.996C96.2059 35.188 96.0459 35.412 95.8219 35.636C95.7899 35.668 95.6299 35.86 95.3419 36.148C95.1499 35.86 94.8939 35.668 94.6379 35.508C94.8939 35.732 95.1179 35.988 95.2779 36.212C95.0859 36.436 94.9899 36.532 94.9899 36.532C94.7979 36.212 94.4779 35.892 94.0299 35.604C93.6139 35.316 93.3259 35.06 93.1659 34.804C93.1659 34.772 93.2299 34.676 93.3899 34.516C93.4859 34.388 93.6139 34.26 93.7099 34.132C93.7739 34.036 93.8699 33.972 93.9339 33.876C93.9659 33.844 94.0299 33.748 94.1579 33.652C94.1579 33.652 94.1579 33.652 94.1579 33.62C94.1899 33.588 94.2539 33.556 94.2859 33.492C94.4459 33.332 94.5739 33.204 94.6699 33.108C94.6699 33.108 94.6699 33.076 94.7019 33.076C94.7019 33.044 94.7339 33.044 94.7339 33.044L94.7659 32.98C94.8299 33.076 94.8939 33.14 94.9579 33.236C95.0539 33.364 95.2139 33.492 95.4059 33.62C95.4379 33.62 95.4379 33.652 95.4699 33.652C95.5019 33.684 95.5659 33.716 95.6299 33.78H95.6619C95.6939 33.812 95.7259 33.844 95.7579 33.844C95.7899 33.876 95.7899 33.876 95.8539 33.908C95.8859 33.94 95.9179 33.972 95.9499 33.972C95.9819 34.004 95.9819 34.036 96.0139 34.036C96.0459 34.068 96.0779 34.1 96.0779 34.1C96.1419 34.132 96.1419 34.164 96.1739 34.164C96.1739 34.196 96.2059 34.228 96.2379 34.26C96.2379 34.26 96.2699 34.26 96.2699 34.292C96.3019 34.292 96.3019 34.324 96.3019 34.324ZM100.046 34.324C100.174 34.452 100.238 34.548 100.334 34.708C100.334 34.74 100.27 34.836 100.11 34.996C99.9499 35.188 99.7899 35.412 99.5659 35.636C99.5339 35.668 99.3739 35.86 99.0859 36.148C98.8939 35.86 98.6379 35.668 98.3819 35.508C98.6379 35.732 98.8619 35.988 99.0219 36.212C98.8299 36.436 98.7339 36.532 98.7339 36.532C98.5419 36.212 98.2219 35.892 97.7739 35.604C97.3579 35.316 97.0699 35.06 96.9099 34.804C96.9099 34.772 96.9739 34.676 97.1339 34.516C97.2299 34.388 97.3579 34.26 97.4539 34.132C97.5179 34.068 97.6139 33.972 97.6779 33.876C97.7099 33.844 97.7739 33.748 97.9019 33.652C97.9019 33.62 97.9019 33.62 97.9019 33.62C97.9659 33.588 97.9979 33.556 98.0299 33.492C98.1899 33.332 98.3179 33.204 98.4139 33.108C98.4139 33.108 98.4139 33.076 98.4459 33.076C98.4459 33.044 98.4779 33.044 98.4779 33.044L98.5099 32.98C98.5739 33.076 98.6379 33.14 98.7019 33.236C98.7979 33.364 98.9579 33.492 99.1499 33.62C99.1819 33.62 99.1819 33.652 99.2139 33.652C99.2459 33.684 99.3099 33.716 99.3739 33.78C99.4059 33.78 99.4059 33.78 99.4379 33.78C99.4699 33.812 99.4699 33.844 99.5019 33.844C99.5339 33.876 99.5659 33.876 99.5979 33.908C99.6299 33.94 99.6619 33.972 99.6939 33.972C99.7259 34.004 99.7579 34.036 99.7579 34.036C99.7899 34.068 99.8219 34.1 99.8219 34.1C99.8859 34.132 99.8859 34.164 99.9179 34.164C99.9179 34.196 99.9499 34.228 99.9819 34.26C99.9819 34.26 100.014 34.26 100.014 34.292C100.046 34.292 100.046 34.324 100.046 34.324ZM100.366 32.116H100.526V32.5C99.8539 32.5 99.2459 32.34 98.7339 31.956C98.1899 31.572 97.8059 31.092 97.6139 30.484C96.3339 31.796 94.8299 32.468 93.1019 32.5H92.9419V32.116H93.0699H93.1019H93.1659C93.7099 32.116 94.1899 31.828 94.6379 31.252C95.0539 30.644 95.4059 29.972 95.6939 29.236C95.9499 28.404 96.1099 27.22 96.1739 25.652C96.1739 25.204 96.2059 24.5 96.2379 23.54C96.2379 22.58 96.2699 21.876 96.3019 21.364C96.3019 20.084 96.4299 19.124 96.6859 18.484L96.8459 18.068C96.9099 17.94 96.9739 17.812 97.0379 17.684C97.3899 17.14 97.9019 16.724 98.5419 16.5C99.1819 16.276 99.7579 16.308 100.302 16.596C100.046 16.948 99.8219 17.332 99.6939 17.812C99.5659 18.26 99.5339 18.708 99.5339 19.156C99.5339 19.604 99.5339 20.052 99.5339 20.532C99.5659 21.46 99.5659 22.388 99.5339 23.252V31.316C99.5339 31.54 99.6299 31.732 99.7899 31.892C99.9499 32.052 100.142 32.116 100.366 32.116ZM107.896 16.596C107.64 16.948 107.416 17.332 107.288 17.812C107.16 18.26 107.128 18.708 107.128 19.156C107.128 19.604 107.128 20.052 107.128 20.532C107.192 22.292 107.16 23.988 107.032 25.588C106.936 26.676 106.808 27.476 106.648 28.02C106.264 29.3 105.496 30.356 104.376 31.188C103.256 32.052 102.008 32.5 100.696 32.5H100.536V32.116H100.664H100.76C101.304 32.116 101.784 31.828 102.232 31.252C102.648 30.644 103 29.972 103.288 29.236C103.544 28.404 103.704 27.22 103.768 25.652C103.768 25.204 103.8 24.5 103.832 23.54C103.832 22.58 103.864 21.876 103.896 21.364C103.896 20.084 104.024 19.124 104.28 18.484L104.44 18.068C104.504 17.94 104.568 17.812 104.632 17.684C104.984 17.14 105.496 16.724 106.136 16.5C106.776 16.276 107.352 16.308 107.896 16.596ZM105.656 34.196C105.752 34.324 105.848 34.452 105.912 34.58C105.944 34.612 105.88 34.708 105.72 34.868C105.56 35.06 105.368 35.284 105.144 35.54C105.112 35.572 104.952 35.732 104.696 36.02C104.472 35.764 104.248 35.54 103.96 35.412C104.248 35.636 104.44 35.86 104.6 36.116C104.408 36.308 104.312 36.404 104.312 36.404C104.12 36.084 103.8 35.764 103.352 35.476C102.936 35.22 102.648 34.932 102.52 34.708C102.488 34.676 102.552 34.58 102.712 34.42C102.84 34.26 102.936 34.132 103.032 34.036C103.128 33.94 103.192 33.844 103.288 33.748C103.288 33.716 103.384 33.652 103.48 33.524C103.512 33.524 103.512 33.524 103.512 33.492C103.544 33.46 103.576 33.428 103.608 33.396C103.8 33.204 103.928 33.076 103.992 32.98C103.992 32.98 104.024 32.98 104.024 32.948C104.056 32.948 104.056 32.916 104.056 32.916L104.12 32.884C104.152 32.948 104.216 33.044 104.28 33.108C104.408 33.236 104.568 33.364 104.76 33.492C104.76 33.524 104.792 33.524 104.792 33.524C104.856 33.588 104.888 33.62 104.952 33.652C104.984 33.652 104.984 33.684 105.016 33.684C105.048 33.716 105.08 33.716 105.112 33.748C105.112 33.748 105.144 33.78 105.176 33.812C105.208 33.812 105.24 33.844 105.272 33.876C105.304 33.876 105.336 33.908 105.336 33.94C105.4 33.94 105.4 33.972 105.432 34.004C105.464 34.036 105.496 34.036 105.496 34.068C105.528 34.068 105.56 34.1 105.592 34.132C105.592 34.132 105.592 34.164 105.624 34.164C105.624 34.196 105.624 34.196 105.656 34.196Z" fill="black"/>
<path d="M15.2699 32.116V32.5C14.8859 32.5 14.5339 32.436 14.1819 32.276C14.0859 33.172 13.9579 33.876 13.7979 34.42C13.4139 35.7 12.6459 36.756 11.5259 37.62C10.3739 38.452 9.12589 38.9 7.81389 38.9C7.14189 38.932 6.50189 38.804 5.82989 38.612C5.86189 38.516 5.89389 38.388 5.92589 38.228C6.66189 38.452 7.33389 38.452 7.94189 38.292C8.48589 38.132 8.99789 37.78 9.44589 37.3C9.89389 36.788 10.2139 36.212 10.4379 35.604C10.7259 34.804 10.8859 33.62 10.9179 32.02C10.9179 31.572 10.9499 29.78 10.9819 26.708C11.0139 23.636 11.0139 21.844 11.0459 21.364C11.0779 19.668 11.3339 18.452 11.8139 17.684C12.1659 17.108 12.6459 16.692 13.2859 16.468C13.9259 16.244 14.5019 16.276 15.0779 16.596C14.7899 16.916 14.5979 17.3 14.4699 17.78C14.3419 18.26 14.2779 18.708 14.2779 19.124C14.2779 19.572 14.2779 20.052 14.3099 20.532C14.3419 21.684 14.3419 23.796 14.3099 26.932V31.284C14.3099 31.508 14.3739 31.7 14.5339 31.86C14.6939 32.02 14.8859 32.116 15.1099 32.116H15.2699ZM16.1831 14.868C15.7351 14.612 15.4791 14.356 15.3191 14.1C15.3191 14.068 15.3831 13.972 15.5431 13.812C15.6391 13.684 15.7671 13.556 15.8631 13.428C15.9271 13.332 15.9911 13.236 16.0871 13.14C16.1191 13.108 16.1831 13.044 16.2791 12.916H16.3111C16.3431 12.884 16.4071 12.82 16.4391 12.788C16.5991 12.596 16.7271 12.468 16.8231 12.372C16.8231 12.372 16.8231 12.372 16.8551 12.34L16.8871 12.308L16.9191 12.276C16.9831 12.34 17.0471 12.436 17.1111 12.5C17.2071 12.628 17.3671 12.756 17.5591 12.916C17.5911 12.916 17.5911 12.916 17.6231 12.916C17.6551 12.98 17.7191 13.012 17.7831 13.044L17.8151 13.076C17.8471 13.108 17.8791 13.108 17.9111 13.14C17.9111 13.14 17.9431 13.172 18.0071 13.204C18.0391 13.236 18.0711 13.236 18.0711 13.268C18.1351 13.3 18.1351 13.3 18.1671 13.332C18.1991 13.364 18.2311 13.364 18.2311 13.396H18.2631C18.2951 13.428 18.2951 13.428 18.3271 13.46C18.3271 13.46 18.3591 13.492 18.3911 13.524L18.4231 13.556C18.4551 13.588 18.4551 13.588 18.4551 13.588C18.5511 13.716 18.6471 13.844 18.7431 13.972C18.7431 14.004 18.6791 14.1 18.5191 14.26C18.3591 14.452 18.1991 14.676 17.9751 14.932C17.9431 14.964 17.7831 15.124 17.4951 15.412C17.3031 15.156 17.0471 14.932 16.7911 14.804C17.0471 15.028 17.2711 15.252 17.4311 15.508C17.2391 15.7 17.1431 15.796 17.1431 15.796C16.9511 15.476 16.6311 15.188 16.1831 14.868ZM20.2471 12.916C20.2791 12.852 20.3111 12.82 20.3751 12.788C20.5351 12.596 20.6631 12.468 20.7271 12.372C20.7591 12.372 20.7591 12.372 20.7911 12.34C20.7911 12.34 20.7911 12.308 20.8231 12.308L20.8551 12.276C20.8871 12.34 20.9511 12.436 21.0471 12.5C21.1431 12.628 21.3031 12.756 21.4951 12.916C21.5271 12.916 21.5271 12.916 21.5271 12.916C21.5911 12.98 21.6551 13.012 21.7191 13.044L21.7511 13.076C21.7831 13.108 21.8151 13.108 21.8471 13.14C21.8471 13.14 21.8791 13.172 21.9431 13.204C21.9751 13.236 21.9751 13.236 22.0071 13.268C22.0391 13.3 22.0711 13.3 22.1031 13.332C22.1351 13.364 22.1671 13.364 22.1671 13.396C22.1991 13.428 22.2311 13.428 22.2631 13.46C22.2631 13.46 22.2951 13.492 22.3271 13.524C22.3271 13.524 22.3271 13.556 22.3591 13.556C22.3591 13.588 22.3911 13.588 22.3911 13.588C22.4871 13.716 22.5831 13.844 22.6471 13.972C22.6791 14.004 22.6151 14.1 22.4551 14.26C22.2951 14.452 22.1031 14.676 21.9111 14.932C21.8791 14.964 21.7191 15.124 21.4311 15.412C21.2071 15.156 20.9831 14.932 20.7271 14.804C20.9831 15.028 21.1751 15.252 21.3351 15.508C21.1431 15.7 21.0471 15.796 21.0471 15.796C20.8871 15.476 20.5671 15.188 20.1191 14.868C19.6711 14.612 19.3831 14.356 19.2551 14.1C19.2231 14.068 19.2871 13.972 19.4471 13.812C19.5751 13.684 19.6711 13.556 19.7671 13.428C19.8631 13.332 19.9271 13.236 20.0231 13.14C20.0551 13.108 20.1191 13.044 20.2151 12.916H20.2471ZM22.6471 32.116H22.8071V32.5C22.1351 32.5 21.5271 32.34 21.0151 31.956C20.4711 31.572 20.0871 31.092 19.8951 30.484C18.6151 31.796 17.1111 32.468 15.3831 32.5H15.2231V32.116H15.3511H15.3831H15.4471C15.9911 32.116 16.4711 31.828 16.9191 31.252C17.3351 30.644 17.6871 29.972 17.9751 29.236C18.2311 28.404 18.3911 27.22 18.4551 25.652C18.4551 25.204 18.4871 24.5 18.5191 23.54C18.5191 22.58 18.5511 21.876 18.5831 21.364C18.5831 20.084 18.7111 19.124 18.9671 18.484L19.1271 18.068C19.1911 17.94 19.2551 17.812 19.3191 17.684C19.6711 17.14 20.1831 16.724 20.8231 16.5C21.4631 16.276 22.0391 16.308 22.5831 16.596C22.3271 16.948 22.1031 17.332 21.9751 17.812C21.8471 18.26 21.8151 18.708 21.8151 19.156C21.8151 19.604 21.8151 20.052 21.8151 20.532C21.8471 21.46 21.8471 22.388 21.8151 23.252V31.316C21.8151 31.54 21.9111 31.732 22.0711 31.892C22.2311 32.052 22.4231 32.116 22.6471 32.116ZM40.9929 16.628C40.7049 16.948 40.5129 17.364 40.3849 17.812C40.2249 18.292 40.1609 18.74 40.1609 19.156C40.1609 19.604 40.1609 20.084 40.1929 20.564C40.2249 22.324 40.1609 23.988 40.0329 25.62C39.9369 26.708 39.8089 27.508 39.6489 28.052C39.2329 29.332 38.4649 30.388 37.3129 31.252C36.1609 32.084 34.9129 32.5 33.6009 32.5C33.1849 32.5 32.8009 32.468 32.4169 32.404C31.8409 32.308 31.2969 32.148 30.7529 31.924C29.8889 32.308 29.0249 32.5 28.1609 32.5C27.7769 32.5 27.3929 32.468 27.0089 32.404C26.4329 32.308 25.8889 32.148 25.3769 31.956C24.7049 32.244 24.0009 32.436 23.2969 32.5C23.1689 32.5 23.0729 32.5 22.9769 32.5H22.8169V32.116H23.0409C23.5849 32.116 24.0649 31.828 24.5129 31.252C24.9289 30.644 25.2809 29.972 25.5689 29.236C25.8249 28.404 25.9849 27.22 26.0489 25.652C26.0489 25.236 26.0809 24.468 26.1129 23.284C26.1129 23.284 26.1129 23.284 26.1129 23.252V23.22C26.1449 22.548 26.1449 21.94 26.1769 21.364C26.2409 19.668 26.4969 18.452 26.9769 17.684C27.3289 17.108 27.8089 16.724 28.4489 16.5C29.0889 16.276 29.6969 16.308 30.2409 16.628C29.9529 16.948 29.7609 17.364 29.6329 17.812C29.5049 18.292 29.4409 18.74 29.4409 19.156C29.4409 19.604 29.4409 20.084 29.4409 20.564C29.4729 22.324 29.4409 23.988 29.2809 25.62C29.1849 26.708 29.0569 27.508 28.8969 28.052C28.4169 29.62 27.4249 30.804 25.9209 31.668C26.2729 31.796 26.6249 31.892 26.9449 31.956C27.2329 31.988 27.5209 32.02 27.7769 31.988C27.9689 31.956 28.1289 31.924 28.2889 31.892C28.8649 31.732 29.3449 31.412 29.7929 30.9C30.2729 30.388 30.5929 29.844 30.8169 29.236C31.1049 28.436 31.2649 27.22 31.3289 25.652C31.3609 25.172 31.3929 24.468 31.4249 23.508C31.4569 22.548 31.4889 21.844 31.4889 21.364C31.5529 19.668 31.8089 18.452 32.2889 17.684C32.6409 17.108 33.1209 16.724 33.7609 16.5C34.4009 16.276 35.0089 16.308 35.5529 16.628C35.2649 16.948 35.0729 17.364 34.9449 17.812C34.8169 18.292 34.7529 18.74 34.7529 19.156C34.7529 19.604 34.7529 20.084 34.7529 20.564C34.7849 22.324 34.7529 23.988 34.6249 25.62C34.4969 26.708 34.3689 27.508 34.2089 28.052C33.7289 29.588 32.7369 30.804 31.2649 31.636C31.6169 31.764 32.0009 31.86 32.3849 31.956C32.6729 31.988 32.9289 32.02 33.2169 31.988C33.3769 31.956 33.5689 31.924 33.7289 31.892C34.2729 31.732 34.7849 31.412 35.2329 30.9C35.6809 30.388 36.0329 29.844 36.2569 29.236C36.5449 28.436 36.7049 27.22 36.7689 25.652C36.7689 25.172 36.8009 24.468 36.8329 23.508C36.8649 22.548 36.8969 21.844 36.9289 21.364C36.9609 19.668 37.2489 18.452 37.7289 17.684C38.0809 17.108 38.5609 16.724 39.2009 16.5C39.8409 16.276 40.4489 16.308 40.9929 16.628ZM48.2454 32.148L48.3414 32.116V32.5H47.8934C46.6134 32.5 45.3974 32.052 44.3094 31.156C43.2214 30.26 42.4854 29.172 42.1334 27.892C41.9734 27.348 41.8774 26.516 41.7814 25.46C41.7494 24.596 41.7174 22.74 41.7494 19.86C41.7494 16.98 41.7494 15.124 41.8134 14.292C41.9094 13.652 41.9094 12.98 41.8134 12.212C41.7174 11.444 41.4934 10.804 41.1414 10.324C41.6854 10.036 42.2614 10.004 42.9014 10.26C43.5414 10.484 44.0214 10.9 44.3734 11.476C44.8214 12.244 45.0454 13.492 45.0454 15.188C45.0454 15.668 45.0454 17.396 45.0454 20.372C45.0454 23.348 45.0774 25.108 45.0774 25.588C45.0774 27.156 45.2054 28.34 45.4614 29.172C45.9094 30.452 46.5174 31.348 47.3814 31.892C47.6374 32.052 47.9254 32.148 48.2454 32.148ZM61.8209 16.532C61.5649 16.852 61.3729 17.204 61.2449 17.62C61.1169 18.036 61.0529 18.42 61.0529 18.836C61.0529 19.22 61.0529 19.636 61.0529 20.084C61.1169 21.652 61.0849 23.188 60.9569 24.628C60.8609 25.62 60.7329 26.356 60.5729 26.804C60.1889 27.956 59.4209 28.916 58.3009 29.684C57.1489 30.452 55.9009 30.868 54.5569 30.868C53.9809 30.868 53.3729 30.804 52.7649 30.644C52.2529 31.156 51.6449 31.572 51.0049 31.892C50.2049 32.276 49.4049 32.468 48.6049 32.5H48.3169V32.116C48.4769 32.116 48.6689 32.084 48.8289 32.02C49.3089 31.796 49.7249 31.412 50.1089 30.9C50.5249 30.356 50.8129 29.812 51.0369 29.204C51.2929 28.436 51.4529 27.412 51.4849 26.132C51.5169 25.524 51.5169 24.884 51.5489 24.244C51.5809 23.924 51.5809 23.572 51.6129 23.22C51.7089 22.132 51.8369 21.332 51.9969 20.82C52.2529 19.956 52.6689 19.22 53.2769 18.516C53.8849 17.844 54.5889 17.3 55.4209 16.916C56.2529 16.5 57.1169 16.308 58.0129 16.308C58.5889 16.308 59.1969 16.372 59.7729 16.532C60.5409 16.212 61.2129 16.212 61.8209 16.532ZM58.5889 17.524C58.7489 17.268 58.9729 17.044 59.2289 16.852C58.7489 16.788 58.3009 16.82 57.8849 16.948C57.3089 17.108 56.8289 17.428 56.3809 17.94C55.9329 18.42 55.5809 18.996 55.3569 19.604C55.1009 20.372 54.9409 21.396 54.9089 22.676C54.9089 23.316 54.8769 23.924 54.8449 24.564C54.8449 24.884 54.8129 25.236 54.7809 25.588C54.6849 26.676 54.5569 27.476 54.3969 28.02C54.1409 28.852 53.6929 29.652 53.0849 30.324C53.6609 30.452 54.2049 30.42 54.7169 30.292C55.2609 30.164 55.7409 29.844 56.1889 29.396C56.6369 28.948 56.9889 28.436 57.2129 27.892C57.5009 27.156 57.6609 26.1 57.6929 24.692C57.6929 24.276 57.7249 23.636 57.7569 22.772C57.7889 21.908 57.7889 21.268 57.8209 20.82C57.8529 19.668 57.9809 18.804 58.2049 18.228L58.3649 17.844C58.4289 17.748 58.4929 17.62 58.5889 17.524ZM77.6559 23.988C77.6559 24.084 77.6559 24.212 77.6879 24.372C77.7519 27.348 77.7199 29.876 77.5599 31.956C77.4639 33.076 77.3359 33.876 77.1759 34.388C76.7919 35.668 76.0239 36.756 74.9039 37.588C73.7519 38.452 72.5039 38.9 71.1919 38.9C70.5199 38.9 69.8799 38.804 69.2079 38.612C69.2399 38.516 69.2719 38.388 69.3039 38.228C70.0399 38.452 70.7119 38.452 71.3199 38.26C71.8639 38.1 72.3759 37.78 72.8239 37.268C73.2719 36.788 73.5919 36.212 73.8159 35.604C74.1039 34.804 74.2639 33.588 74.2959 32.02C74.2959 31.988 74.2959 31.956 74.2959 31.892C74.2959 31.86 74.2959 31.796 74.2959 31.764C74.2959 31.7 74.2959 31.636 74.2959 31.604C73.3039 32.212 72.2799 32.5 71.1919 32.5C70.5839 32.532 69.9759 32.436 69.3999 32.276C68.6319 32.628 67.9599 32.628 67.3519 32.244C67.6399 31.924 67.8319 31.54 67.9599 31.06C68.0879 30.612 68.1519 30.132 68.1519 29.716C68.1519 29.268 68.1199 28.82 68.1199 28.308C68.0879 26.58 68.1199 24.884 68.2159 23.252C68.3119 22.164 68.4399 21.364 68.5999 20.852C68.9839 19.572 69.7519 18.484 70.9039 17.652C72.0559 16.788 73.2719 16.372 74.6159 16.34C75.2239 16.34 75.8319 16.436 76.4079 16.596C77.1759 16.244 77.8479 16.244 78.4559 16.628C78.1679 16.948 77.9759 17.332 77.8479 17.812C77.7199 18.26 77.6559 18.708 77.6559 19.156C77.6559 19.604 77.6559 20.052 77.6879 20.532C77.7199 21.716 77.6879 22.868 77.6559 23.988ZM73.8159 29.236C74.1039 28.404 74.2639 27.22 74.2959 25.652C74.2959 25.204 74.3279 24.5 74.3599 23.54C74.3919 22.58 74.3919 21.876 74.4239 21.364C74.4559 20.084 74.5839 19.124 74.8079 18.484L74.9679 18.068C75.0319 17.94 75.0959 17.812 75.1919 17.684C75.3839 17.396 75.6079 17.108 75.9279 16.884C75.3839 16.82 74.9359 16.852 74.4879 16.98C73.9439 17.14 73.4319 17.46 72.9839 17.972C72.5359 18.484 72.2159 19.028 71.9919 19.636C71.7039 20.436 71.5439 21.652 71.5119 23.22C71.4799 23.668 71.4799 24.372 71.4479 25.332C71.4159 26.26 71.3839 26.996 71.3839 27.476C71.3519 28.788 71.2239 29.748 70.9999 30.388L70.8079 30.804C70.7759 30.932 70.6799 31.06 70.6159 31.156C70.4239 31.476 70.1999 31.732 69.8799 31.956C70.3919 32.052 70.8719 32.02 71.3199 31.892C71.8639 31.732 72.3759 31.38 72.8239 30.9C73.2719 30.388 73.5919 29.844 73.8159 29.236ZM85.3949 32.116V32.5C85.0109 32.5 84.6589 32.436 84.3069 32.276C84.2109 33.172 84.0829 33.876 83.9229 34.42C83.5389 35.7 82.7709 36.756 81.6509 37.62C80.4989 38.452 79.2509 38.9 77.9389 38.9C77.2669 38.932 76.6269 38.804 75.9549 38.612C75.9869 38.516 76.0189 38.388 76.0509 38.228C76.7869 38.452 77.4589 38.452 78.0669 38.292C78.6109 38.132 79.1229 37.78 79.5709 37.3C80.0189 36.788 80.3389 36.212 80.5629 35.604C80.8509 34.804 81.0109 33.62 81.0429 32.02C81.0429 31.572 81.0749 29.78 81.1069 26.708C81.1389 23.636 81.1389 21.844 81.1709 21.364C81.2029 19.668 81.4589 18.452 81.9389 17.684C82.2909 17.108 82.7709 16.692 83.4109 16.468C84.0509 16.244 84.6269 16.276 85.2029 16.596C84.9149 16.916 84.7229 17.3 84.5949 17.78C84.4669 18.26 84.4029 18.708 84.4029 19.124C84.4029 19.572 84.4029 20.052 84.4349 20.532C84.4669 21.684 84.4669 23.796 84.4349 26.932V31.284C84.4349 31.508 84.4989 31.7 84.6589 31.86C84.8189 32.02 85.0109 32.116 85.2349 32.116H85.3949ZM86.3081 14.868C85.8601 14.612 85.6041 14.356 85.4441 14.1C85.4441 14.068 85.5081 13.972 85.6681 13.812C85.7641 13.684 85.8921 13.556 85.9881 13.428C86.0521 13.332 86.1161 13.236 86.2121 13.14C86.2441 13.108 86.3081 13.044 86.4041 12.916H86.4361C86.4681 12.884 86.5321 12.82 86.5641 12.788C86.7241 12.596 86.8521 12.468 86.9481 12.372C86.9481 12.372 86.9481 12.372 86.9801 12.34L87.0121 12.308L87.0441 12.276C87.1081 12.34 87.1721 12.436 87.2361 12.5C87.3321 12.628 87.4921 12.756 87.6841 12.916C87.7161 12.916 87.7161 12.916 87.7481 12.916C87.7801 12.98 87.8441 13.012 87.9081 13.044L87.9401 13.076C87.9721 13.108 88.0041 13.108 88.0361 13.14C88.0361 13.14 88.0681 13.172 88.1321 13.204C88.1641 13.236 88.1961 13.236 88.1961 13.268C88.2601 13.3 88.2601 13.3 88.2921 13.332C88.3241 13.364 88.3561 13.364 88.3561 13.396H88.3881C88.4201 13.428 88.4201 13.428 88.4521 13.46C88.4521 13.46 88.4841 13.492 88.5161 13.524L88.5481 13.556C88.5801 13.588 88.5801 13.588 88.5801 13.588C88.6761 13.716 88.7721 13.844 88.8681 13.972C88.8681 14.004 88.8041 14.1 88.6441 14.26C88.4841 14.452 88.3241 14.676 88.1001 14.932C88.0681 14.964 87.9081 15.124 87.6201 15.412C87.4281 15.156 87.1721 14.932 86.9161 14.804C87.1721 15.028 87.3961 15.252 87.5561 15.508C87.3641 15.7 87.2681 15.796 87.2681 15.796C87.0761 15.476 86.7561 15.188 86.3081 14.868ZM90.3721 12.916C90.4041 12.852 90.4361 12.82 90.5001 12.788C90.6601 12.596 90.7881 12.468 90.8521 12.372C90.8841 12.372 90.8841 12.372 90.9161 12.34C90.9161 12.34 90.9161 12.308 90.9481 12.308L90.9801 12.276C91.0121 12.34 91.0761 12.436 91.1721 12.5C91.2681 12.628 91.4281 12.756 91.6201 12.916C91.6521 12.916 91.6521 12.916 91.6521 12.916C91.7161 12.98 91.7801 13.012 91.8441 13.044L91.8761 13.076C91.9081 13.108 91.9401 13.108 91.9721 13.14C91.9721 13.14 92.0041 13.172 92.0681 13.204C92.1001 13.236 92.1001 13.236 92.1321 13.268C92.1641 13.3 92.1961 13.3 92.2281 13.332C92.2601 13.364 92.2921 13.364 92.2921 13.396C92.3241 13.428 92.3561 13.428 92.3881 13.46C92.3881 13.46 92.4201 13.492 92.4521 13.524C92.4521 13.524 92.4521 13.556 92.4841 13.556C92.4841 13.588 92.5161 13.588 92.5161 13.588C92.6121 13.716 92.7081 13.844 92.7721 13.972C92.8041 14.004 92.7401 14.1 92.5801 14.26C92.4201 14.452 92.2281 14.676 92.0361 14.932C92.0041 14.964 91.8441 15.124 91.5561 15.412C91.3321 15.156 91.1081 14.932 90.8521 14.804C91.1081 15.028 91.3001 15.252 91.4601 15.508C91.2681 15.7 91.1721 15.796 91.1721 15.796C91.0121 15.476 90.6921 15.188 90.2441 14.868C89.7961 14.612 89.5081 14.356 89.3801 14.1C89.3481 14.068 89.4121 13.972 89.5721 13.812C89.7001 13.684 89.7961 13.556 89.8921 13.428C89.9881 13.332 90.0521 13.236 90.1481 13.14C90.1801 13.108 90.2441 13.044 90.3401 12.916H90.3721ZM92.7721 32.116H92.9321V32.5C92.2601 32.5 91.6521 32.34 91.1401 31.956C90.5961 31.572 90.2121 31.092 90.0201 30.484C88.7401 31.796 87.2361 32.468 85.5081 32.5H85.3481V32.116H85.4761H85.5081H85.5721C86.1161 32.116 86.5961 31.828 87.0441 31.252C87.4601 30.644 87.8121 29.972 88.1001 29.236C88.3561 28.404 88.5161 27.22 88.5801 25.652C88.5801 25.204 88.6121 24.5 88.6441 23.54C88.6441 22.58 88.6761 21.876 88.7081 21.364C88.7081 20.084 88.8361 19.124 89.0921 18.484L89.2521 18.068C89.3161 17.94 89.3801 17.812 89.4441 17.684C89.7961 17.14 90.3081 16.724 90.9481 16.5C91.5881 16.276 92.1641 16.308 92.7081 16.596C92.4521 16.948 92.2281 17.332 92.1001 17.812C91.9721 18.26 91.9401 18.708 91.9401 19.156C91.9401 19.604 91.9401 20.052 91.9401 20.532C91.9721 21.46 91.9721 22.388 91.9401 23.252V31.316C91.9401 31.54 92.0361 31.732 92.1961 31.892C92.3561 32.052 92.5481 32.116 92.7721 32.116ZM96.3019 34.324C96.4299 34.452 96.4939 34.548 96.5899 34.708C96.5899 34.74 96.5259 34.836 96.3659 34.996C96.2059 35.188 96.0459 35.412 95.8219 35.636C95.7899 35.668 95.6299 35.86 95.3419 36.148C95.1499 35.86 94.8939 35.668 94.6379 35.508C94.8939 35.732 95.1179 35.988 95.2779 36.212C95.0859 36.436 94.9899 36.532 94.9899 36.532C94.7979 36.212 94.4779 35.892 94.0299 35.604C93.6139 35.316 93.3259 35.06 93.1659 34.804C93.1659 34.772 93.2299 34.676 93.3899 34.516C93.4859 34.388 93.6139 34.26 93.7099 34.132C93.7739 34.036 93.8699 33.972 93.9339 33.876C93.9659 33.844 94.0299 33.748 94.1579 33.652C94.1579 33.652 94.1579 33.652 94.1579 33.62C94.1899 33.588 94.2539 33.556 94.2859 33.492C94.4459 33.332 94.5739 33.204 94.6699 33.108C94.6699 33.108 94.6699 33.076 94.7019 33.076C94.7019 33.044 94.7339 33.044 94.7339 33.044L94.7659 32.98C94.8299 33.076 94.8939 33.14 94.9579 33.236C95.0539 33.364 95.2139 33.492 95.4059 33.62C95.4379 33.62 95.4379 33.652 95.4699 33.652C95.5019 33.684 95.5659 33.716 95.6299 33.78H95.6619C95.6939 33.812 95.7259 33.844 95.7579 33.844C95.7899 33.876 95.7899 33.876 95.8539 33.908C95.8859 33.94 95.9179 33.972 95.9499 33.972C95.9819 34.004 95.9819 34.036 96.0139 34.036C96.0459 34.068 96.0779 34.1 96.0779 34.1C96.1419 34.132 96.1419 34.164 96.1739 34.164C96.1739 34.196 96.2059 34.228 96.2379 34.26C96.2379 34.26 96.2699 34.26 96.2699 34.292C96.3019 34.292 96.3019 34.324 96.3019 34.324ZM100.046 34.324C100.174 34.452 100.238 34.548 100.334 34.708C100.334 34.74 100.27 34.836 100.11 34.996C99.9499 35.188 99.7899 35.412 99.5659 35.636C99.5339 35.668 99.3739 35.86 99.0859 36.148C98.8939 35.86 98.6379 35.668 98.3819 35.508C98.6379 35.732 98.8619 35.988 99.0219 36.212C98.8299 36.436 98.7339 36.532 98.7339 36.532C98.5419 36.212 98.2219 35.892 97.7739 35.604C97.3579 35.316 97.0699 35.06 96.9099 34.804C96.9099 34.772 96.9739 34.676 97.1339 34.516C97.2299 34.388 97.3579 34.26 97.4539 34.132C97.5179 34.068 97.6139 33.972 97.6779 33.876C97.7099 33.844 97.7739 33.748 97.9019 33.652C97.9019 33.62 97.9019 33.62 97.9019 33.62C97.9659 33.588 97.9979 33.556 98.0299 33.492C98.1899 33.332 98.3179 33.204 98.4139 33.108C98.4139 33.108 98.4139 33.076 98.4459 33.076C98.4459 33.044 98.4779 33.044 98.4779 33.044L98.5099 32.98C98.5739 33.076 98.6379 33.14 98.7019 33.236C98.7979 33.364 98.9579 33.492 99.1499 33.62C99.1819 33.62 99.1819 33.652 99.2139 33.652C99.2459 33.684 99.3099 33.716 99.3739 33.78C99.4059 33.78 99.4059 33.78 99.4379 33.78C99.4699 33.812 99.4699 33.844 99.5019 33.844C99.5339 33.876 99.5659 33.876 99.5979 33.908C99.6299 33.94 99.6619 33.972 99.6939 33.972C99.7259 34.004 99.7579 34.036 99.7579 34.036C99.7899 34.068 99.8219 34.1 99.8219 34.1C99.8859 34.132 99.8859 34.164 99.9179 34.164C99.9179 34.196 99.9499 34.228 99.9819 34.26C99.9819 34.26 100.014 34.26 100.014 34.292C100.046 34.292 100.046 34.324 100.046 34.324ZM100.366 32.116H100.526V32.5C99.8539 32.5 99.2459 32.34 98.7339 31.956C98.1899 31.572 97.8059 31.092 97.6139 30.484C96.3339 31.796 94.8299 32.468 93.1019 32.5H92.9419V32.116H93.0699H93.1019H93.1659C93.7099 32.116 94.1899 31.828 94.6379 31.252C95.0539 30.644 95.4059 29.972 95.6939 29.236C95.9499 28.404 96.1099 27.22 96.1739 25.652C96.1739 25.204 96.2059 24.5 96.2379 23.54C96.2379 22.58 96.2699 21.876 96.3019 21.364C96.3019 20.084 96.4299 19.124 96.6859 18.484L96.8459 18.068C96.9099 17.94 96.9739 17.812 97.0379 17.684C97.3899 17.14 97.9019 16.724 98.5419 16.5C99.1819 16.276 99.7579 16.308 100.302 16.596C100.046 16.948 99.8219 17.332 99.6939 17.812C99.5659 18.26 99.5339 18.708 99.5339 19.156C99.5339 19.604 99.5339 20.052 99.5339 20.532C99.5659 21.46 99.5659 22.388 99.5339 23.252V31.316C99.5339 31.54 99.6299 31.732 99.7899 31.892C99.9499 32.052 100.142 32.116 100.366 32.116ZM107.896 16.596C107.64 16.948 107.416 17.332 107.288 17.812C107.16 18.26 107.128 18.708 107.128 19.156C107.128 19.604 107.128 20.052 107.128 20.532C107.192 22.292 107.16 23.988 107.032 25.588C106.936 26.676 106.808 27.476 106.648 28.02C106.264 29.3 105.496 30.356 104.376 31.188C103.256 32.052 102.008 32.5 100.696 32.5H100.536V32.116H100.664H100.76C101.304 32.116 101.784 31.828 102.232 31.252C102.648 30.644 103 29.972 103.288 29.236C103.544 28.404 103.704 27.22 103.768 25.652C103.768 25.204 103.8 24.5 103.832 23.54C103.832 22.58 103.864 21.876 103.896 21.364C103.896 20.084 104.024 19.124 104.28 18.484L104.44 18.068C104.504 17.94 104.568 17.812 104.632 17.684C104.984 17.14 105.496 16.724 106.136 16.5C106.776 16.276 107.352 16.308 107.896 16.596ZM105.656 34.196C105.752 34.324 105.848 34.452 105.912 34.58C105.944 34.612 105.88 34.708 105.72 34.868C105.56 35.06 105.368 35.284 105.144 35.54C105.112 35.572 104.952 35.732 104.696 36.02C104.472 35.764 104.248 35.54 103.96 35.412C104.248 35.636 104.44 35.86 104.6 36.116C104.408 36.308 104.312 36.404 104.312 36.404C104.12 36.084 103.8 35.764 103.352 35.476C102.936 35.22 102.648 34.932 102.52 34.708C102.488 34.676 102.552 34.58 102.712 34.42C102.84 34.26 102.936 34.132 103.032 34.036C103.128 33.94 103.192 33.844 103.288 33.748C103.288 33.716 103.384 33.652 103.48 33.524C103.512 33.524 103.512 33.524 103.512 33.492C103.544 33.46 103.576 33.428 103.608 33.396C103.8 33.204 103.928 33.076 103.992 32.98C103.992 32.98 104.024 32.98 104.024 32.948C104.056 32.948 104.056 32.916 104.056 32.916L104.12 32.884C104.152 32.948 104.216 33.044 104.28 33.108C104.408 33.236 104.568 33.364 104.76 33.492C104.76 33.524 104.792 33.524 104.792 33.524C104.856 33.588 104.888 33.62 104.952 33.652C104.984 33.652 104.984 33.684 105.016 33.684C105.048 33.716 105.08 33.716 105.112 33.748C105.112 33.748 105.144 33.78 105.176 33.812C105.208 33.812 105.24 33.844 105.272 33.876C105.304 33.876 105.336 33.908 105.336 33.94C105.4 33.94 105.4 33.972 105.432 34.004C105.464 34.036 105.496 34.036 105.496 34.068C105.528 34.068 105.56 34.1 105.592 34.132C105.592 34.132 105.592 34.164 105.624 34.164C105.624 34.196 105.624 34.196 105.656 34.196Z" fill="white"/>
<path d="M123.086 6.29032C126.164 2.28024 131.024 0 136.207 0H152.164C153.783 0 155.322 0.864919 156.132 2.28024L173.466 33.5746C174.114 34.754 174.114 36.0907 173.385 37.1915C172.656 38.2923 171.441 39 170.145 39H161.802C160.263 39 158.886 38.2137 158.157 36.877L154.35 30.1149C154.269 30.0363 154.269 29.9577 154.188 29.8004L153.864 29.1714C153.864 29.0927 153.783 29.0927 153.783 29.0141C151.921 29.8004 150.463 31.8448 148.519 29.9577C146.98 27.9133 144.955 26.0262 143.416 24.0605C142.525 22.8811 141.877 21.3871 140.986 20.2077C140.905 20.129 140.905 20.0504 140.905 19.8931C140.905 19.3427 142.282 17.7702 142.363 17.2198C142.444 16.6694 141.796 15.9617 142.12 15.3327L139.042 13.5242C138.394 13.5242 137.746 13.3669 137.098 13.2883C136.531 13.2097 133.534 13.131 133.291 12.8952C133.129 12.7379 133.291 10.6935 133.372 10.379C133.372 10.3004 133.453 10.2218 133.534 10.1431C134.02 9.82863 138.88 10.6936 139.771 10.6149L143.659 12.5806C144.145 11.0081 145.36 12.9738 146.008 13.131C146.332 13.2097 147.223 12.8165 147.628 12.9738L152.731 17.6915C152.974 18.2419 152.164 19.5 152.245 20.2077C153.54 22.5665 155.079 24.7681 156.294 27.127C156.294 27.3629 156.213 27.5202 156.213 27.5202C156.213 27.5202 156.294 27.6774 156.375 27.8347L160.668 35.4617C160.911 35.8548 161.721 36.0907 161.721 36.0907C161.721 36.0907 166.986 36.0907 169.74 36.0907C170.55 36.0907 171.036 35.3044 170.631 34.5968C167.067 28.2278 153.378 3.53831 153.378 3.53831C153.136 3.06653 152.569 2.75202 152.002 2.75202H136.207C131.995 2.75202 127.946 4.63911 125.435 7.94153C123.005 11.244 122.276 15.254 123.491 19.1069C125.192 24.4536 130.376 27.9919 136.207 27.9919H142.687C142.93 27.9919 143.092 28.0706 143.254 28.2278L145.279 30.2722C145.522 30.5081 145.36 30.8226 145.036 30.8226H135.964C128.999 30.8226 122.924 26.498 120.737 20.129C119.117 15.4899 120.008 10.379 123.086 6.29032ZM148.681 28.8569L147.547 24.8468C147.142 23.746 145.603 24.4536 144.712 24.2964L148.681 28.8569ZM144.955 22.6452C145.36 22.4093 145.765 22.0948 146.251 21.7802C145.846 22.0948 145.36 22.4093 144.955 22.6452ZM152.893 28.3065C151.678 26.498 150.706 24.6109 149.491 22.8024C149.248 22.4093 148.924 21.8589 148.438 21.7802C147.79 21.7016 146.332 23.0383 145.603 23.2742C145.603 23.4315 145.684 23.3528 145.846 23.3528C146.089 23.3528 146.332 23.2742 146.575 23.2742C147.709 23.3528 148.195 23.6673 148.6 24.7681C149.167 26.4194 149.491 28.2278 150.058 29.879C150.625 30.2722 152.407 28.7782 152.974 28.5423L152.893 28.3065Z" fill="white"/>
</svg>
