<svg width="50" height="50" viewBox="0 0 50 50" fill="none" xmlns="http://www.w3.org/2000/svg">
<path d="M4.77087 16.2084V36.4793C4.77087 40.4376 7.58337 42.0626 11 40.1043L15.8959 37.3126C16.9584 36.7084 18.7292 36.6459 19.8334 37.2084L30.7709 42.6876C31.875 43.2293 33.6459 43.1876 34.7084 42.5834L43.7292 37.4168C44.875 36.7501 45.8334 35.1251 45.8334 33.7918V13.5209C45.8334 9.56261 43.0209 7.93761 39.6042 9.89595L34.7084 12.6876C33.6459 13.2918 31.875 13.3543 30.7709 12.7918L19.8334 7.33345C18.7292 6.79178 16.9584 6.83345 15.8959 7.43761L6.87504 12.6043C5.70837 13.2709 4.77087 14.8959 4.77087 16.2084Z" stroke="#000232" stroke-width="3" stroke-linecap="round" stroke-linejoin="round"/>
<path d="M17.8334 8.3335V35.4168" stroke="#000232" stroke-width="3" stroke-linecap="round" stroke-linejoin="round"/>
<path d="M32.7709 13.7915V41.6665" stroke="#000232" stroke-width="3" stroke-linecap="round" stroke-linejoin="round"/>
</svg>
