<svg width="24" height="24" viewBox="0 0 24 24" fill="none" xmlns="http://www.w3.org/2000/svg">
<mask id="mask0_311_10239" style="mask-type:alpha" maskUnits="userSpaceOnUse" x="-11" y="-5" width="46" height="34">
<path d="M-7.82831 0.689902C-5.2701 -2.74348 -1.23083 -4.6958 3.07773 -4.6958H16.34C17.6864 -4.6958 18.9656 -3.95527 19.6388 -2.74348L34.0455 24.0504C34.5841 25.0602 34.5841 26.2047 33.9782 27.1472C33.3723 28.0897 32.3625 28.6956 31.2854 28.6956H24.3513C23.0722 28.6956 21.9277 28.0223 21.3218 26.8779L18.1577 21.0883C18.0904 21.0209 18.0904 20.9536 18.0231 20.819L17.7538 20.2804C17.7538 20.2131 17.6864 20.2131 17.6864 20.1458C16.1381 20.819 14.9263 22.5693 13.3106 20.9536C12.0315 19.2033 10.3484 17.5875 9.06933 15.9045C8.32879 14.8947 7.79022 13.6156 7.04969 12.6058C6.98237 12.5384 6.98237 12.4711 6.98237 12.3365C6.98237 11.8652 8.12683 10.5188 8.19415 10.0476C8.26147 9.57631 7.7229 8.97042 7.99219 8.43185L5.43398 6.88346C4.89541 6.88346 4.35684 6.74882 3.81827 6.6815C3.34702 6.61418 0.856125 6.54685 0.654163 6.34489C0.51952 6.21025 0.654167 4.45989 0.721489 4.19061C0.721489 4.12329 0.788807 4.05597 0.856129 3.98865C1.26006 3.71936 5.29934 4.4599 6.03987 4.39257L9.27129 6.07561C9.67522 4.72918 10.685 6.41221 11.2236 6.54685C11.4929 6.61417 12.2334 6.27757 12.57 6.41221L16.8113 10.4515C17.0132 10.9227 16.34 11.9999 16.4073 12.6058C17.4845 14.6254 18.7636 16.5104 19.7734 18.53C19.7734 18.732 19.7061 18.8666 19.7061 18.8666C19.7061 18.8666 19.7734 19.0013 19.8407 19.1359L23.4088 25.6661C23.6107 26.0027 24.2839 26.2047 24.2839 26.2047C24.2839 26.2047 28.6598 26.2047 30.9487 26.2047C31.622 26.2047 32.0259 25.5315 31.6893 24.9256C28.7271 19.4725 17.3498 -1.66634 17.3498 -1.66634C17.1479 -2.07027 16.6766 -2.33956 16.2054 -2.33956H3.07773C-0.422974 -2.33956 -3.78904 -0.723844 -5.876 2.10365C-7.89564 4.93114 -8.50153 8.36453 -7.49171 11.6633C-6.07796 16.2411 -1.7694 19.2706 3.07773 19.2706H8.46344C8.6654 19.2706 8.80004 19.3379 8.93468 19.4725L10.6177 21.2229C10.8197 21.4249 10.685 21.6941 10.4158 21.6941H2.87577C-2.91386 21.6941 -7.96296 17.9915 -9.78064 12.5385C-11.1271 8.56649 -10.3865 4.19061 -7.82831 0.689902ZM13.4452 20.0111L12.5027 16.5777C12.1661 15.6352 10.887 16.2411 10.1465 16.1065L13.4452 20.0111ZM10.3484 14.6927C10.685 14.4908 11.0216 14.2215 11.4256 13.9522C11.089 14.2215 10.685 14.4908 10.3484 14.6927ZM16.9459 19.5399C15.9361 17.9915 15.1282 16.3758 14.1184 14.8274C13.9165 14.4908 13.6472 14.0195 13.2432 13.9522C12.7047 13.8849 11.4929 15.0293 10.887 15.2313C10.887 15.3659 10.9543 15.2986 11.089 15.2986C11.2909 15.2986 11.4929 15.2313 11.6949 15.2313C12.6374 15.2986 13.0413 15.5679 13.3779 16.5104C13.8491 17.9242 14.1184 19.4725 14.5897 20.8863C15.0609 21.2229 16.542 19.9438 17.0132 19.7418L16.9459 19.5399Z" fill="url(#paint0_linear_311_10239)"/>
</mask>
<g mask="url(#mask0_311_10239)">
<path d="M13.1761 22.6367L14.5225 31.0519C13.8493 30.9397 13.3107 31.0519 16.5421 32.3983C19.7735 33.7448 24.3963 26.4516 26.3037 22.6367L24.6207 13.885L16.5421 2.44035C13.0639 2.44034 4.62626 2.30567 -1.29802 1.7671C-7.22229 1.22853 -4.21527 4.23555 -1.97123 5.80638L2.74126 11.1921L6.78054 15.568L13.1761 22.6367Z" fill="#D9D9D9"/>
<path d="M13.1761 22.6367L14.5225 31.0519C13.8493 30.9397 13.3107 31.0519 16.5421 32.3983C19.7735 33.7448 24.3963 26.4516 26.3037 22.6367L24.6207 13.885L16.5421 2.44035C13.0639 2.44034 4.62626 2.30567 -1.29802 1.7671C-7.22229 1.22853 -4.21527 4.23555 -1.97123 5.80638L2.74126 11.1921L6.78054 15.568L13.1761 22.6367Z" fill="#000232" fill-opacity="0.19"/>
<path d="M13.1761 22.6367L14.5225 31.0519C13.8493 30.9397 13.3107 31.0519 16.5421 32.3983C19.7735 33.7448 24.3963 26.4516 26.3037 22.6367L24.6207 13.885L16.5421 2.44035C13.0639 2.44034 4.62626 2.30567 -1.29802 1.7671C-7.22229 1.22853 -4.21527 4.23555 -1.97123 5.80638L2.74126 11.1921L6.78054 15.568L13.1761 22.6367Z" stroke="#000232" stroke-opacity="0.08"/>
</g>
<defs>
<linearGradient id="paint0_linear_311_10239" x1="34.4285" y1="12.0036" x2="-10.4203" y2="12.0036" gradientUnits="userSpaceOnUse">
<stop offset="0.0938326" stop-color="#149CD8"/>
<stop offset="0.8943" stop-color="#74CBF4"/>
</linearGradient>
</defs>
</svg>
