<svg width="24" height="24" viewBox="0 0 24 24" fill="none" xmlns="http://www.w3.org/2000/svg">
<path d="M11.9902 2.75C12.821 2.7501 13.5307 3.17602 13.917 3.85938L14.0332 4.06445L14.2471 4.16699C15.9873 4.99788 17.1904 6.77165 17.1904 8.82031V11.3496C17.1904 11.6474 17.2547 11.9968 17.3369 12.3008C17.4197 12.6066 17.5399 12.9401 17.6875 13.2002L17.6924 13.209L17.6973 13.2168L18.6973 14.877L18.6992 14.8799C18.9696 15.3237 19.0161 15.8425 18.8379 16.3154C18.6554 16.7998 18.2832 17.1605 17.8057 17.3174L17.8018 17.3193C15.9414 17.9426 13.9815 18.25 12.0195 18.25C10.0577 18.25 8.09946 17.9418 6.24121 17.3096H6.24023C5.68472 17.1219 5.30808 16.7509 5.15625 16.3271L5.1543 16.3213L5.10254 16.1523C5.00615 15.7524 5.0734 15.3128 5.33203 14.8779L6.3418 13.208L6.34766 13.1982C6.49861 12.9395 6.61948 12.6048 6.70215 12.3008C6.78468 11.9972 6.84961 11.6475 6.84961 11.3496V8.82031C6.84961 6.79887 8.02651 5.04096 9.73438 4.19141L9.94141 4.08789L10.0547 3.88574C10.444 3.18962 11.1758 2.75 11.9902 2.75Z" stroke="#000232" stroke-width="1.5"/>
<path d="M13.1672 20.9219C12.8258 21.1295 12.4265 21.2499 12.0002 21.25C11.5896 21.25 11.1849 21.132 10.8401 20.9219C11.2299 20.9455 11.6241 20.96 12.0198 20.96C12.4047 20.96 12.7882 20.945 13.1672 20.9219Z" stroke="#000232" stroke-width="1.5"/>
</svg>
