<svg width="154" height="154" viewBox="0 0 154 154" fill="none" xmlns="http://www.w3.org/2000/svg">
<g opacity="0.2">
<path d="M141.167 38.4997V54.028C141.167 64.1663 134.75 70.583 124.612 70.583H102.667V25.7305C102.667 18.608 108.506 12.833 115.629 12.833C122.623 12.8972 129.039 15.7205 133.659 20.3405C138.279 25.0247 141.167 31.4413 141.167 38.4997Z" stroke="#000232" stroke-width="5" stroke-miterlimit="10" stroke-linecap="round" stroke-linejoin="round"/>
<path d="M12.833 44.9163V134.75C12.833 140.076 18.8647 143.091 23.0997 139.883L34.0722 131.67C36.6388 129.745 40.2322 130.001 42.5422 132.311L53.1938 143.027C55.6963 145.53 59.803 145.53 62.3055 143.027L73.0855 132.247C75.3313 130.001 78.9247 129.745 81.4272 131.67L92.3997 139.883C96.6347 143.027 102.666 140.011 102.666 134.75V25.6663C102.666 18.608 108.441 12.833 115.5 12.833H44.9163H38.4997C19.2497 12.833 12.833 24.3188 12.833 38.4997V44.9163Z" stroke="#000232" stroke-width="5" stroke-miterlimit="10" stroke-linecap="round" stroke-linejoin="round"/>
<path d="M57.75 83.4805H77" stroke="#000232" stroke-width="5" stroke-linecap="round" stroke-linejoin="round"/>
<path d="M57.75 57.8145H77" stroke="#000232" stroke-width="5" stroke-linecap="round" stroke-linejoin="round"/>
<path d="M38.4717 83.417H38.5293" stroke="#000232" stroke-width="5" stroke-linecap="round" stroke-linejoin="round"/>
<path d="M38.4717 57.75H38.5293" stroke="#000232" stroke-width="5" stroke-linecap="round" stroke-linejoin="round"/>
</g>
</svg>
