<svg width="1310" height="745" viewBox="0 0 1310 745" fill="none" xmlns="http://www.w3.org/2000/svg">
<path d="M1090.5 0C1211.73 0 1310 98.2735 1310 219.5C1310 340.727 1211.73 439 1090.5 439C969.273 439 871 340.727 871 219.5C871 98.2735 969.273 0 1090.5 0ZM1090.5 70C1007.93 70 941 136.933 941 219.5C941 302.067 1007.93 369 1090.5 369C1173.07 369 1240 302.067 1240 219.5C1240 136.933 1173.07 70 1090.5 70Z" fill="#48FFB4"/>
<path d="M1066 381C1112.39 381 1150 418.608 1150 465C1150 511.392 1112.39 549 1066 549C1019.61 549 982 511.392 982 465C982 418.608 1019.61 381 1066 381ZM1066 407.788C1034.4 407.788 1008.79 433.403 1008.79 465C1008.79 496.597 1034.4 522.212 1066 522.212C1097.6 522.212 1123.21 496.597 1123.21 465C1123.21 433.403 1097.6 407.788 1066 407.788Z" fill="white"/>
</svg>
