<svg width="46" height="36" viewBox="0 0 46 36" fill="none" xmlns="http://www.w3.org/2000/svg">
<path d="M43.3218 5.80645C40.6999 2.10484 36.5601 0 32.1443 0H18.5519C17.172 0 15.861 0.798387 15.1711 2.10484L0.405738 30.9919C-0.146237 32.0806 -0.146238 33.3145 0.474734 34.3306C1.09571 35.3468 2.13066 36 3.23461 36H10.3413C11.6522 36 12.8252 35.2742 13.4462 34.0403L16.689 27.7984C16.758 27.7258 16.758 27.6532 16.827 27.5081L17.103 26.9274C17.103 26.8548 17.172 26.8548 17.172 26.7823C18.7589 27.5081 20.0009 29.3952 21.6568 27.6532C22.9677 25.7661 24.6926 24.0242 26.0036 22.2097C26.7626 21.121 27.3145 19.7419 28.0735 18.6532C28.1425 18.5806 28.1425 18.5081 28.1425 18.3629C28.1425 17.8548 26.9695 16.4032 26.9005 15.8952C26.8316 15.3871 27.3835 14.7339 27.1075 14.1532L29.7294 12.4839C30.2814 12.4839 30.8334 12.3387 31.3853 12.2661C31.8683 12.1935 34.4212 12.121 34.6282 11.9032C34.7662 11.7581 34.6282 9.87097 34.5592 9.58065C34.5592 9.50806 34.4902 9.43548 34.4212 9.3629C34.0072 9.07258 29.8674 9.87097 29.1084 9.79839L25.7966 11.6129C25.3826 10.1613 24.3477 11.9758 23.7957 12.121C23.5197 12.1935 22.7607 11.8306 22.4157 11.9758L18.0689 16.3306C17.862 16.8387 18.5519 18 18.4829 18.6532C17.379 20.8306 16.068 22.8629 15.0331 25.0403C15.0331 25.2581 15.1021 25.4032 15.1021 25.4032C15.1021 25.4032 15.0331 25.5484 14.9641 25.6936L11.3073 32.7339C11.1003 33.0968 10.4103 33.3145 10.4103 33.3145C10.4103 33.3145 5.92549 33.3145 3.57959 33.3145C2.88963 33.3145 2.47565 32.5887 2.82063 31.9355C5.85649 26.0565 17.517 3.26613 17.517 3.26613C17.724 2.83065 18.2069 2.54032 18.6899 2.54032H32.1443C35.7321 2.54032 39.182 4.28226 41.3209 7.33065C43.3908 10.379 44.0118 14.0806 42.9768 17.6371C41.5279 22.5726 37.1121 25.8387 32.1443 25.8387H26.6246C26.4176 25.8387 26.2796 25.9113 26.1416 26.0565L24.4167 27.9436C24.2097 28.1613 24.3477 28.4516 24.6236 28.4516H32.3513C38.285 28.4516 43.4598 24.4597 45.3227 18.5806C46.7027 14.2984 45.9437 9.58065 43.3218 5.80645ZM21.5188 26.6371L22.4847 22.9355C22.8297 21.9194 24.1407 22.5726 24.8996 22.4274L21.5188 26.6371ZM24.6926 20.9032C24.3477 20.6855 24.0027 20.3952 23.5887 20.1048C23.9337 20.3952 24.3477 20.6855 24.6926 20.9032ZM17.931 26.129C18.9659 24.4597 19.7939 22.7177 20.8288 21.0484C21.0358 20.6855 21.3118 20.1774 21.7258 20.1048C22.2778 20.0323 23.5197 21.2661 24.1407 21.4839C24.1407 21.629 24.0717 21.5565 23.9337 21.5565C23.7267 21.5565 23.5197 21.4839 23.3127 21.4839C22.3467 21.5565 21.9328 21.8468 21.5878 22.8629C21.1048 24.3871 20.8288 26.0565 20.3458 27.5806C19.8629 27.9436 18.3449 26.5645 17.862 26.3468L17.931 26.129Z" fill="url(#paint0_linear_311_10853)"/>
<defs>
<linearGradient id="paint0_linear_311_10853" x1="0.0132141" y1="18.004" x2="45.9783" y2="18.004" gradientUnits="userSpaceOnUse">
<stop offset="0.0938326" stop-color="#149CD8"/>
<stop offset="0.8943" stop-color="#74CBF4"/>
</linearGradient>
</defs>
</svg>
