<svg width="16" height="17" viewBox="0 0 16 17" fill="none" xmlns="http://www.w3.org/2000/svg">
<path d="M14.0471 3.63771C12.9738 3.53104 11.9004 3.45104 10.8204 3.39104V3.38438L10.6738 2.51771C10.5738 1.90437 10.4271 0.984375 8.8671 0.984375H7.12043C5.5671 0.984375 5.42043 1.86437 5.31376 2.51104L5.17376 3.36438C4.55376 3.40438 3.93376 3.44438 3.31376 3.50438L1.95376 3.63771C1.67376 3.66438 1.47376 3.91104 1.50043 4.18438C1.5271 4.45771 1.7671 4.65771 2.0471 4.63104L3.4071 4.49771C6.90043 4.15104 10.4204 4.28438 13.9538 4.63771C13.9738 4.63771 13.9871 4.63771 14.0071 4.63771C14.2604 4.63771 14.4804 4.44438 14.5071 4.18438C14.5271 3.91104 14.3271 3.66438 14.0471 3.63771Z" fill="#DA080C"/>
<path d="M12.8202 5.57836C12.6602 5.41169 12.4402 5.31836 12.2135 5.31836H3.78683C3.56016 5.31836 3.33349 5.41169 3.18016 5.57836C3.02683 5.74503 2.94016 5.97169 2.95349 6.20503L3.36683 13.045C3.44016 14.0584 3.53349 15.325 5.86016 15.325H10.1402C12.4668 15.325 12.5602 14.065 12.6335 13.045L13.0468 6.21169C13.0602 5.97169 12.9735 5.74503 12.8202 5.57836ZM9.10682 11.985H6.88683C6.61349 11.985 6.38683 11.7584 6.38683 11.485C6.38683 11.2117 6.61349 10.985 6.88683 10.985H9.10682C9.38016 10.985 9.60682 11.2117 9.60682 11.485C9.60682 11.7584 9.38016 11.985 9.10682 11.985ZM9.66683 9.31836H6.33349C6.06016 9.31836 5.83349 9.09169 5.83349 8.81836C5.83349 8.54503 6.06016 8.31836 6.33349 8.31836H9.66683C9.94016 8.31836 10.1668 8.54503 10.1668 8.81836C10.1668 9.09169 9.94016 9.31836 9.66683 9.31836Z" fill="#DA080C"/>
</svg>
