<svg width="172" height="172" viewBox="0 0 172 172" fill="none" xmlns="http://www.w3.org/2000/svg">
<path d="M151.074 61.4899V110.51C151.074 118.536 146.774 125.99 139.822 130.075L97.2521 154.657C90.3005 158.67 81.7005 158.67 74.6771 154.657L32.1071 130.075C25.1555 126.062 20.8555 118.608 20.8555 110.51V61.4899C20.8555 53.4633 25.1555 46.0096 32.1071 41.9246L74.6771 17.343C81.6288 13.3297 90.2288 13.3297 97.2521 17.343L139.822 41.9246C146.774 46.0096 151.074 53.3916 151.074 61.4899Z" stroke="#000232" stroke-width="5" stroke-linecap="round" stroke-linejoin="round"/>
<path d="M86.0001 78.833C95.2223 78.833 102.698 71.3568 102.698 62.1345C102.698 52.9123 95.2223 45.4365 86.0001 45.4365C76.7779 45.4365 69.3018 52.9123 69.3018 62.1345C69.3018 71.3568 76.7779 78.833 86.0001 78.833Z" stroke="#000232" stroke-width="5" stroke-linecap="round" stroke-linejoin="round"/>
<path d="M114.666 119.396C114.666 106.496 101.838 96.0332 85.9997 96.0332C70.1613 96.0332 57.333 106.496 57.333 119.396" stroke="#000232" stroke-width="5" stroke-linecap="round" stroke-linejoin="round"/>
</svg>
