<svg width="17" height="18" viewBox="0 0 17 18" fill="none" xmlns="http://www.w3.org/2000/svg">
<path d="M8.49967 9.00033C10.4557 9.00033 12.0413 7.41467 12.0413 5.45866C12.0413 3.50265 10.4557 1.91699 8.49967 1.91699C6.54367 1.91699 4.95801 3.50265 4.95801 5.45866C4.95801 7.41467 6.54367 9.00033 8.49967 9.00033Z" stroke="#000232" stroke-linecap="round" stroke-linejoin="round"/>
<path d="M2.41504 16.0833C2.41504 13.3421 5.14212 11.125 8.49962 11.125C9.17962 11.125 9.83838 11.2171 10.4546 11.3871" stroke="#000232" stroke-linecap="round" stroke-linejoin="round"/>
<path d="M15.5837 13.2503C15.5837 13.477 15.5553 13.6966 15.4987 13.9091C15.4349 14.1924 15.3216 14.4687 15.1728 14.7095C14.6841 15.5312 13.7845 16.0837 12.7503 16.0837C12.0207 16.0837 11.362 15.8074 10.8662 15.3541C10.6537 15.1699 10.4695 14.9503 10.3278 14.7095C10.0657 14.2845 9.91699 13.7816 9.91699 13.2503C9.91699 12.4853 10.2216 11.7841 10.7174 11.2741C11.2345 10.7428 11.957 10.417 12.7503 10.417C13.5862 10.417 14.3441 10.7783 14.8541 11.3591C15.3074 11.862 15.5837 12.5278 15.5837 13.2503Z" stroke="#000232" stroke-miterlimit="10" stroke-linecap="round" stroke-linejoin="round"/>
<path d="M13.8052 13.2363H11.6943" stroke="#000232" stroke-miterlimit="10" stroke-linecap="round" stroke-linejoin="round"/>
<path d="M12.75 12.2021V14.3201" stroke="#000232" stroke-miterlimit="10" stroke-linecap="round" stroke-linejoin="round"/>
</svg>
