<svg width="176" height="131" viewBox="0 0 176 131" fill="none" xmlns="http://www.w3.org/2000/svg">
<path opacity="0.3" d="M165.753 21.129C155.721 7.65927 139.882 0 122.987 0H70.9813C65.7015 0 60.6857 2.90524 58.0459 7.65927L1.55239 112.776C-0.559516 116.738 -0.55952 121.228 1.81637 124.925C4.19227 128.623 8.15209 131 12.3759 131H39.5667C44.5825 131 49.0703 128.359 51.4462 123.869L63.8536 101.155C64.1176 100.891 64.1176 100.627 64.3816 100.099L65.4375 97.9859C65.4375 97.7218 65.7015 97.7218 65.7015 97.4577C71.7732 100.099 76.525 106.966 82.8607 100.627C87.8765 93.7601 94.4762 87.4214 99.492 80.8186C102.396 76.8569 104.508 71.8387 107.412 67.877C107.676 67.6129 107.676 67.3488 107.676 66.8206C107.676 64.9718 103.188 59.6895 102.924 57.8407C102.66 55.9919 104.772 53.6149 103.716 51.502L113.747 45.4274C115.859 45.4274 117.971 44.8992 120.083 44.6351C121.931 44.371 131.699 44.1069 132.491 43.3145C133.018 42.7863 132.49 35.9194 132.227 34.8629C132.227 34.5988 131.963 34.3347 131.699 34.0706C130.115 33.0141 114.275 35.9194 111.371 35.6552L98.7 42.2581C97.1161 36.9758 93.1563 43.5786 91.0444 44.1068C89.9884 44.371 87.0845 43.0504 85.7646 43.5786L69.1333 59.4254C68.3414 61.2742 70.9813 65.5 70.7173 67.877C66.4935 75.8004 61.4777 83.1956 57.5179 91.1189C57.5179 91.9113 57.7819 92.4395 57.7819 92.4395C57.7819 92.4395 57.5179 92.9677 57.2539 93.496L43.2625 119.115C42.4706 120.435 39.8307 121.228 39.8307 121.228C39.8307 121.228 22.6714 121.228 13.6958 121.228C11.056 121.228 9.47203 118.587 10.792 116.21C22.4075 94.8165 67.0215 11.8851 67.0215 11.8851C67.8134 10.3004 69.6613 9.24395 71.5092 9.24395H122.987C136.714 9.24395 149.914 15.5827 158.097 26.6754C166.017 37.7681 168.393 51.2379 164.433 64.1794C158.889 82.1391 141.994 94.0242 122.987 94.0242H101.868C101.076 94.0242 100.548 94.2883 100.02 94.8165L93.4203 101.683C92.6283 102.476 93.1563 103.532 94.2122 103.532H123.779C146.482 103.532 166.281 89.0061 173.409 67.6129C178.688 52.0302 175.785 34.8629 165.753 21.129ZM82.3328 96.9294L86.0286 83.4597C87.3485 79.7621 92.3643 82.1391 95.2682 81.6109L82.3328 96.9294ZM94.4762 76.0645C93.1563 75.2722 91.8363 74.2157 90.2524 73.1593C91.5723 74.2157 93.1563 75.2722 94.4762 76.0645ZM68.6054 95.0806C72.5652 89.0061 75.7331 82.6673 79.6929 76.5927C80.4848 75.2722 81.5408 73.4234 83.1247 73.1593C85.2366 72.8952 89.9884 77.3851 92.3643 78.1774C92.3643 78.7056 92.1003 78.4415 91.5723 78.4415C90.7804 78.4415 89.9884 78.1774 89.1964 78.1774C85.5006 78.4415 83.9167 79.498 82.5967 83.1956C80.7488 88.7419 79.6929 94.8165 77.845 100.363C75.997 101.683 70.1893 96.6653 68.3414 95.873L68.6054 95.0806Z" fill="#000232"/>
</svg>
