<svg width="133" height="133" viewBox="0 0 133 133" fill="none" xmlns="http://www.w3.org/2000/svg">
<g opacity="0.2">
<path d="M72.042 61.7891H38.792" stroke="#000232" stroke-width="5" stroke-linecap="round" stroke-linejoin="round"/>
<path d="M11.083 61.7895V36.187C11.083 24.882 20.2268 15.7383 31.5318 15.7383H62.6759C73.9809 15.7383 83.1247 22.7762 83.1247 34.0812" stroke="#000232" stroke-width="5" stroke-linecap="round" stroke-linejoin="round"/>
<path d="M96.8679 67.609C94.0971 70.269 92.7672 74.3698 93.8755 78.5814C95.2609 83.7352 100.359 87.0049 105.679 87.0049H110.833V95.0404C110.833 107.287 100.913 117.207 88.6663 117.207H33.2497C21.0026 117.207 11.083 107.287 11.083 95.0404V56.2487C11.083 44.0016 21.0026 34.082 33.2497 34.082H88.6663C100.858 34.082 110.833 44.057 110.833 56.2487V64.2838H104.848C101.745 64.2838 98.9183 65.5032 96.8679 67.609Z" stroke="#000232" stroke-width="5" stroke-linecap="round" stroke-linejoin="round"/>
<path d="M121.917 69.9358V81.3516C121.917 84.455 119.368 87.0042 116.209 87.0042H105.514C99.5286 87.0042 94.0425 82.6264 93.5437 76.6414C93.2112 73.1501 94.5411 69.8805 96.8686 67.6084C98.919 65.5026 101.745 64.2832 104.849 64.2832H116.209C119.368 64.2832 121.917 66.8325 121.917 69.9358Z" stroke="#000232" stroke-width="5" stroke-linecap="round" stroke-linejoin="round"/>
</g>
</svg>
