<svg width="21" height="22" viewBox="0 0 21 22" fill="none" xmlns="http://www.w3.org/2000/svg">
<path d="M11.0776 2.70337L11.0513 2.76462L8.51384 8.65337H6.02009C5.42509 8.65337 4.85634 8.77587 4.34009 8.99462L5.87134 5.33712L5.90634 5.24962L5.96759 5.10962C5.98509 5.05712 6.00259 5.00462 6.02884 4.96087C7.17509 2.30962 8.47009 1.70587 11.0776 2.70337Z" stroke="#000232" stroke-linecap="round" stroke-linejoin="round"/>
<path d="M15.7937 8.82812C15.3999 8.70563 14.9799 8.65312 14.5599 8.65312H8.51367L11.0512 2.76437L11.0774 2.70312C11.2087 2.74687 11.3312 2.80813 11.4624 2.86063L13.3962 3.67438C14.4724 4.12063 15.2249 4.58437 15.6799 5.14437C15.7674 5.24937 15.8374 5.34562 15.8987 5.45937C15.9774 5.58187 16.0387 5.70437 16.0737 5.83562C16.1087 5.91437 16.1349 5.99312 16.1524 6.06312C16.3887 6.79812 16.2487 7.69938 15.7937 8.82812Z" stroke="#000232" stroke-linecap="round" stroke-linejoin="round"/>
<path d="M18.8315 12.9233V14.6296C18.8315 14.8046 18.8228 14.9796 18.814 15.1546C18.6478 18.2083 16.9415 19.7483 13.704 19.7483H6.879C6.669 19.7483 6.459 19.7308 6.25775 19.7046C3.47525 19.5208 1.98775 18.0333 1.804 15.2508C1.77775 15.0496 1.76025 14.8396 1.76025 14.6296V12.9233C1.76025 11.1646 2.82775 9.65082 4.35025 8.99457C4.87525 8.77582 5.43525 8.65332 6.03025 8.65332H14.5703C14.999 8.65332 15.419 8.71457 15.804 8.82832C17.5453 9.36207 18.8315 10.9896 18.8315 12.9233Z" stroke="#000232" stroke-linecap="round" stroke-linejoin="round"/>
<path d="M5.87125 5.33691L4.34 8.99441C2.8175 9.65066 1.75 11.1644 1.75 12.9232V10.3594C1.75 7.87441 3.5175 5.80066 5.87125 5.33691Z" stroke="#000232" stroke-linecap="round" stroke-linejoin="round"/>
<path d="M18.8288 10.3597V12.9234C18.8288 10.9984 17.5513 9.36219 15.8013 8.83719C16.2563 7.69969 16.3875 6.80719 16.1688 6.06344C16.1513 5.98469 16.125 5.90594 16.09 5.83594C17.7175 6.67594 18.8288 8.39969 18.8288 10.3597Z" stroke="#000232" stroke-linecap="round" stroke-linejoin="round"/>
</svg>
