<svg width="24" height="24" viewBox="0 0 24 24" fill="none" xmlns="http://www.w3.org/2000/svg">
<g opacity="0.43" clip-path="url(#clip0_2007_6532)">
<path d="M3.79015 24.0001C3.66754 23.9578 3.54292 23.9176 3.42132 23.8724C3.05758 23.7458 2.74101 23.5114 2.51374 23.2005C2.28646 22.8896 2.15924 22.5168 2.14901 22.1318C2.13595 21.0122 2.04851 19.8816 2.37915 18.7872C3.22836 16.0054 5.09261 14.3321 7.93671 13.7543C8.2382 13.6919 8.54874 13.6377 8.85325 13.5734C8.97911 13.552 9.09882 13.5035 9.20408 13.4313C9.30934 13.3591 9.39763 13.2648 9.46284 13.155C9.52804 13.0453 9.56859 12.9227 9.58168 12.7957C9.59477 12.6687 9.58009 12.5404 9.53865 12.4196C9.52056 12.3644 9.45021 12.3191 9.39594 12.2809C8.2171 11.4981 7.52668 10.4107 7.33673 9.0047C7.32422 8.96711 7.30306 8.93298 7.27496 8.90506C7.24686 8.87713 7.2126 8.85618 7.17493 8.84391C6.59405 8.71024 6.23125 8.27207 6.2212 7.67813C6.2212 7.37663 6.20311 7.08418 6.22924 6.78972C6.26359 6.59267 6.31504 6.39898 6.38301 6.21085C6.43736 6.07909 6.47484 5.94098 6.49456 5.79981C6.50662 5.16064 6.49456 4.52047 6.50159 3.8813C6.51767 2.3477 7.46336 1.10554 8.94471 0.691484C9.67935 0.490487 10.422 0.310595 11.1647 0.135728C11.7604 -0.00167057 12.38 0.00280459 12.9737 0.148793C13.7053 0.32165 14.444 0.487472 15.1656 0.703544C16.3896 1.07539 17.1584 1.90952 17.472 3.14766C17.5343 3.39187 17.4398 3.5778 17.2378 3.63307C17.0358 3.68834 16.8559 3.57378 16.7926 3.33157C16.5002 2.21102 15.7786 1.55175 14.652 1.29849C14.0751 1.16885 13.5033 1.01509 12.9295 0.869366C12.385 0.722321 11.8126 0.711965 11.2632 0.839216C10.5286 1.01509 9.79291 1.18895 9.06732 1.39497C8.53824 1.54557 8.07181 1.86274 7.73726 2.2994C7.4027 2.73606 7.21784 3.26895 7.21011 3.81899C7.20006 4.44208 7.21011 5.06517 7.21011 5.71841C8.77648 5.27452 10.3959 5.04563 12.024 5.03804C13.6553 5.04386 15.2782 5.27209 16.8479 5.7164C16.8479 5.46817 16.8479 5.24406 16.8479 5.01995C16.8479 4.76569 16.9826 4.61092 17.1926 4.60589C17.4026 4.60087 17.5494 4.75664 17.5534 5.02598C17.5534 5.19783 17.5534 5.36968 17.5534 5.54053C17.5534 5.81187 17.5454 6.07317 17.7172 6.31838C17.7938 6.46268 17.8316 6.62442 17.8267 6.78771C17.8438 7.08921 17.8378 7.3907 17.8328 7.70024C17.835 7.96792 17.7427 8.22779 17.5721 8.43407C17.4014 8.64035 17.1635 8.77979 16.9002 8.82783C16.7705 8.85295 16.7213 8.88813 16.6992 9.02882C16.6296 9.65399 16.4269 10.257 16.1046 10.7972C15.7823 11.3374 15.348 11.8022 14.8309 12.1604C14.4982 12.3985 14.4289 12.5784 14.5294 12.9794C14.5625 13.1289 14.6399 13.265 14.7513 13.3701C14.8628 13.4751 15.0033 13.5442 15.1545 13.5683C15.8972 13.7382 16.672 13.8296 17.3745 14.103C19.9513 15.108 21.4718 17.0054 21.8477 19.751C21.9602 20.5711 21.919 21.4162 21.8959 22.2484C21.8738 23.0142 21.2638 23.6966 20.502 23.9187C20.4226 23.9418 20.3442 23.9729 20.2648 24.0001H3.79015ZM18.0961 23.2825C18.0961 22.8443 18.084 22.4252 18.0961 22.0062C18.1195 21.685 18.0167 21.3674 17.8097 21.1208C17.5943 20.8701 17.4691 20.5545 17.4539 20.2243C17.4268 19.6294 17.1524 19.3711 16.5554 19.3711H7.57994C7.50959 19.3711 7.43924 19.3711 7.36889 19.3711C7.19198 19.3842 7.02585 19.4612 6.90143 19.5876C6.77701 19.7141 6.70278 19.8814 6.69254 20.0585C6.67891 20.4906 6.50893 20.903 6.21417 21.2193C6.1197 21.3268 6.00513 21.4665 6.00011 21.5961C5.97599 22.1529 5.99006 22.7107 5.99006 23.2785L18.0961 23.2825ZM7.01212 6.77063L6.92771 6.82691C6.92771 7.10629 6.92268 7.38467 6.92771 7.66406C6.93273 7.94344 7.08147 8.10424 7.36688 8.14042C7.78295 8.19268 7.98897 8.3997 8.04123 8.81577C8.05128 8.89315 8.05429 8.97154 8.06535 9.04892C8.40403 11.3604 10.7788 12.7332 12.8219 12.293C14.1767 12.0016 15.8077 10.9303 16.0128 8.82883C16.055 8.39769 16.264 8.1967 16.6982 8.13941C16.9424 8.10725 17.1062 7.97158 17.1192 7.74445C17.1363 7.43693 17.1192 7.1284 17.1192 6.81987L17.067 6.78872C16.9574 6.90529 16.8499 7.02388 16.7373 7.13744C16.1404 7.74043 15.4409 7.97058 14.5887 7.82284C12.9274 7.52326 11.2262 7.52019 9.56378 7.8138C8.6211 7.98465 7.85531 7.73642 7.22016 7.047C7.14679 6.96258 7.08247 6.86309 7.01212 6.77063ZM15.7062 14.4256C15.3565 14.2879 15.3364 14.2899 15.0701 14.5C14.7686 14.7411 14.4671 15.0024 14.1495 15.2205C13.1174 15.93 12.0079 16.0486 10.8331 15.6145C10.212 15.3843 9.72759 14.9472 9.2452 14.519C8.97988 14.2829 8.73768 14.2738 8.44121 14.4015V18.6455H15.7002L15.7062 14.4256ZM5.90564 15.2758C4.19114 16.1682 2.91883 18.3179 2.89069 20.1158H5.90564C5.90564 19.5188 5.90564 18.942 5.90564 18.3661C5.90026 18.2103 5.90295 18.0543 5.91368 17.8988C5.91594 17.8537 5.92728 17.8094 5.947 17.7688C5.96672 17.7281 5.99443 17.6918 6.02847 17.6621C6.06252 17.6324 6.1022 17.6098 6.14515 17.5957C6.18811 17.5817 6.23345 17.5764 6.27849 17.5802C6.3218 17.5793 6.36486 17.587 6.40517 17.6029C6.44549 17.6187 6.48224 17.6425 6.51329 17.6727C6.54434 17.7029 6.56907 17.739 6.58604 17.7788C6.60301 17.8187 6.61188 17.8615 6.61214 17.9048C6.62219 18.0124 6.61817 18.1229 6.61918 18.2315V18.8344L7.70556 18.6204V14.5391C7.64597 14.545 7.58687 14.5551 7.52869 14.5693C7.29051 14.6427 7.05534 14.7221 6.81615 14.7934C6.78402 14.7987 6.75327 14.8104 6.7257 14.8278C6.69812 14.8451 6.67429 14.8678 6.65557 14.8945C6.63686 14.9211 6.62365 14.9512 6.61671 14.9831C6.60977 15.0149 6.60924 15.0478 6.61516 15.0798C6.63124 15.3753 6.61516 15.6718 6.61516 15.9682C6.61516 16.4486 6.52772 16.6084 6.26442 16.6114C6.00111 16.6144 5.90162 16.4436 5.90162 15.9773L5.90564 15.2758ZM21.1814 20.1238C21.0507 17.8958 19.5433 15.9883 18.2569 15.3532V20.1198L21.1814 20.1238ZM7.58497 6.38672C8.01409 6.88921 8.4985 7.26709 9.21404 7.14247C11.076 6.81837 12.98 6.81837 14.8419 7.14247C15.1569 7.18832 15.4784 7.13883 15.7649 7.00038C16.0515 6.86193 16.2901 6.64085 16.4499 6.36562C14.3525 5.56364 9.18992 5.5747 7.58497 6.38672ZM9.71553 13.9693C11.3376 15.6024 13.032 15.4667 14.4309 14.0769C14.2751 13.8809 14.0882 13.706 13.9777 13.4909C13.8671 13.2759 13.8259 13.0136 13.7485 12.7543C12.6365 13.2029 11.3933 13.2 10.2833 12.7463C10.1296 13.509 10.0954 13.5834 9.71553 13.9693ZM2.8525 20.8575C2.8525 21.2806 2.84345 21.6916 2.8525 22.1016C2.86657 22.6413 3.25449 23.1639 3.78914 23.2363C4.25948 23.2996 4.74488 23.2493 5.24536 23.2493C5.24536 22.7981 5.24536 22.3318 5.24536 21.8665C5.23775 21.5532 5.32422 21.2448 5.49359 20.9811C5.51505 20.9413 5.53352 20.9 5.54887 20.8575H2.8525ZM18.8317 23.2865C19.2458 23.2865 19.6518 23.3116 20.0528 23.2805C20.2933 23.2725 20.5254 23.19 20.717 23.0444C20.9086 22.8987 21.0501 22.6971 21.1221 22.4675C21.302 21.9419 21.1693 21.3951 21.2075 20.8655H18.5212C19.0106 21.6343 18.7131 22.4705 18.8317 23.2865ZM16.4409 14.5261V18.6103L17.5122 18.8254C17.5052 18.8405 17.5202 18.8254 17.5202 18.8003C17.5202 17.5471 17.5202 16.2928 17.5202 15.0396C17.5134 15.0012 17.4977 14.9649 17.4743 14.9336C17.4509 14.9024 17.4205 14.8771 17.3856 14.8597C17.0851 14.7411 16.7715 14.6417 16.4409 14.5261Z" fill="#000232"/>
<path d="M12.0036 4.26911C11.5906 4.26911 11.1775 4.26911 10.7645 4.26911C10.2097 4.26308 9.87807 3.92943 9.87305 3.3797C9.87305 3.20081 9.87305 3.02092 9.87305 2.84203C9.88109 2.34758 10.2067 1.99986 10.7052 1.9878C11.3082 1.97272 11.9212 1.98277 12.5292 1.98277C12.7945 1.98277 13.0598 1.97574 13.3242 1.98277C13.8488 1.99986 14.1754 2.33954 14.1814 2.86314C14.1814 3.05007 14.1814 3.23699 14.1814 3.42392C14.1845 3.5334 14.1656 3.64239 14.1257 3.7444C14.0858 3.84641 14.0259 3.93937 13.9494 4.01775C13.8729 4.09612 13.7814 4.15832 13.6804 4.20064C13.5794 4.24296 13.4709 4.26453 13.3613 4.26409C12.9091 4.27614 12.4569 4.26409 12.0046 4.26409L12.0036 4.26911ZM12.0267 2.69832C11.7383 2.69832 11.4509 2.69832 11.1634 2.69832C10.4851 2.70837 10.5946 2.59782 10.5755 3.30131C10.5755 3.51035 10.6509 3.56763 10.8499 3.56462C11.5182 3.55557 12.1875 3.56462 12.8599 3.56462C13.5794 3.55658 13.4628 3.69124 13.4809 2.93148C13.4809 2.7546 13.4096 2.70134 13.2438 2.70435C12.8347 2.70234 12.4307 2.69832 12.0267 2.69832Z" fill="#000232"/>
<path d="M18.0955 23.2823H5.98943C5.98943 22.7145 5.97536 22.1567 5.99948 21.6C5.99948 21.4703 6.11907 21.3306 6.21354 21.2231C6.50831 20.9069 6.67829 20.4944 6.69191 20.0624C6.70215 19.8853 6.77639 19.7179 6.90081 19.5915C7.02523 19.465 7.19135 19.3881 7.36827 19.375C7.43862 19.3679 7.50897 19.375 7.57931 19.375H16.5588C17.1618 19.375 17.4302 19.6332 17.4573 20.2282C17.4725 20.5583 17.5977 20.8739 17.8131 21.1246C18.0199 21.371 18.1226 21.6882 18.0995 22.009C18.0834 22.4251 18.0955 22.8442 18.0955 23.2823Z" fill="white" fill-opacity="0.49"/>
<path d="M7.01173 6.77051C7.08208 6.86297 7.1464 6.96246 7.22479 7.04788C7.86295 7.7373 8.62574 7.98553 9.56841 7.81469C11.2308 7.52108 12.932 7.52414 14.5933 7.82373C15.4456 7.97146 16.145 7.73931 16.742 7.13833C16.8545 7.02477 16.9621 6.90618 17.0716 6.7896L17.1239 6.82076C17.1239 7.12929 17.1369 7.43782 17.1239 7.74534C17.1108 7.97247 16.947 8.10814 16.7028 8.1403C16.2686 8.19758 16.0596 8.39858 16.0174 8.82972C15.8164 10.9311 14.1813 12.0024 12.8266 12.2939C10.7824 12.7341 8.40464 11.3583 8.06998 9.04981C8.05893 8.97243 8.05591 8.89404 8.04586 8.81665C7.9936 8.40059 7.78758 8.19356 7.37152 8.1413C7.0861 8.10412 6.93937 7.95036 6.93334 7.66394C6.92731 7.37752 6.93334 7.10617 6.93334 6.82679L7.01173 6.77051Z" fill="white" fill-opacity="0.49"/>
<path d="M15.7063 14.4255V18.6465H8.44727V14.4014C8.73972 14.2738 8.98192 14.2828 9.25125 14.519C9.73264 14.9471 10.218 15.3843 10.8391 15.6144C12.0119 16.0486 13.1214 15.93 14.1556 15.2205C14.4762 14.9994 14.7696 14.7411 15.0761 14.4999C15.3364 14.2899 15.3565 14.2878 15.7063 14.4255Z" fill="white" fill-opacity="0.49"/>
<path d="M5.90546 15.2757V15.9791C5.90546 16.4455 6.00596 16.6153 6.26826 16.6133C6.53056 16.6113 6.619 16.4505 6.619 15.9701C6.619 15.6736 6.63005 15.3772 6.619 15.0817C6.61309 15.0497 6.61361 15.0168 6.62055 14.9849C6.62749 14.9531 6.64071 14.923 6.65942 14.8963C6.67813 14.8697 6.70197 14.847 6.72954 14.8296C6.75711 14.8123 6.78786 14.8006 6.82 14.7953C7.05918 14.7239 7.29435 14.6445 7.53253 14.5712C7.59071 14.557 7.64981 14.5469 7.7094 14.541V18.6122L6.62302 18.8263V18.2233C6.62302 18.1147 6.62302 18.0042 6.61598 17.8967C6.61573 17.8533 6.60686 17.8105 6.58988 17.7706C6.57291 17.7308 6.54818 17.6947 6.51713 17.6645C6.48608 17.6343 6.44933 17.6105 6.40902 17.5947C6.36871 17.5788 6.32564 17.5711 6.28233 17.572C6.23729 17.5682 6.19195 17.5735 6.14899 17.5875C6.10604 17.6016 6.06636 17.6242 6.03232 17.6539C5.99827 17.6836 5.97056 17.7199 5.95084 17.7606C5.93112 17.8013 5.91979 17.8455 5.91752 17.8906C5.90679 18.0462 5.9041 18.2021 5.90948 18.3579C5.90948 18.9338 5.90948 19.5107 5.90948 20.1076H2.89453C2.91463 18.3137 4.19096 16.1641 5.90546 15.2757Z" fill="white" fill-opacity="0.49"/>
<path d="M21.1804 20.1198H18.2559V15.3491C19.5422 15.9843 21.0497 17.8887 21.1804 20.1198Z" fill="white" fill-opacity="0.49"/>
<path d="M7.58496 6.38674C9.19293 5.57472 14.3525 5.56366 16.4539 6.36464C16.2941 6.63987 16.0555 6.86094 15.769 6.9994C15.4824 7.13785 15.1609 7.18734 14.846 7.14149C12.984 6.81739 11.08 6.81739 9.21806 7.14149C8.49849 7.26711 8.01409 6.89024 7.58496 6.38674Z" fill="white" fill-opacity="0.49"/>
<path d="M9.71484 13.9692C10.0947 13.5802 10.1289 13.5059 10.2827 12.7461C11.3926 13.1998 12.6358 13.2027 13.7478 12.7541C13.8252 13.0134 13.8634 13.2717 13.977 13.4908C14.0905 13.7099 14.2785 13.8807 14.4302 14.0767C13.0353 15.4696 11.3369 15.6053 9.71484 13.9692Z" fill="white" fill-opacity="0.49"/>
<path d="M2.85212 20.8574H5.5505C5.53515 20.8999 5.51668 20.9413 5.49522 20.981C5.32584 21.2447 5.23938 21.5531 5.24699 21.8664C5.24699 22.3317 5.24699 22.798 5.24699 23.2493C4.7445 23.2493 4.2611 23.2995 3.79077 23.2362C3.26014 23.1639 2.8682 22.6413 2.85413 22.1016C2.84307 21.6916 2.85212 21.2805 2.85212 20.8574Z" fill="white" fill-opacity="0.49"/>
<path d="M18.831 23.2865C18.7125 22.4704 19.0099 21.6343 18.5205 20.8655H21.2048C21.1666 21.3951 21.2993 21.9418 21.1194 22.4674C21.0474 22.6971 20.9059 22.8987 20.7143 23.0443C20.5227 23.19 20.2906 23.2725 20.0501 23.2805C19.6511 23.3156 19.2451 23.2865 18.831 23.2865Z" fill="white" fill-opacity="0.49"/>
<path d="M16.4405 14.5261C16.7711 14.6417 17.0807 14.7412 17.3832 14.8598C17.4181 14.8771 17.4485 14.9024 17.4719 14.9337C17.4953 14.9649 17.511 15.0012 17.5178 15.0397C17.5249 16.2929 17.5178 17.5471 17.5178 18.8003C17.5178 18.8204 17.5028 18.8405 17.5098 18.8254L16.4385 18.6104L16.4405 14.5261Z" fill="white" fill-opacity="0.49"/>
<path d="M12.0267 2.69841C12.4287 2.69841 12.8307 2.69841 13.2397 2.69841C13.4056 2.69841 13.4799 2.74866 13.4769 2.92554C13.4608 3.68531 13.5774 3.55064 12.8558 3.55868C12.1875 3.56571 11.5182 3.55868 10.8459 3.55868C10.6449 3.55868 10.5665 3.50441 10.5715 3.29537C10.5906 2.59188 10.4811 2.70545 11.1594 2.69238C11.4509 2.6954 11.7383 2.69841 12.0267 2.69841Z" fill="white" fill-opacity="0.49"/>
</g>
<defs>
<clipPath id="clip0_2007_6532">
<rect width="24" height="24" fill="white"/>
</clipPath>
</defs>
</svg>
